<svg width="100" height="100" viewBox="0 0 100 100" fill="none" xmlns="http://www.w3.org/2000/svg">
<path d="M75.3906 44.9219C77.548 44.9219 79.2969 43.173 79.2969 41.0156C79.2969 38.8583 77.548 37.1094 75.3906 37.1094C73.2333 37.1094 71.4844 38.8583 71.4844 41.0156C71.4844 43.173 73.2333 44.9219 75.3906 44.9219Z" fill="white"/>
<path d="M84.375 7.8125H79.2969V3.90625C79.2969 1.74883 77.548 0 75.3906 0C73.2332 0 71.4844 1.74883 71.4844 3.90625V7.8125H53.7109V3.90625C53.7109 1.74883 51.9621 0 49.8047 0C47.6473 0 45.8984 1.74883 45.8984 3.90625V7.8125H28.3203V3.90625C28.3203 1.74883 26.5715 0 24.4141 0C22.2566 0 20.5078 1.74883 20.5078 3.90625V7.8125H15.625C7.00938 7.8125 0 14.8219 0 23.4375V84.375C0 92.9906 7.00938 100 15.625 100H45.5078C47.6652 100 49.4141 98.2512 49.4141 96.0938C49.4141 93.9363 47.6652 92.1875 45.5078 92.1875H15.625C11.3172 92.1875 7.8125 88.6828 7.8125 84.375V23.4375C7.8125 19.1297 11.3172 15.625 15.625 15.625H20.5078V19.5312C20.5078 21.6887 22.2566 23.4375 24.4141 23.4375C26.5715 23.4375 28.3203 21.6887 28.3203 19.5312V15.625H45.8984V19.5312C45.8984 21.6887 47.6473 23.4375 49.8047 23.4375C51.9621 23.4375 53.7109 21.6887 53.7109 19.5312V15.625H71.4844V19.5312C71.4844 21.6887 73.2332 23.4375 75.3906 23.4375C77.548 23.4375 79.2969 21.6887 79.2969 19.5312V15.625H84.375C88.6828 15.625 92.1875 19.1297 92.1875 23.4375V45.7031C92.1875 47.8605 93.9363 49.6094 96.0938 49.6094C98.2512 49.6094 100 47.8605 100 45.7031V23.4375C100 14.8219 92.9906 7.8125 84.375 7.8125Z" fill="white"/>
<path d="M76.3672 52.7344C63.3359 52.7344 52.7344 63.3359 52.7344 76.3672C52.7344 89.3984 63.3359 100 76.3672 100C89.3984 100 100 89.3984 100 76.3672C100 63.3359 89.3984 52.7344 76.3672 52.7344ZM76.3672 92.1875C67.6439 92.1875 60.5469 85.0906 60.5469 76.3672C60.5469 67.6437 67.6439 60.5469 76.3672 60.5469C85.0904 60.5469 92.1875 67.6437 92.1875 76.3672C92.1875 85.0906 85.0904 92.1875 76.3672 92.1875Z" fill="#11BA55"/>
<path d="M82.0312 72.4609H80.2734V68.3594C80.2734 66.202 78.5246 64.4531 76.3672 64.4531C74.2098 64.4531 72.4609 66.202 72.4609 68.3594V76.3672C72.4609 78.5246 74.2098 80.2734 76.3672 80.2734H82.0312C84.1887 80.2734 85.9375 78.5246 85.9375 76.3672C85.9375 74.2098 84.1887 72.4609 82.0312 72.4609Z" fill="white"/>
<path d="M58.3984 44.9219C60.5558 44.9219 62.3047 43.173 62.3047 41.0156C62.3047 38.8583 60.5558 37.1094 58.3984 37.1094C56.2411 37.1094 54.4922 38.8583 54.4922 41.0156C54.4922 43.173 56.2411 44.9219 58.3984 44.9219Z" fill="white"/>
<path d="M41.4062 61.9141C43.5636 61.9141 45.3125 60.1652 45.3125 58.0078C45.3125 55.8505 43.5636 54.1016 41.4062 54.1016C39.2489 54.1016 37.5 55.8505 37.5 58.0078C37.5 60.1652 39.2489 61.9141 41.4062 61.9141Z" fill="white"/>
<path d="M24.4141 44.9219C26.5714 44.9219 28.3203 43.173 28.3203 41.0156C28.3203 38.8583 26.5714 37.1094 24.4141 37.1094C22.2567 37.1094 20.5078 38.8583 20.5078 41.0156C20.5078 43.173 22.2567 44.9219 24.4141 44.9219Z" fill="white"/>
<path d="M24.4141 61.9141C26.5714 61.9141 28.3203 60.1652 28.3203 58.0078C28.3203 55.8505 26.5714 54.1016 24.4141 54.1016C22.2567 54.1016 20.5078 55.8505 20.5078 58.0078C20.5078 60.1652 22.2567 61.9141 24.4141 61.9141Z" fill="white"/>
<path d="M24.4141 78.9062C26.5714 78.9062 28.3203 77.1574 28.3203 75C28.3203 72.8426 26.5714 71.0938 24.4141 71.0938C22.2567 71.0938 20.5078 72.8426 20.5078 75C20.5078 77.1574 22.2567 78.9062 24.4141 78.9062Z" fill="white"/>
<path d="M41.4062 78.9062C43.5636 78.9062 45.3125 77.1574 45.3125 75C45.3125 72.8426 43.5636 71.0938 41.4062 71.0938C39.2489 71.0938 37.5 72.8426 37.5 75C37.5 77.1574 39.2489 78.9062 41.4062 78.9062Z" fill="white"/>
<path d="M41.4062 44.9219C43.5636 44.9219 45.3125 43.173 45.3125 41.0156C45.3125 38.8583 43.5636 37.1094 41.4062 37.1094C39.2489 37.1094 37.5 38.8583 37.5 41.0156C37.5 43.173 39.2489 44.9219 41.4062 44.9219Z" fill="white"/>
</svg>
