<?xml version="1.0" encoding="utf-8"?>
<!-- Generator: Adobe Illustrator 16.0.0, SVG Export Plug-In . SVG Version: 6.00 Build 0)  -->
<!DOCTYPE svg PUBLIC "-//W3C//DTD SVG 1.1//EN" "http://www.w3.org/Graphics/SVG/1.1/DTD/svg11.dtd">
<svg version="1.1" id="Layer_1" xmlns="http://www.w3.org/2000/svg" xmlns:xlink="http://www.w3.org/1999/xlink" x="0px" y="0px"
	 width="300px" height="100px" viewBox="0 0 300 100" enable-background="new 0 0 300 100" xml:space="preserve">
<g>
	<rect x="41.72" y="11.13" fill="#FFFFFF" width="79.646" height="79.646"/>
	<polygon fill="#DB0011" points="161.188,51.047 121.366,11.13 121.366,90.869 	"/>
	<polygon fill="#DB0011" points="81.543,51.047 121.366,11.13 41.72,11.13 	"/>
	<polygon fill="#DB0011" points="1.804,51.047 41.72,90.869 41.72,11.13 	"/>
	<polygon fill="#DB0011" points="81.543,51.047 41.72,90.869 121.366,90.869 	"/>
	<path fill="#FFFFFF" d="M196.139,53.39h-14.43v14.242h-7.215V34.274h7.215v13.68h14.43v-13.68h7.215v33.357h-7.215V53.39z"/>
	<path fill="#FFFFFF" d="M220.782,68.288c-7.215,0-13.118-2.905-13.212-10.87h7.215c0.094,3.562,2.155,5.717,6.091,5.717
		c2.904,0,6.278-1.5,6.278-4.779c0-2.623-2.249-3.373-5.997-4.497l-2.437-0.656c-5.247-1.5-10.494-3.561-10.494-9.558
		c0-7.402,6.934-9.932,13.212-9.932c6.465,0,12.087,2.249,12.181,9.651h-7.215c-0.281-2.998-2.062-4.779-5.435-4.779
		c-2.717,0-5.341,1.406-5.341,4.404c0,2.437,2.249,3.186,6.934,4.686l2.811,0.843c5.716,1.78,9.371,3.749,9.371,9.37
		C234.649,65.383,227.341,68.288,220.782,68.288z"/>
	<path fill="#FFFFFF" d="M238.772,34.368h11.619c2.155-0.094,4.404,0,6.559,0.375c4.029,0.937,7.122,3.561,7.122,8.058
		c0,4.31-2.718,6.465-6.653,7.496c4.498,0.843,7.871,3.092,7.871,8.058c0,7.59-7.496,9.276-13.306,9.276h-13.118L238.772,34.368z
		 M250.392,48.236c3.186,0,6.465-0.656,6.465-4.498c0-3.467-2.998-4.404-5.996-4.404H245.8v8.902H250.392z M251.048,62.666
		c3.373,0,6.652-0.75,6.652-4.873c0-4.122-2.811-4.872-6.278-4.872h-5.715v9.745H251.048z"/>
	<path fill="#FFFFFF" d="M284.03,68.288c-10.775,0-15.555-6.841-15.555-17.054c0-10.213,5.341-17.616,15.93-17.616
		c6.652,0,13.118,2.998,13.305,10.494h-7.495c-0.375-3.373-2.624-5.06-5.81-5.06c-6.56,0-8.527,7.027-8.527,12.369
		c0,5.341,1.968,11.525,8.246,11.525c3.279,0,5.716-1.781,6.184-5.154h7.497C297.055,65.477,290.964,68.288,284.03,68.288z"/>
</g>
</svg>
