<?xml version="1.0" encoding="UTF-8" standalone="no"?>
<!DOCTYPE svg PUBLIC "-//W3C//DTD SVG 1.1//EN" "http://www.w3.org/Graphics/SVG/1.1/DTD/svg11.dtd">
<svg width="100%" height="100%" viewBox="0 0 105 26" version="1.1" xmlns="http://www.w3.org/2000/svg" xmlns:xlink="http://www.w3.org/1999/xlink" xml:space="preserve" xmlns:serif="http://www.serif.com/" style="fill-rule:evenodd;clip-rule:evenodd;stroke-linejoin:round;stroke-miterlimit:2;">
    <g transform="matrix(1,0,0,1,0,0.001)">
        <g transform="matrix(1,0,0,1,-241.1,-150.7)">
            <path d="M368.479,150.7L258.037,183.758C248.293,186.593 241.1,193.006 241.1,202.858C241.135,212.106 247.655,219.086 256.407,221.637C258,222.1 368.514,254.3 368.514,254.3L368.479,150.7Z" style="fill:rgb(215,20,28);fill-opacity:0;fill-rule:nonzero;"/>
        </g>
        <g transform="matrix(1,0,0,1,-285.884,-257.375)">
            <path d="M308.226,265.147C307.872,266.847 306.632,267.947 303.549,267.947L300.36,267.947L301.56,262.347L304.713,262.347C308.044,262.347 308.613,263.339 308.221,265.147M306.981,275.529C306.52,277.655 304.961,278.612 301.281,278.612L298.092,278.612L299.403,272.482L302.592,272.482C306.277,272.447 307.411,273.403 306.986,275.529M361.8,257.6C356.91,257.6 355.706,261.072 355.706,261.072L350.462,273.509L350.356,273.509L349.009,257.6L340.753,257.6C338.371,257.664 336.217,259.063 335.19,261.214L328.919,273.544L328.813,273.544L328.778,257.635L323.178,257.635C319.458,257.635 318.678,259.619 318.501,260.789C317.438,258.734 314.462,257.635 309.218,257.635L295.931,257.635C291.644,257.635 291.254,260.859 291.254,260.859L286.4,283.147L305.179,283.147C310.671,283.147 312.443,282.58 314.427,281.163C315.915,280.031 316.937,278.391 317.297,276.557C318.218,272.199 315.097,270.463 311.597,270.25L311.597,270.144C314.821,269.4 317.55,267.983 318.577,265.113L318.967,283.113L327.931,283.113C330.984,283.053 333.739,281.225 334.982,278.436L340.474,267.629L340.58,267.629L341.855,283.148L349.863,283.148C353.217,283.174 356.278,281.189 357.623,278.117L364.674,262.385L360.28,283.148L365.063,283.148C371.263,283.148 372.079,278.223 372.079,278.223L373.036,273.688L379.91,273.688C385.189,273.688 385.969,269.649 385.969,269.649L386.252,268.303L374.165,268.303L375.299,263.024L382.881,263.024C388.054,263.024 388.798,259.197 388.798,259.197L389.117,257.673L361.8,257.673L361.8,257.6Z" style="fill:rgb(215,20,28);fill-rule:nonzero;"/>
        </g>
    </g>
</svg>
