<?xml version="1.0" encoding="utf-8"?>
<!-- Generator: Adobe Illustrator 26.5.0, SVG Export Plug-In . SVG Version: 6.00 Build 0)  -->
<svg version="1.1" id="icons" xmlns="http://www.w3.org/2000/svg" xmlns:xlink="http://www.w3.org/1999/xlink" x="0px" y="0px"
	 viewBox="0 0 18 18" style="enable-background:new 0 0 18 18;" xml:space="preserve">
<style type="text/css">
	.st0{fill:#FFFFFF;}
</style>
<path class="st0" d="M14.5,4.2C14.4,4.1,14.3,4,14.2,4c-0.3-0.2-0.6-0.4-0.9-0.7c-0.6-0.7-0.9-1.5-1-2l0,0c-0.1-0.4,0-0.7,0-0.7H9.4
	v11.2c0,0.2,0,0.3,0,0.4c0,0,0,0,0,0.1l0,0l0,0c-0.1,0.8-0.5,1.5-1.2,2c-0.4,0.2-0.8,0.3-1.2,0.3c-1.4,0-2.4-1.1-2.4-2.5
	s1-2.5,2.4-2.5c0.3,0,0.5,0,0.8,0.1v-3C6.2,6.6,4.7,7.1,3.6,8C3.1,8.5,2.7,9,2.3,9.6c-0.1,0.2-0.6,1-0.6,2.4c0,0.8,0.2,1.6,0.3,1.9
	l0,0c0.1,0.2,0.3,0.9,0.8,1.4c0.4,0.5,0.8,0.9,1.3,1.2l0,0l0,0c1.4,1,3,0.9,3,0.9c0.3,0,1.2,0,2.2-0.5c1.1-0.5,1.8-1.3,1.8-1.3
	c0.4-0.5,0.7-1,1-1.6c0.3-0.7,0.3-1.5,0.3-1.8v-6l0.5,0.3c0,0,0.7,0.4,1.7,0.7c0.8,0.2,1.8,0.2,1.8,0.2V4.6
	C16,4.7,15.2,4.5,14.5,4.2z"/>
</svg>
