<svg xmlns="http://www.w3.org/2000/svg" width="18.133" height="18.133" viewBox="0 0 18.133 18.133"><g transform="translate(0 0)"><path d="M16.19,32H1.943A1.943,1.943,0,0,0,0,33.943V48.19a1.943,1.943,0,0,0,1.943,1.943H7.5V43.968H4.948v-2.9H7.5V38.855a3.542,3.542,0,0,1,3.791-3.905,15.448,15.448,0,0,1,2.247.2v2.469H12.271a1.451,1.451,0,0,0-1.636,1.568v1.884h2.784l-.445,2.9H10.635v6.165H16.19a1.943,1.943,0,0,0,1.943-1.943V33.943A1.943,1.943,0,0,0,16.19,32Z" transform="translate(0 -32)" fill="#fff"/></g></svg>