<?xml version="1.0" encoding="utf-8"?>
<!-- Generator: Adobe Illustrator 16.0.0, SVG Export Plug-In . SVG Version: 6.00 Build 0)  -->
<!DOCTYPE svg PUBLIC "-//W3C//DTD SVG 1.1//EN" "http://www.w3.org/Graphics/SVG/1.1/DTD/svg11.dtd">
<svg version="1.1" id="Capa_1" xmlns="http://www.w3.org/2000/svg" xmlns:xlink="http://www.w3.org/1999/xlink" x="0px" y="0px"
	 width="46px" height="60px" viewBox="397.945 267.64 46 60" enable-background="new 397.945 267.64 46 60" xml:space="preserve">
<g>
	<polyline fill="#9A9A9A" points="443.459,281.681 443.459,326.509 398.43,326.509 398.43,268.772 430.517,268.772 	"/>
	<polyline fill="#FFFFFF" points="442.138,282.088 430.092,282.088 430.092,270.043 	"/>
	<g>
		<path fill="#FFFFFF" d="M427.16,310.757c-2.166,0.975-4.043,1.3-6.643,1.3c-5.993,0-11.264-4.297-11.264-11.372
			c0-7.365,5.379-13.755,13.502-13.755c6.391,0,10.939,4.368,10.939,10.433c0,5.308-2.961,8.629-6.859,8.629
			c-1.697,0-2.925-0.902-3.105-2.78h-0.072c-1.155,1.806-2.743,2.78-4.693,2.78c-2.311,0-4.043-1.769-4.043-4.729
			c0-4.44,3.285-8.412,8.484-8.412c1.588,0,3.394,0.397,4.296,0.866l-1.083,6.715c-0.361,2.13-0.108,3.104,0.902,3.141
			c1.553,0.072,3.502-1.913,3.502-6.102c0-4.729-3.032-8.339-8.628-8.339c-5.56,0-10.362,4.296-10.362,11.228
			c0,6.065,3.827,9.459,9.207,9.459c1.841,0,3.826-0.397,5.271-1.119L427.16,310.757z M423.948,295.846
			c-0.289-0.072-0.686-0.145-1.119-0.145c-2.383,0-4.26,2.347-4.26,5.126c0,1.372,0.614,2.239,1.805,2.239
			c1.336,0,2.744-1.697,3.069-3.791L423.948,295.846z"/>
	</g>
</g>
</svg>
