<svg xmlns="http://www.w3.org/2000/svg" xmlns:xlink="http://www.w3.org/1999/xlink" width="18.133" height="18.133" viewBox="0 0 18.133 18.133"><defs><clipPath id="a"><rect width="18.133" height="18.133" fill="none"/></clipPath></defs><g transform="translate(0 0)" clip-path="url(#a)"><path d="M9.066,1.612a27.8,27.8,0,0,1,3.627.1,4.672,4.672,0,0,1,1.713.3,3.538,3.538,0,0,1,1.713,1.713,4.672,4.672,0,0,1,.3,1.713c0,.907.1,1.209.1,3.627a27.8,27.8,0,0,1-.1,3.627,4.672,4.672,0,0,1-.3,1.713,3.538,3.538,0,0,1-1.713,1.713,4.672,4.672,0,0,1-1.713.3c-.907,0-1.209.1-3.627.1a27.8,27.8,0,0,1-3.627-.1,4.672,4.672,0,0,1-1.713-.3,3.538,3.538,0,0,1-1.713-1.713,4.672,4.672,0,0,1-.3-1.713c0-.907-.1-1.209-.1-3.627a27.8,27.8,0,0,1,.1-3.627,4.672,4.672,0,0,1,.3-1.713A3.618,3.618,0,0,1,2.72,2.72a1.7,1.7,0,0,1,1.007-.705,4.672,4.672,0,0,1,1.713-.3,27.8,27.8,0,0,1,3.627-.1M9.066,0A29.765,29.765,0,0,0,5.339.1,6.219,6.219,0,0,0,3.123.5,3.944,3.944,0,0,0,1.511,1.511,3.944,3.944,0,0,0,.5,3.123,4.59,4.59,0,0,0,.1,5.339,29.765,29.765,0,0,0,0,9.066a29.765,29.765,0,0,0,.1,3.727A6.219,6.219,0,0,0,.5,15.01a3.944,3.944,0,0,0,1.007,1.612,3.944,3.944,0,0,0,1.612,1.007,6.219,6.219,0,0,0,2.216.4,29.766,29.766,0,0,0,3.727.1,29.766,29.766,0,0,0,3.727-.1,6.219,6.219,0,0,0,2.216-.4,4.226,4.226,0,0,0,2.619-2.619,6.219,6.219,0,0,0,.4-2.216c0-1.007.1-1.31.1-3.727a29.766,29.766,0,0,0-.1-3.727,6.219,6.219,0,0,0-.4-2.216,3.944,3.944,0,0,0-1.007-1.612A3.944,3.944,0,0,0,15.01.5,6.219,6.219,0,0,0,12.794.1,29.765,29.765,0,0,0,9.066,0m0,4.433A4.559,4.559,0,0,0,4.433,9.066,4.634,4.634,0,1,0,9.066,4.433m0,7.656A2.968,2.968,0,0,1,6.044,9.066,2.968,2.968,0,0,1,9.066,6.044a2.968,2.968,0,0,1,3.022,3.022,2.968,2.968,0,0,1-3.022,3.022M13.9,3.123A1.108,1.108,0,1,0,15.01,4.231,1.118,1.118,0,0,0,13.9,3.123" fill="#fff" fill-rule="evenodd"/></g></svg>