<svg xmlns="http://www.w3.org/2000/svg" width="150.982" height="45.604" viewBox="0 0 150.982 45.604"><g transform="translate(0.001 0)"><rect width="16.061" height="16.061" transform="translate(126.869 14.704)" fill="#fff"/><g transform="translate(118.818 14.704)"><path d="M411.05,86.15,403,78.1V94.2Z" transform="translate(-378.889 -78.1)" fill="#db0011"/><path d="M370.311,86.15l8.05-8.05H362.3Z" transform="translate(-354.25 -78.1)" fill="#db0011"/><path d="M341.9,86.15l8.05,8.05V78.1Z" transform="translate(-341.9 -78.1)" fill="#db0011"/><path d="M370.311,98.5l-8.011,8.05h16.061Z" transform="translate(-354.25 -90.45)" fill="#db0011"/></g><path d="M285.533,73.9h-8.366a1.824,1.824,0,0,0-1.855,1.065l-1.618,3.867h-.039L273.26,73.9h-2.526a1.916,1.916,0,0,0-1.7,1.1L267.1,78.833h.039V73.9h-1.7c-1.144,0-1.381.631-1.421.987-.316-.631-1.223-.987-2.841-.987H257.12c-1.3,0-1.421.987-1.421.987l-1.5,6.945h5.722c1.7,0,2.21-.158,2.841-.631a2.5,2.5,0,0,0,.868-1.421c.276-1.342-.671-1.894-1.736-1.973v-.039a2.671,2.671,0,0,0,2.131-1.578l.118,5.6h2.723A2.355,2.355,0,0,0,269,80.332l1.657-3.354h.039l.395,4.814h2.447a2.57,2.57,0,0,0,2.368-1.578l2.131-4.893-1.3,6.511h1.46a1.972,1.972,0,0,0,2.131-1.539l.276-1.421h2.091a1.72,1.72,0,0,0,1.855-1.263l.079-.434h-3.67l.355-1.657h2.328a1.672,1.672,0,0,0,1.815-1.184Zm-27.071,3.2.355-1.736h.947c1.026,0,1.184.316,1.066.868-.118.513-.474.868-1.421.868Zm-.71,3.315.395-1.894h.987c1.144,0,1.46.316,1.342.947-.158.671-.631.947-1.736.947Z" transform="translate(-169.99 -60.853)" fill="#db0011"/><g transform="translate(51.812 12.889)"><path d="M177.27,78.5h-3.433v3.394H172.1V74h1.736v3.236h3.433V74h1.736v7.892H177.27Z" transform="translate(-172.1 -73.803)"/><path d="M195.057,81.708c-1.7,0-3.118-.671-3.157-2.565h1.736a1.3,1.3,0,0,0,1.46,1.342c.71,0,1.5-.355,1.5-1.144,0-.631-.552-.829-1.421-1.065l-.552-.158c-1.263-.355-2.486-.829-2.486-2.249,0-1.776,1.657-2.368,3.157-2.368,1.539,0,2.881.552,2.881,2.289h-1.736a1.166,1.166,0,0,0-1.3-1.144,1.132,1.132,0,0,0-1.263,1.026c0,.592.513.75,1.657,1.1l.671.2c1.342.434,2.21.908,2.21,2.21C198.372,81.037,196.635,81.708,195.057,81.708Z" transform="translate(-184.087 -73.5)"/><path d="M210.7,73.9h2.762a10.87,10.87,0,0,1,1.539.079,1.949,1.949,0,0,1,1.7,1.894,1.758,1.758,0,0,1-1.578,1.776c1.065.2,1.855.75,1.855,1.934,0,1.776-1.776,2.21-3.157,2.21H210.7Zm2.762,3.315c.75,0,1.539-.158,1.539-1.065,0-.829-.71-1.026-1.421-1.026H212.4v2.131h1.065v-.039Zm.158,3.433c.789,0,1.578-.2,1.578-1.144s-.671-1.144-1.5-1.144h-1.342v2.289Z" transform="translate(-195.468 -73.742)"/><path d="M232.309,81.708c-2.565,0-3.709-1.618-3.709-4.025,0-2.368,1.263-4.183,3.788-4.183,1.578,0,3.118.71,3.157,2.486H233.77a1.259,1.259,0,0,0-1.381-1.184c-1.539,0-2.013,1.657-2.013,2.92s.474,2.723,1.973,2.723a1.362,1.362,0,0,0,1.46-1.223h1.776C235.388,81.037,233.927,81.708,232.309,81.708Z" transform="translate(-206.304 -73.5)"/></g><g transform="translate(55.995 24.53)"><path d="M187.238,103h1.934l1.381,6h.039l1.3-6h1.618l-2.052,7.971h-1.894l-1.421-6.077h-.039l-1.539,6.077h-1.934L182.7,103h1.776l1.223,6h.039Z" transform="translate(-182.7 -103)"/><path d="M212.881,114.619a2.961,2.961,0,1,1,2.881-2.96A2.715,2.715,0,0,1,212.881,114.619Zm0-1.1c1.026,0,1.184-.947,1.184-1.855s-.158-1.855-1.184-1.855-1.184.947-1.184,1.855S211.894,113.514,212.881,113.514Z" transform="translate(-199.227 -106.451)"/><path d="M228.36,109.073l.039.987h.039a1.73,1.73,0,0,1,1.894-1.065v1.46h-.71a1.174,1.174,0,0,0-.789.395,2.785,2.785,0,0,0-.237.987V114.6h-1.657v-4.459c0-.237-.039-.71-.039-1.1h1.46v.039Z" transform="translate(-209.458 -106.626)"/><path d="M239.657,103v7.971H238V103Z" transform="translate(-216.177 -103)"/><path d="M249.143,103H250.8v6.866c0,.355.039.75.039,1.1h-1.657a5.293,5.293,0,0,1-.039-.789H249.1a1.8,1.8,0,0,1-1.7.947c-1.618,0-2.407-1.5-2.407-2.96a2.688,2.688,0,0,1,2.6-2.96,1.962,1.962,0,0,1,1.5.789h.039v-3Zm-1.184,7.064c.908,0,1.184-1.065,1.184-1.855,0-.75-.316-1.855-1.184-1.855-1.065,0-1.184.987-1.184,1.855C246.736,109.077,246.894,110.064,247.96,110.064Z" transform="translate(-220.415 -103)"/><path d="M265.9,103h6.472v1.342H270v6.669h-1.7v-6.669h-2.368V103Z" transform="translate(-233.068 -103)"/><path d="M283.681,114.619a2.961,2.961,0,1,1,2.881-2.96A2.715,2.715,0,0,1,283.681,114.619Zm0-1.1c1.026,0,1.184-.947,1.184-1.855s-.158-1.855-1.184-1.855-1.184.947-1.184,1.855S282.655,113.514,283.681,113.514Z" transform="translate(-242.088 -106.451)"/><path d="M301.431,114.114a1.919,1.919,0,0,1-1.7.868,2.029,2.029,0,0,1-1.815-1.223,4.82,4.82,0,0,1-.118-.868V109.3h1.657v3.315c0,.592.158,1.3.987,1.3.513,0,.987-.474.987-1.3V109.3h1.657v4.538a8.315,8.315,0,0,0,.079.987H301.51Z" transform="translate(-252.379 -106.814)"/><path d="M316.26,109.073l.039.987h.039a1.73,1.73,0,0,1,1.894-1.065v1.46h-.71a1.174,1.174,0,0,0-.789.395,2.784,2.784,0,0,0-.237.987V114.6H314.84v-4.459c0-.237-.039-.71-.039-1.1h1.46Z" transform="translate(-262.671 -106.626)"/></g><g transform="translate(0 0)"><g transform="translate(6.154 1.84)"><path d="M69.817,50.314h0c-.2.079-.434.2-.71.316A48.059,48.059,0,0,0,63.9,45.5a23.3,23.3,0,0,0-7.5,5.248,51.323,51.323,0,0,1,7.971,2.92q.651-.533,1.184-.947c.2.118,1.223.829,2.526,1.776a11.239,11.239,0,0,1,3.473-2.447,13.874,13.874,0,0,0-1.223-1.894,4.1,4.1,0,0,0-.513.158Z" transform="translate(-56.4 -45.5)" fill="#db0011"/></g><g transform="translate(0 13.718)"><path d="M56.273,76.389a25.52,25.52,0,0,0-3.986-.789,4.506,4.506,0,0,0-.355.631c-.237.395-.474.829-.474.789a43.816,43.816,0,0,0-9.668.868,24.328,24.328,0,0,0-.671,10.773,42.979,42.979,0,0,1,9.589-5.525,7.615,7.615,0,0,1-.079-1.618,34.369,34.369,0,0,1,4.933-1.065A10.916,10.916,0,0,1,56.273,76.389Z" transform="translate(-40.806 -75.6)" fill="#db0011"/></g><g transform="translate(5.72 22.912)"><path d="M65.284,98.9a23.721,23.721,0,0,0-4.183,2.841l.316.552a6.863,6.863,0,0,0,.434.71,43.842,43.842,0,0,0-6.551,8.327s.316.355.908.908c.237.2.513.434.789.71l-.868,1.934c4.814,4.854,9.313,5.761,9.313,5.761l.237-3.473a10.372,10.372,0,0,1-2.052-.513,36.216,36.216,0,0,1,2.841-9.787,5.842,5.842,0,0,1-1.342-.71c.039-.079,1.618-2.723,2.486-3.907A10.5,10.5,0,0,1,65.284,98.9Z" transform="translate(-55.3 -98.9)" fill="#db0011"/></g><g transform="translate(21.347 28.753)"><path d="M106.028,122.579a11.847,11.847,0,0,1-1.46.987,36.6,36.6,0,0,1-3.354-7.5s-.434.158-1.223.395c-.039-.276-.316-1.578-.395-2.091a11.629,11.629,0,0,1-4.025-.671,24.223,24.223,0,0,0-.671,3.2h0a1.262,1.262,0,0,1,.276.039c.118,0,.237.039.355.039,0,0,.434.039.631.039a34.508,34.508,0,0,0,.592,9.076s.395-.039.592-.079c.079,0,.118-.039.2-.039.434-.079.908-.158,1.1-.2.592,2.052,1.381,4.5,1.381,4.5a22.247,22.247,0,0,0,9.116-3.709C107.962,125.3,106.028,122.579,106.028,122.579Z" transform="translate(-94.9 -113.7)" fill="#db0011"/></g><g transform="translate(36.027 14.27)"><path d="M141.571,84.182A22.63,22.63,0,0,0,139.992,77a42.651,42.651,0,0,1-5.406,2.131,5.9,5.9,0,0,1,.355,1.263l-2.131.395a12.564,12.564,0,0,1-.71,4.3c1.223.316,3.473.671,3.473.671V85.09a4.534,4.534,0,0,0-.039-.75A41.425,41.425,0,0,0,141.571,84.182Z" transform="translate(-132.1 -77)" fill="#db0011"/></g><g transform="translate(33.067 3.734)"><path d="M126.81,50.3a36.05,36.05,0,0,1-2.21,4.775l.947.789-.789,1.065a10.679,10.679,0,0,1,2.526,3.473,2.943,2.943,0,0,1,.592-.355c.355-.2.671-.395.671-.395a3.473,3.473,0,0,1-.237-.395c-.118-.237-.276-.434-.395-.631.079-.039,1.855-1.618,3.946-3.749A19.95,19.95,0,0,0,126.81,50.3Z" transform="translate(-124.6 -50.3)" fill="#db0011"/></g><g transform="translate(21.623)"><path d="M103.571,48.952l.355-1.421h0l-.355-.118h0a5.021,5.021,0,0,0-.829-.276,38.992,38.992,0,0,0,.2-5.406,20.016,20.016,0,0,0-7.34-.868,36.8,36.8,0,0,1,2.21,5.683,11.3,11.3,0,0,1,1.342,0c.039.2.2.987.276,1.776A9.5,9.5,0,0,1,103.571,48.952Z" transform="translate(-95.6 -40.838)" fill="#db0011"/></g><path d="M126.637,105.229a11.174,11.174,0,0,1-.276,1.421,39.557,39.557,0,0,1-4.538-2.249,10.942,10.942,0,0,1-4.222,3.354c.237.395.671,1.065.671,1.065a4.183,4.183,0,0,0,.474-.395c.276-.237.513-.434.513-.434a34.882,34.882,0,0,0,4.38,4.538h0c.118-.158.237-.355.316-.434h0a8.692,8.692,0,0,0,.474-.75,46.2,46.2,0,0,0,4.814,3.157,22.715,22.715,0,0,0,3.157-7.853A46.283,46.283,0,0,1,126.637,105.229Z" transform="translate(-87.295 -79.317)" fill="#db0011"/></g><g transform="translate(1.418 0.774)"><g transform="translate(0 10.852)"><path d="M58.685,72.549a7.753,7.753,0,0,1,.513-.987A25.546,25.546,0,0,0,55.726,70.3a11.666,11.666,0,0,0-.829,1.342A44.9,44.9,0,0,0,45.5,71.01a19.814,19.814,0,0,0-1.1,2.447,45.025,45.025,0,0,1,9.629-.395h0c.118-.237.276-.474.355-.631.158-.316.276-.474.434-.789A22.074,22.074,0,0,1,58.685,72.549Z" transform="translate(-44.4 -70.3)"/></g><path d="M50.639,108.97h0c-.552-.552-.868-.947-.868-.947a46.361,46.361,0,0,1,6.985-8.05l-.316-.552c-.158-.316-.316-.671-.316-.671a29.347,29.347,0,0,1,4.262-2.683L60.031,95c-.395.158-1.184.474-1.973.868-1.1.552-2.565,1.381-2.565,1.381a12.825,12.825,0,0,0,.631,1.539,42.946,42.946,0,0,0-8.524,8.366,22.949,22.949,0,0,0,3.078,4.459l.868-1.657h0C50.954,109.325,50.639,108.97,50.639,108.97Z" transform="translate(-46.337 -74.401)"/><g transform="translate(17.679 27.268)"><path d="M93.129,121.758a1.092,1.092,0,0,1-.355-.039.683.683,0,0,1-.276-.039h0c-.395-.039-.75-.079-.789-.079a41.058,41.058,0,0,0-.75,9.471,18.348,18.348,0,0,0,2.249-.079A35.641,35.641,0,0,1,93.129,121.758Z" transform="translate(-90.248 -117.772)"/><path d="M90.463,111.9c-.237.631-.947,2.407-1.263,3.512a12.463,12.463,0,0,0,1.421.316,25.2,25.2,0,0,1,.829-3.315A7.944,7.944,0,0,1,90.463,111.9Z" transform="translate(-89.2 -111.9)"/><g transform="translate(2.96 12.983)"><path d="M99.739,149.22s-.631-2.368-1.1-4.42a1.709,1.709,0,0,0-.2.039c-.158.039-.592.079-.592.079a7.456,7.456,0,0,1-1.144.118s.395,2.96.75,4.341c0,0,1.184-.039,2.289-.158Z" transform="translate(-96.7 -144.8)"/></g></g><path d="M113.8,113.855c.118.276.474,1.026.631,1.421a8.472,8.472,0,0,0,1.1-.592c-.039-.039-.474-.868-.631-1.184A7.121,7.121,0,0,1,113.8,113.855Z" transform="translate(-86.413 -85.6)"/><g transform="translate(29.084 28.334)"><path d="M118.1,115.35a35.1,35.1,0,0,0,4.065,5.683,14.8,14.8,0,0,0,1.184-1.46,41.527,41.527,0,0,1-4.3-4.972c-.158.118-.316.276-.474.395Z" transform="translate(-118.1 -114.6)"/></g><path d="M130.5,99.787a35.638,35.638,0,0,0,3.986,1.421,12.305,12.305,0,0,0,.118-1.5s-2.486-.513-3.591-.908C130.855,99.116,130.658,99.431,130.5,99.787Z" transform="translate(-96.523 -76.701)"/><g transform="translate(38.081 21.586)"><path d="M140.9,97.5v1.421a41.636,41.636,0,0,0,6.077.71c.079-.631.079-1.973.079-1.973A53.034,53.034,0,0,1,140.9,97.5Z" transform="translate(-140.9 -97.5)"/></g><g transform="translate(34.648 8.287)"><g transform="translate(0.75)"><path d="M138.362,63.8c-2.131,1.973-4.183,3.512-4.262,3.591a3.474,3.474,0,0,1,.237.395c.118.237.276.474.395.71a37.11,37.11,0,0,0,4.657-3.2C139.348,65.26,138.993,64.629,138.362,63.8Z" transform="translate(-134.1 -63.8)"/></g><g transform="translate(0 4.696)"><path d="M132.2,76.45l.355,1.065a16.714,16.714,0,0,0,1.539-.671,10.5,10.5,0,0,0-.552-1.144Z" transform="translate(-132.2 -75.7)"/></g></g><g transform="translate(28.926 6.235)"><path d="M118.095,58.6l-.395,1.381a7.753,7.753,0,0,1,.987.513c.079-.2.316-.71.552-1.3A8.244,8.244,0,0,0,118.095,58.6Z" transform="translate(-117.7 -58.6)"/></g><g transform="translate(28.176 0.316)"><path d="M116.274,43.6a36.55,36.55,0,0,1-.474,5.446h0l.355.118h0s.75.316.789.316a32.569,32.569,0,0,0,.987-5.248C117.931,44.271,117.063,43.916,116.274,43.6Z" transform="translate(-115.8 -43.6)"/></g><g transform="translate(13.338)"><path d="M85.619,47.891c-.355.079-1.3.355-1.3.355A36.116,36.116,0,0,0,80.252,42.8a14.769,14.769,0,0,0-2.052.671,42.588,42.588,0,0,1,4.854,5.209h0c.118-.039.316-.118.513-.2.355-.118.75-.276.75-.276a14.2,14.2,0,0,1,1.065,1.855l1.065-.355C86.132,49,85.619,47.891,85.619,47.891Z" transform="translate(-78.2 -42.8)"/></g><g transform="translate(34.332 32.043)"><path d="M132.031,124.434h0a6.357,6.357,0,0,1-.631.829,43.111,43.111,0,0,0,4.222,3.67s.592-.71,1.263-1.579A52.732,52.732,0,0,1,132.308,124h0A1.928,1.928,0,0,1,132.031,124.434Z" transform="translate(-131.4 -124)"/></g></g><g transform="translate(16.335 8.943)"><path d="M91.671,63.5A9.471,9.471,0,1,1,82.2,72.971,9.473,9.473,0,0,1,91.671,63.5" transform="translate(-82.2 -63.5)" fill="#fff"/></g></g></svg>