<svg xmlns="http://www.w3.org/2000/svg" width="41.547" height="63.117" viewBox="0 0 41.547 63.117"><defs><style>.a{fill:#fff;}.b{fill:#db0011;}</style></defs><g transform="translate(-60.9 -60.971)"><rect class="a" width="10.473" height="10.473" transform="translate(76.016 113.615)"/><g transform="translate(60.9 96.074)"><g transform="translate(9.888 17.541)"><path class="b" d="M215.028,372.328,209.8,367.1v10.473Z" transform="translate(-194.082 -367.1)"/><path class="b" d="M154.045,372.328l5.245-5.228H148.8Z" transform="translate(-143.572 -367.1)"/><path class="b" d="M118.4,372.328l5.228,5.245V367.1Z" transform="translate(-118.4 -367.1)"/><path class="b" d="M154.045,397.5l-5.245,5.245h10.49Z" transform="translate(-143.572 -392.272)"/></g><path class="b" d="M204.047,265.617h-5.434a1.211,1.211,0,0,0-1.221.705l-1.049,2.528h-.017l-.275-3.233H194.4a1.248,1.248,0,0,0-1.1.722l-1.255,2.494h-.017V265.6h-1.118c-.739,0-.894.413-.929.636-.206-.413-.808-.636-1.84-.636h-2.648c-.86,0-.929.653-.929.653l-.963,4.506h3.732a2.739,2.739,0,0,0,1.84-.4,1.6,1.6,0,0,0,.568-.929c.189-.894-.43-1.238-1.135-1.273v-.017A1.758,1.758,0,0,0,190,267.131l.086,3.646h1.788a1.565,1.565,0,0,0,1.393-.946l1.1-2.184h.017l.258,3.147h1.6a1.689,1.689,0,0,0,1.548-1.015l1.41-3.181-.877,4.2h.946a1.285,1.285,0,0,0,1.393-1l.189-.911h1.359a1.114,1.114,0,0,0,1.2-.808l.052-.275h-2.408l.224-1.066h1.513a1.093,1.093,0,0,0,1.187-.774ZM186.386,267.7l.241-1.135h.619c.671,0,.774.206.705.568-.069.344-.31.568-.929.568Zm-.447,2.167.258-1.238h.636c.739,0,.963.189.877.619s-.4.619-1.135.619Z" transform="translate(-162.5 -265.514)"/><g transform="translate(0 0)"><path d="M64.253,268.658H62.018v2.2H60.9V265.7h1.118v2.115h2.236V265.7h1.118v5.159H64.253Z" transform="translate(-60.9 -265.597)"/><path d="M92.646,270.531c-1.118,0-2.029-.447-2.046-1.668h1.118a.834.834,0,0,0,.946.877c.464,0,.963-.224.963-.739,0-.4-.344-.533-.929-.688l-.378-.1c-.808-.241-1.616-.55-1.616-1.479,0-1.152,1.066-1.531,2.046-1.531,1,0,1.874.344,1.874,1.5H93.506a.744.744,0,0,0-.843-.74c-.413,0-.825.224-.825.671,0,.378.344.5,1.066.722l.43.138c.877.275,1.445.585,1.445,1.445C94.8,270.084,93.661,270.531,92.646,270.531Z" transform="translate(-85.493 -265.183)"/><path d="M118.7,265.7h1.788a4.339,4.339,0,0,1,1.015.069,1.245,1.245,0,0,1,1.1,1.238c0,.671-.413,1-1.032,1.169.705.12,1.221.481,1.221,1.255,0,1.169-1.152,1.445-2.064,1.445H118.7V265.7Zm1.788,2.15c.5,0,1-.1,1-.705,0-.533-.464-.671-.929-.671h-.774v1.376Zm.1,2.236c.516,0,1.032-.12,1.032-.757,0-.619-.447-.757-.963-.757h-.877v1.513Z" transform="translate(-108.76 -265.597)"/><path d="M147.808,270.448c-1.668,0-2.408-1.066-2.408-2.631a2.415,2.415,0,0,1,2.476-2.717c1.032,0,2.029.464,2.046,1.634h-1.152a.824.824,0,0,0-.894-.791c-1,0-1.307,1.083-1.307,1.909s.31,1.771,1.273,1.771a.908.908,0,0,0,.963-.791h1.169A1.909,1.909,0,0,1,147.808,270.448Z" transform="translate(-130.869 -265.1)"/></g><g transform="translate(2.7 7.584)"><path d="M79.575,309.2H80.83l.911,3.9h.017l.843-3.9h1.066l-1.324,5.193H81.106l-.929-3.955H80.16l-1.015,3.955H77.873L76.6,309.2h1.152l.808,3.921h.017Z" transform="translate(-76.6 -309.2)"/><path d="M119.392,321.718a1.909,1.909,0,1,1,1.892-1.909A1.774,1.774,0,0,1,119.392,321.718Zm0-.722c.671,0,.774-.619.774-1.2s-.1-1.2-.774-1.2-.774.619-.774,1.2S118.738,321,119.392,321Z" transform="translate(-110.467 -316.404)"/><path d="M143.763,318.152l.017.654h.017a1.156,1.156,0,0,1,1.238-.705v.963h-.464a.918.918,0,0,0-.533.258,1.154,1.154,0,0,0-.138.636v1.788h-1.066v-2.889c0-.155-.017-.447-.034-.722h.963v.017Z" transform="translate(-131.416 -316.569)"/><path d="M160.483,309.2v5.193H159.4V309.2Z" transform="translate(-145.161 -309.2)"/><path d="M172.766,309.2h1.083v4.488c0,.241.017.481.034.722H172.8c-.017-.172-.034-.344-.034-.516h-.017a1.188,1.188,0,0,1-1.1.619c-1.066,0-1.548-.98-1.548-1.909a1.732,1.732,0,0,1,1.685-1.909,1.207,1.207,0,0,1,.963.533h.017V309.2Zm-.774,4.591c.585,0,.774-.705.774-1.2s-.189-1.2-.774-1.2c-.688,0-.774.636-.774,1.2S171.3,313.792,171.992,313.792Z" transform="translate(-154.021 -309.2)"/><path d="M201.2,309.2h4.213v.86h-1.548v4.334h-1.118V310.06H201.2Z" transform="translate(-179.773 -309.2)"/><path d="M225.292,321.718a1.909,1.909,0,1,1,1.892-1.909A1.774,1.774,0,0,1,225.292,321.718Zm0-.722c.671,0,.774-.619.774-1.2s-.1-1.2-.774-1.2-.774.619-.774,1.2S224.621,321,225.292,321Z" transform="translate(-198.155 -316.404)"/><path d="M251.273,321.581a1.256,1.256,0,0,1-1.118.55,1.308,1.308,0,0,1-1.187-.791,2.774,2.774,0,0,1-.069-.585V318.4h1.083v2.167c0,.4.12.843.653.843.344,0,.636-.31.653-.843V318.4h1.083v2.975a4.183,4.183,0,0,0,.052.653h-1.1Z" transform="translate(-219.27 -316.818)"/><path d="M275.263,318.152l.017.654h.017a1.156,1.156,0,0,1,1.238-.705v.963h-.464a.918.918,0,0,0-.533.258,1.154,1.154,0,0,0-.138.636v1.788h-1.066v-2.889c0-.155-.017-.447-.034-.722h.963Z" transform="translate(-240.302 -316.569)"/></g></g><g transform="translate(66.667 60.971)"><g transform="translate(4.035 1.226)"><path class="b" d="M126.67,71.247h0c-.12.052-.292.12-.482.206a29.88,29.88,0,0,0-3.4-3.353,15.231,15.231,0,0,0-4.884,3.422,31.565,31.565,0,0,1,5.193,1.892c.275-.224.533-.43.774-.6.138.086.791.533,1.651,1.169a7.5,7.5,0,0,1,2.27-1.6A8.57,8.57,0,0,0,127,71.144a1.043,1.043,0,0,0-.327.1Z" transform="translate(-117.9 -68.1)"/></g><g transform="translate(0 8.982)"><path class="b" d="M104.558,113.716a17.077,17.077,0,0,0-2.614-.516c-.069.1-.155.258-.241.413-.155.275-.327.533-.31.516a29.989,29.989,0,0,0-6.311.567,15.925,15.925,0,0,0-.447,7.033,27.554,27.554,0,0,1,6.277-3.611,5.678,5.678,0,0,1-.052-1.049,21.2,21.2,0,0,1,3.233-.688A7.15,7.15,0,0,1,104.558,113.716Z" transform="translate(-94.436 -113.2)"/></g><g transform="translate(3.76 14.983)"><path class="b" d="M122.818,148.1a17.106,17.106,0,0,0-2.717,1.857l.206.361c.086.155.189.31.275.464a28.152,28.152,0,0,0-4.282,5.434,6.355,6.355,0,0,0,.6.585c.155.138.327.292.533.447l-.585,1.255a13.244,13.244,0,0,0,6.07,3.783l.155-2.27c-.825-.172-1.341-.327-1.341-.327a23.673,23.673,0,0,1,1.857-6.4,3.764,3.764,0,0,1-.86-.464c.034-.052,1.066-1.788,1.634-2.562A6.012,6.012,0,0,1,122.818,148.1Z" transform="translate(-116.3 -148.1)"/></g><g transform="translate(13.975 18.801)"><path class="b" d="M182.957,176.1a6.312,6.312,0,0,1-.963.653,23.228,23.228,0,0,1-2.184-4.884,4.935,4.935,0,0,1-.808.241c-.034-.189-.206-1.032-.258-1.376a7.639,7.639,0,0,1-2.614-.43,14.861,14.861,0,0,0-.43,2.1h0a1.486,1.486,0,0,1,.189.017c.086,0,.155.017.224.017,0,0,.275.017.413.017a20.664,20.664,0,0,0,.4,5.916l.378-.052c.052,0,.086-.017.138-.017.292-.052.585-.1.705-.12.378,1.341.911,2.941.911,2.941a14.41,14.41,0,0,0,5.95-2.425A30.837,30.837,0,0,1,182.957,176.1Z" transform="translate(-175.7 -170.3)"/></g><g transform="translate(23.57 9.343)"><path class="b" d="M237.656,119.995a14.986,14.986,0,0,0-1.032-4.695,28.128,28.128,0,0,1-3.525,1.393,7.588,7.588,0,0,1,.241.808l-1.376.241a7.863,7.863,0,0,1-.464,2.82c.791.206,2.253.43,2.253.43v-.447c0-.172-.017-.327-.017-.482A25.17,25.17,0,0,0,237.656,119.995Z" transform="translate(-231.5 -115.3)"/></g><g transform="translate(21.61 2.447)"><path class="b" d="M221.545,75.2a25.121,25.121,0,0,1-1.445,3.113l.619.516-.5.705a7.17,7.17,0,0,1,1.651,2.27c.1-.069.275-.172.4-.241.241-.138.43-.258.43-.258-.052-.086-.1-.172-.138-.241l-.258-.413c.034-.034,1.221-1.049,2.579-2.442A14.7,14.7,0,0,0,221.545,75.2Z" transform="translate(-220.1 -75.2)"/></g><g transform="translate(14.112 0)"><path class="b" d="M181.728,66.29l.224-.929h0s-.086-.034-.224-.086h0c-.138-.052-.327-.12-.55-.189a23.263,23.263,0,0,0,.12-3.543,12.633,12.633,0,0,0-4.8-.55,23.816,23.816,0,0,1,1.427,3.7,5.422,5.422,0,0,1,.86,0c.034.138.12.653.172,1.152A6.892,6.892,0,0,1,181.728,66.29Z" transform="translate(-176.5 -60.971)"/></g><path class="b" d="M215.6,156.95a6.633,6.633,0,0,1-.189.911,27.179,27.179,0,0,1-2.958-1.462,7.309,7.309,0,0,1-2.751,2.2c.155.258.43.705.43.705.1-.086.224-.172.31-.241.189-.155.327-.275.327-.275a24.443,24.443,0,0,0,2.872,2.975h0c.086-.12.155-.224.206-.292v-.017c.086-.12.189-.292.31-.5a30.405,30.405,0,0,0,3.13,2.046,14.635,14.635,0,0,0,2.064-5.125A34.523,34.523,0,0,1,215.6,156.95Z" transform="translate(-189.878 -139.989)"/></g><g transform="translate(67.658 61.492)"><g transform="translate(0 0)"><g transform="translate(0 7.085)"><path d="M109.486,106.679c.1-.224.224-.447.344-.653a16.649,16.649,0,0,0-2.253-.825s-.327.464-.55.86a27.9,27.9,0,0,0-6.122-.413,14.294,14.294,0,0,0-.705,1.582,29.429,29.429,0,0,1,6.294-.258h0c.086-.155.172-.292.241-.413.12-.206.172-.31.292-.5C107.113,106.094,108.162,106.266,109.486,106.679Z" transform="translate(-100.2 -105.2)"/></g><path d="M106.778,151.414h0c-.361-.361-.567-.619-.567-.619a31.254,31.254,0,0,1,4.557-5.262l-.206-.361c-.1-.206-.206-.43-.206-.43a18.476,18.476,0,0,1,2.769-1.754c-.086-.224-.155-.464-.224-.688-.258.1-.774.31-1.273.567-.722.344-1.668.894-1.668.894a7.8,7.8,0,0,0,.413,1,29.025,29.025,0,0,0-5.572,5.451,14.734,14.734,0,0,0,2.012,2.923l.567-1.083h0C106.984,151.655,106.778,151.414,106.778,151.414Z" transform="translate(-104.009 -128.835)"/><g transform="translate(11.522 17.833)"><path d="M171.051,182.2c-.069,0-.138-.017-.224-.017a1.488,1.488,0,0,0-.189-.017h0c-.258-.034-.5-.052-.516-.069a26.062,26.062,0,0,0-.5,6.191,12.186,12.186,0,0,0,1.479-.069A23.641,23.641,0,0,1,171.051,182.2Z" transform="translate(-169.193 -179.624)"/><path d="M168.008,167.7c-.155.413-.6,1.565-.808,2.3a8.346,8.346,0,0,0,.946.206,17.775,17.775,0,0,1,.55-2.167C168.455,167.924,168.232,167.82,168.008,167.7Z" transform="translate(-167.2 -167.7)"/><g transform="translate(1.909 8.444)"><path d="M180.295,219.689s-.413-1.565-.722-2.889c-.052,0-.086.017-.138.017-.1.017-.378.052-.378.052-.292.034-.6.086-.757.086,0,0,.258,1.943.482,2.837,0,0,.774-.017,1.513-.086Z" transform="translate(-178.3 -216.8)"/></g></g><path d="M203.9,170.241c.086.189.31.671.413.929a7.535,7.535,0,0,0,.705-.4c-.017-.034-.327-.585-.413-.774A5.692,5.692,0,0,1,203.9,170.241Z" transform="translate(-186.067 -151.772)"/><g transform="translate(18.951 18.538)"><path d="M210.4,172.264a23.09,23.09,0,0,0,2.666,3.714,7.784,7.784,0,0,0,.757-.946,28.643,28.643,0,0,1-2.8-3.233,3.776,3.776,0,0,1-.31.241C210.606,172.11,210.5,172.2,210.4,172.264Z" transform="translate(-210.4 -171.8)"/></g><path d="M228.9,148.553a25.281,25.281,0,0,0,2.614.929,9.032,9.032,0,0,0,.069-.98s-1.634-.344-2.356-.6C229.124,148.124,229.02,148.33,228.9,148.553Z" transform="translate(-206.768 -133.472)"/><g transform="translate(24.815 14.084)"><path d="M244.517,145.9v.447a4.517,4.517,0,0,1-.017.481,27.112,27.112,0,0,0,3.955.464c.034-.4.034-1.29.034-1.307A23.3,23.3,0,0,1,244.517,145.9Z" transform="translate(-244.5 -145.9)"/></g><g transform="translate(22.579 5.434)"><g transform="translate(0.482)"><path d="M237.086,95.6a35.273,35.273,0,0,1-2.786,2.339c.052.086.086.155.138.241.086.155.172.292.258.464a24.881,24.881,0,0,0,3.044-2.1A7.768,7.768,0,0,0,237.086,95.6Z" transform="translate(-234.3 -95.6)"/></g><g transform="translate(0 3.027)"><path d="M231.5,113.7c.086.224.155.464.224.688.12-.052.671-.275,1-.43a6.587,6.587,0,0,0-.361-.757Z" transform="translate(-231.5 -113.2)"/></g></g><g transform="translate(18.847 4.076)"><path d="M210.058,87.7l-.258.894a5.978,5.978,0,0,1,.653.344,8.546,8.546,0,0,0,.344-.86A7.852,7.852,0,0,0,210.058,87.7Z" transform="translate(-209.8 -87.7)"/></g><g transform="translate(18.366 0.224)"><path d="M207.292,65.3A26.833,26.833,0,0,1,207,68.86h0c.138.052.224.086.224.086h0s.5.206.516.224a21.634,21.634,0,0,0,.653-3.439S207.808,65.489,207.292,65.3Z" transform="translate(-207 -65.3)"/></g><g transform="translate(8.633)"><path d="M155.267,67.336c-.224.052-.86.224-.86.224A21.646,21.646,0,0,0,151.741,64a11.034,11.034,0,0,0-1.341.447,27.733,27.733,0,0,1,3.181,3.4h0c.069-.034.206-.069.344-.12.241-.086.5-.172.5-.172a10.838,10.838,0,0,1,.705,1.221c.224-.086.464-.155.705-.224C155.611,68.041,155.267,67.336,155.267,67.336Z" transform="translate(-150.4 -64)"/></g></g><g transform="translate(22.373 20.911)"><path d="M230.7,185.91h0c-.189.258-.4.55-.4.55a29.08,29.08,0,0,0,2.769,2.39s.4-.464.825-1.049a30.632,30.632,0,0,1-2.975-2.2v.017C230.868,185.686,230.782,185.789,230.7,185.91Z" transform="translate(-230.3 -185.6)"/></g></g><g transform="translate(77.34 66.823)"><g transform="translate(0 0)"><path class="a" d="M162.691,95a6.191,6.191,0,1,1-6.191,6.191A6.2,6.2,0,0,1,162.691,95" transform="translate(-156.5 -95)"/></g></g></g></svg>