<svg xmlns="http://www.w3.org/2000/svg" xmlns:xlink="http://www.w3.org/1999/xlink" width="18.133" height="18.133" viewBox="0 0 18.133 18.133"><defs><clipPath id="a"><rect width="18.133" height="18.133" fill="none"/></clipPath></defs><g transform="translate(0.001 0)" clip-path="url(#a)"><rect width="18.133" height="18.133" fill="none"/><path d="M43.742,16.708A10.484,10.484,0,0,0,54.32,6.13v-.5a8.189,8.189,0,0,0,1.813-1.914,8.363,8.363,0,0,1-2.116.6A3.919,3.919,0,0,0,55.629,2.3a9.24,9.24,0,0,1-2.317.907A3.6,3.6,0,0,0,50.592,2a3.785,3.785,0,0,0-3.727,3.727,1.964,1.964,0,0,0,.1.806A10.415,10.415,0,0,1,39.31,2.6a3.858,3.858,0,0,0-.5,1.914,4,4,0,0,0,1.612,3.123,3.4,3.4,0,0,1-1.713-.5h0a3.682,3.682,0,0,0,3.022,3.627,3.106,3.106,0,0,1-1.007.1,1.714,1.714,0,0,1-.705-.1,3.816,3.816,0,0,0,3.526,2.619A7.606,7.606,0,0,1,38.907,15a2.789,2.789,0,0,1-.907-.1,9.509,9.509,0,0,0,5.742,1.813" transform="translate(-38 0.266)" fill="#fff" fill-rule="evenodd"/></g></svg>