<svg xmlns="http://www.w3.org/2000/svg" width="18.133" height="18.133" viewBox="0 0 18.133 18.133"><g transform="translate(0.001 0)"><path d="M14.414,37.188a1.148,1.148,0,0,0-1.325-1.477.594.594,0,0,1-.251-1.162,2.332,2.332,0,0,1,2.709,3A.6.6,0,0,1,14.414,37.188ZM7.607,46.718C3.843,46.718,0,44.9,0,41.891c0-1.569.992-3.379,2.7-5.089,3.531-3.531,7.2-3.574,6.148-.2-.142.464.436.2.436.212,2.816-1.19,4.976-.595,4.037,1.82-.131.333.039.386.294.464,4.806,1.5,1.232,7.622-6.01,7.622ZM12.7,41.537c-.191-1.973-2.78-3.329-5.787-3.035S1.64,40.637,1.831,42.61s2.78,3.329,5.787,3.035S12.888,43.51,12.7,41.537Zm-.375-9.4a.694.694,0,0,0,.294,1.356,3.409,3.409,0,0,1,3.956,4.392.7.7,0,0,0,1.325.425,4.8,4.8,0,0,0-5.575-6.173ZM9.541,43.156A3.236,3.236,0,0,1,5.677,44.8,2.233,2.233,0,0,1,4.25,41.619a3.288,3.288,0,0,1,3.662-1.6A2.235,2.235,0,0,1,9.541,43.156ZM6.485,42.093a1.144,1.144,0,0,0-1.346.457.8.8,0,0,0,.3,1.2A1.144,1.144,0,0,0,6.828,43.3.8.8,0,0,0,6.485,42.093Zm1.155-.475a.448.448,0,0,0-.506.191.307.307,0,0,0,.131.457.435.435,0,0,0,.517-.191A.31.31,0,0,0,7.639,41.619Z" transform="translate(0 -31.082)" fill="#747474"/><rect width="18.133" height="18.133" fill="none"/></g></svg>