<?xml version="1.0" encoding="utf-8"?>
<!-- Generator: Adobe Illustrator 25.4.1, SVG Export Plug-In . SVG Version: 6.00 Build 0)  -->
<svg version="1.1" id="Layer_1" xmlns="http://www.w3.org/2000/svg" xmlns:xlink="http://www.w3.org/1999/xlink" x="0px" y="0px"
	 viewBox="0 0 22 16" style="enable-background:new 0 0 22 16;" xml:space="preserve">
<style type="text/css">
	.st0{clip-path:url(#SVGID_00000056419072709665997890000000947966185475349678_);}
	.st1{clip-path:url(#SVGID_00000122002093401037694400000016976277115641455489_);fill:#FFFFFF;}
</style>
<g id="Layer_2">
</g>
<g>
	<g>
		<defs>
			<rect id="SVGID_1_" x="0" y="-3" width="22" height="22"/>
		</defs>
		<clipPath id="SVGID_00000127004399562330661620000009087208686499134851_">
			<use xlink:href="#SVGID_1_"  style="overflow:visible;"/>
		</clipPath>
		<g style="clip-path:url(#SVGID_00000127004399562330661620000009087208686499134851_);">
			<defs>
				<rect id="SVGID_00000148640893709258628000000013397480539648820375_" x="0" y="-3" width="22" height="22"/>
			</defs>
			<clipPath id="SVGID_00000062905191147868346420000009609091699136295070_">
				<use xlink:href="#SVGID_00000148640893709258628000000013397480539648820375_"  style="overflow:visible;"/>
			</clipPath>
			<path style="clip-path:url(#SVGID_00000062905191147868346420000009609091699136295070_);fill:#FFFFFF;" d="M20.66,3.11
				c-0.23-0.87-0.92-1.56-1.78-1.79C17.31,0.9,11,0.9,11,0.9s-6.31,0-7.88,0.42C2.25,1.55,1.57,2.24,1.34,3.11
				C0.92,4.7,0.92,8,0.92,8s0,3.3,0.42,4.89c0.23,0.87,0.92,1.56,1.78,1.79C4.69,15.1,11,15.1,11,15.1s6.31,0,7.88-0.42
				c0.87-0.23,1.55-0.92,1.78-1.79C21.08,11.3,21.08,8,21.08,8S21.08,4.7,20.66,3.11 M8.94,11V5l5.27,3L8.94,11z"/>
		</g>
	</g>
</g>
</svg>
