<?xml version="1.0" encoding="utf-8"?>
<!-- Generator: Adobe Illustrator 25.4.1, SVG Export Plug-In . SVG Version: 6.00 Build 0)  -->
<svg version="1.1" id="Layer_1" xmlns="http://www.w3.org/2000/svg" xmlns:xlink="http://www.w3.org/1999/xlink" x="0px" y="0px"
	 viewBox="0 0 34 24" style="enable-background:new 0 0 34 24;" xml:space="preserve">
<style type="text/css">
	.st0{fill:#FF0000;}
	.st1{fill:#FFFFFF;}
</style>
<g id="XMLID_184_">
	<path id="XMLID_182_" class="st0" d="M31.96,4.44c-0.36-1.35-1.42-2.42-2.76-2.78C26.76,1,17,1,17,1S7.24,1,4.8,1.66
		C3.46,2.02,2.4,3.08,2.04,4.44C1.39,6.89,1.39,12,1.39,12s0,5.11,0.65,7.56c0.36,1.35,1.42,2.42,2.76,2.78C7.24,23,17,23,17,23
		s9.76,0,12.2-0.66c1.34-0.36,2.4-1.43,2.76-2.78c0.65-2.45,0.65-7.56,0.65-7.56S32.61,6.89,31.96,4.44z"/>
	<polygon id="XMLID_1355_" class="st1" points="13.81,16.64 21.97,12 13.81,7.36 	"/>
</g>
</svg>
