<svg xmlns="http://www.w3.org/2000/svg" xmlns:xlink="http://www.w3.org/1999/xlink" width="20px" height="33px" viewBox="0 0 20 33" version="1.1">
    <!-- Generator: Sketch 52.6 (67491) - http://www.bohemiancoding.com/sketch -->
    <title>arrow-most-popular</title>
    <desc>Created with Sketch.</desc>
    <g id="Pricing" stroke="none" stroke-width="1" fill="none" fill-rule="evenodd">
        <g id="Desktop" transform="translate(-595.000000, -442.000000)" fill="#0C9F9B" fill-rule="nonzero">
            <g id="Pricing-Table" transform="translate(67.000000, 423.753906)">
                <g id="Most-popular-comment" transform="translate(528.000000, 10.031250)">
                    <path d="M4.5,11.6275033 L0.935787769,17.9638806 C0.800405866,18.2045596 0.495548319,18.2899197 0.25486938,18.1545378 C0.0141904414,18.0191559 -0.0711696716,17.7142983 0.0642122314,17.4736194 L4.56421223,9.47361938 L5,8.69888557 L5.43578777,9.47361938 L9.93578777,17.4736194 C10.0711697,17.7142983 9.98580956,18.0191559 9.74513062,18.1545378 C9.50445168,18.2899197 9.19959413,18.2045596 9.06421223,17.9638806 L5.5,11.6275033 L5.5,13.21875 C5.5,13.4948924 5.27614237,13.71875 5,13.71875 C4.72385763,13.71875 4.5,13.4948924 4.5,13.21875 L4.5,11.6275033 Z M4.5,16.2186686 C4.5,15.9425263 4.72385763,15.7186686 5,15.7186686 C5.27614237,15.7186686 5.5,15.9425263 5.5,16.2186686 C5.5,17.647657 5.5,17.647657 5.5,19.2185204 C5.5,19.4946627 5.27614237,19.7185204 5,19.7185204 C4.72385763,19.7185204 4.5,19.4946627 4.5,19.2185204 C4.5,17.647657 4.5,17.647657 4.5,16.2186686 Z M4.5,22.2189178 C4.5,21.9427755 4.72385763,21.7189178 5,21.7189178 C5.27614237,21.7189178 5.5,21.9427755 5.5,22.2189178 C5.5,23.6736337 5.5,23.6736337 5.5,25.2187488 C5.5,25.4948912 5.27614237,25.7187488 5,25.7187488 C4.72385763,25.7187488 4.5,25.4948912 4.5,25.2187488 C4.5,23.6736337 4.5,23.6736337 4.5,22.2189178 Z M4.5,28.2182872 C4.5,27.9421448 4.72385763,27.7182872 5,27.7182872 C5.27614237,27.7182872 5.5,27.9421448 5.5,28.2182872 C5.5,29.2601484 5.57383139,30.2301095 5.72108826,31.1285722 C5.76575172,31.4010787 5.58104845,31.6581957 5.30854197,31.7028592 C5.03603548,31.7475226 4.77891843,31.5628194 4.73425497,31.2903129 C4.57793325,30.3365426 4.5,29.3126932 4.5,28.2182872 Z M5.59355527,34.3219821 C5.4849336,34.0681003 5.60269015,33.7742333 5.8565719,33.6656116 C6.11045365,33.5569899 6.40432074,33.6747465 6.51294241,33.9286282 C6.90278143,34.8398 7.40483269,35.6418044 8.01944069,36.3366676 C8.20239229,36.5435089 8.18302584,36.8594985 7.97618454,37.0424501 C7.76934323,37.2254017 7.45335365,37.2060352 7.27040206,36.9991939 C6.5838612,36.2230049 6.02479744,35.3299256 5.59355527,34.3219821 Z M9.8022622,39.0257194 C9.56140818,38.8906492 9.47565345,38.5859024 9.61072363,38.3450484 C9.74579382,38.1041944 10.0505406,38.0184397 10.2913946,38.1535098 C11.081285,38.5964779 11.97169,38.9501111 12.9634754,39.2137554 C13.2303494,39.284698 13.3891833,39.5585525 13.3182407,39.8254265 C13.2472981,40.0923006 12.9734436,40.2511344 12.7065695,40.1801918 C11.6359838,39.8956002 10.6675928,39.5109941 9.8022622,39.0257194 Z M15.696146,40.6931887 C15.4211356,40.6682104 15.2184446,40.4250216 15.2434229,40.1500112 C15.2684011,39.8750009 15.51159,39.6723098 15.7866003,39.6972881 C16.7044575,39.780654 17.6843659,39.8079589 18.7262246,39.7789909 C19.0022603,39.771316 19.2322532,39.9888653 19.2399282,40.264901 C19.2476031,40.5409367 19.0300537,40.7709296 18.754018,40.7786046 C17.6738092,40.8086389 16.6545523,40.7802376 15.696146,40.6931887 Z" id="arrow-most-popular" transform="translate(9.620018, 24.744532) scale(-1, 1) rotate(-180.000000) translate(-9.620018, -24.744532) "/>
                </g>
            </g>
        </g>
    </g>
</svg>
