<svg xmlns="http://www.w3.org/2000/svg" xmlns:xlink="http://www.w3.org/1999/xlink" width="20px"
    height="33px" viewBox="0 0 20 33" version="1.1">
    <!-- Generator: Sketch 52.6 (67491) - http://www.bohemiancoding.com/sketch -->
    <title>Line 3</title>
    <desc>Created with Sketch.</desc>
    <g id="Homepage" stroke="none" stroke-width="1" fill="none" fill-rule="evenodd">
        <g id="Desktop" transform="translate(-907.000000, -122.000000)" fill="#BBBBBB"
            fill-rule="nonzero">
            <g id="Group-8" transform="translate(912.000000, 123.859375)">
                <path id="Line-3"
                    d="M-0.5,1.40875332 L-4.06421223,7.74513062 C-4.19959413,7.98580956 -4.50445168,8.07116967 -4.74513062,7.93578777 C-4.98580956,7.80040587 -5.07116967,7.49554832 -4.93578777,7.25486938 L-0.435787769,-0.74513062 L-3.5971226e-14,-1.51986443 L0.435787769,-0.74513062 L4.93578777,7.25486938 C5.07116967,7.49554832 4.98580956,7.80040587 4.74513062,7.93578777 C4.50445168,8.07116967 4.19959413,7.98580956 4.06421223,7.74513062 L0.5,1.40875332 L0.5,3 C0.5,3.27614237 0.276142375,3.5 8.24996285e-14,3.5 C-0.276142375,3.5 -0.5,3.27614237 -0.5,3 L-0.5,1.40875332 Z M-0.5,5.99991864 C-0.5,5.72377627 -0.276142375,5.49991864 1.30739506e-13,5.49991864 C0.276142375,5.49991864 0.5,5.72377627 0.5,5.99991864 C0.5,7.42890699 0.5,7.42890699 0.5,8.99977035 C0.5,9.27591273 0.276142375,9.49977035 1.52200394e-13,9.49977035 C-0.276142375,9.49977035 -0.5,9.27591273 -0.5,8.99977035 C-0.5,7.42890699 -0.5,7.42890699 -0.5,5.99991864 Z M-0.5,12.0001678 C-0.5,11.7240255 -0.276142375,11.5001678 1.51337286e-13,11.5001678 C0.276142375,11.5001678 0.5,11.7240255 0.5,12.0001678 C0.5,13.4548837 0.5,13.4548837 0.5,14.9999988 C0.5,15.2761412 0.276142375,15.4999988 1.33784016e-13,15.4999988 C-0.276142375,15.4999988 -0.5,15.2761412 -0.5,14.9999988 C-0.5,13.4548837 -0.5,13.4548837 -0.5,12.0001678 Z M-0.5,17.9995372 C-0.5,17.7233948 -0.276142375,17.4995372 1.18791251e-13,17.4995372 C0.276142375,17.4995372 0.5,17.7233948 0.5,17.9995372 C0.5,19.0413984 0.573831386,20.0113595 0.721088261,20.9098222 C0.765751722,21.1823287 0.581048454,21.4394457 0.308541966,21.4841092 C0.0360354767,21.5287726 -0.22108157,21.3440694 -0.265745031,21.0715629 C-0.422066755,20.1177926 -0.5,19.0939432 -0.5,17.9995372 Z M0.593555273,24.1032321 C0.484933596,23.8493503 0.60269015,23.5554833 0.856571899,23.4468616 C1.11045365,23.3382399 1.40432074,23.4559965 1.51294241,23.7098782 C1.90278143,24.62105 2.40483269,25.4230544 3.01944069,26.1179176 C3.20239229,26.3247589 3.18302584,26.6407485 2.97618454,26.8237001 C2.76934323,27.0066517 2.45335365,26.9872852 2.27040206,26.7804439 C1.5838612,26.0042549 1.02479744,25.1111756 0.593555273,24.1032321 Z M4.8022622,28.8069694 C4.56140818,28.6718992 4.47565345,28.3671524 4.61072363,28.1262984 C4.74579382,27.8854444 5.05054059,27.7996897 5.29139461,27.9347598 C6.08128497,28.3777279 6.97168996,28.7313611 7.96347537,28.9950054 C8.23034942,29.065948 8.38918326,29.3398025 8.31824068,29.6066765 C8.24729809,29.8735506 7.9734436,30.0323844 7.70656955,29.9614418 C6.63598381,29.6768502 5.66759277,29.2922441 4.8022622,28.8069694 Z M10.696146,30.4744387 C10.4211356,30.4494604 10.2184446,30.2062716 10.2434229,29.9312612 C10.2684011,29.6562509 10.51159,29.4535598 10.7866003,29.4785381 C11.7044575,29.561904 12.6843659,29.5892089 13.7262246,29.5602409 C14.0022603,29.552566 14.2322532,29.7701153 14.2399282,30.046151 C14.2476031,30.3221867 14.0300537,30.5521796 13.754018,30.5598546 C12.6738092,30.5898889 11.6545523,30.5614876 10.696146,30.4744387 Z" />
            </g>
        </g>
    </g>
</svg>
