<svg xmlns="http://www.w3.org/2000/svg" xmlns:xlink="http://www.w3.org/1999/xlink" width="225px" height="21px" viewBox="0 0 225 21" version="1.1">
    <!-- Generator: Sketch 52.6 (67491) - http://www.bohemiancoding.com/sketch -->
    <title>admin-dashboard</title>
    <desc>Created with Sketch.</desc>
    <g id="Homepage" stroke="none" stroke-width="1" fill="none" fill-rule="evenodd">
        <g id="Desktop" transform="translate(-908.000000, -1775.000000)">
            <rect fill="#FFFFFF" x="0" y="0" width="1200" height="3613"/>
            <g id="Example-sites" transform="translate(0.000000, 1679.695312)">
                <rect id="Rectangle" fill="#434365" x="0" y="0" width="1200" height="510.375"/>
                <polygon id="Path-2" fill="#3277DC" points="1200 0.375 1200 510.375 914 510.375"/>
                <g id="Browser-Copy-3" transform="translate(908.000000, 95.365234)">
                    <g id="admin-dashboard" fill="#0C9F9B">
                        <rect id="Rectangle" x="-1.42108547e-14" y="0" width="225" height="20"/>
                    </g>
                    <path d="M8.92228042,12.7349068 C7.61477201,12.7349068 6.55482701,11.6749618 6.55482701,10.3674534 C6.55482701,9.059945 7.61477201,8 8.92228042,8 C10.2297888,8 11.2897338,9.059945 11.2897338,10.3674534 C11.2897338,11.6749618 10.2297888,12.7349068 8.92228042,12.7349068 Z M15.1368456,12.7349068 C13.8293372,12.7349068 12.7693922,11.6749618 12.7693922,10.3674534 C12.7693922,9.059945 13.8293372,8 15.1368456,8 C16.4443541,8 17.5042991,9.059945 17.5042991,10.3674534 C17.5042991,11.6749618 16.4443541,12.7349068 15.1368456,12.7349068 Z M21.3514109,12.7349068 C20.0439024,12.7349068 18.9839574,11.6749618 18.9839574,10.3674534 C18.9839574,9.059945 20.0439024,8 21.3514109,8 C22.6589193,8 23.7188643,9.059945 23.7188643,10.3674534 C23.7188643,11.6749618 22.6589193,12.7349068 21.3514109,12.7349068 Z" id="Combined-Shape" fill="#FFFFFF"/>
                    <g id="search-bar" transform="translate(51.504116, 5.400244)">
                        <path d="M5.65234375,0.114257812 L161.044712,0.114257813 C163.806675,0.114257813 166.045689,2.35327129 166.045689,5.11523437 L166.045689,5.11523438 C166.045689,7.87719746 163.806675,10.1162109 161.044712,10.1162109 L5.65234375,10.1162109 C2.89038066,10.1162109 0.651367187,7.87719746 0.651367187,5.11523438 L0.651367187,5.11523438 C0.651367187,2.35327129 2.89038066,0.114257813 5.65234375,0.114257812 Z" id="Rectangle" fill="#FFFFFF"/>
                        <rect id="Rectangle" fill="#333333" opacity="0.0987258185" x="5.35683963" y="3.11523438" width="43.8801262" height="4" rx="1"/>
                    </g>
                </g>
            </g>
        </g>
    </g>
</svg>
