<svg xmlns="http://www.w3.org/2000/svg" xmlns:xlink="http://www.w3.org/1999/xlink" width="37px"
    height="37px" viewBox="0 0 37 37" version="1.1">
    <title>icon-badminton</title>
    <g id="Home-Page" stroke="none" stroke-width="1" fill="none" fill-rule="evenodd">
        <g id="Artboard" transform="translate(-724.000000, -376.000000)" fill="#FFFFFF">
            <path
                d="M724.218746,392.360513 C724.184483,392.607924 724.263798,392.867451 724.440602,393.044255 L743.762192,412.365845 C743.938996,412.542648 744.198333,412.621775 744.445934,412.587701 C744.693535,412.553249 744.917474,412.399729 745.041085,412.17844 L757.710952,388.905266 C757.839864,388.674134 757.860686,388.413282 757.732153,388.16322 L758.324654,387.570719 C760.834171,385.061203 760.8425,380.986008 758.332794,378.476303 C755.823089,375.966597 751.747894,375.974926 749.238377,378.484442 L748.645876,379.076943 C748.396004,378.948221 748.135152,378.965637 747.90667,379.093791 L724.627439,391.769337 C724.440359,391.873991 724.299035,392.05166 724.240779,392.256211 L724.218746,392.360513 Z M756.018822,388.655962 L744.144383,410.476467 L740.727375,407.059459 L755.000591,387.637731 L756.018822,388.655962 Z M752.653871,385.29101 L753.852692,386.489831 L739.579665,405.911748 L735.806399,402.138482 L752.653871,385.29101 Z M751.518086,384.155226 L734.670614,401.002698 L730.894888,397.226971 L750.316616,382.953755 L751.518086,384.155226 Z M748.150485,380.787624 L749.168527,381.805666 L729.746799,396.078882 L726.329791,392.661874 L748.150485,380.787624 Z"
                id="icon-badminton" />
        </g>
    </g>
</svg>
