<svg xmlns="http://www.w3.org/2000/svg" xmlns:xlink="http://www.w3.org/1999/xlink" width="30px" height="31px" viewBox="0 0 30 31" version="1.1">
    <!-- Generator: Sketch 52.6 (67491) - http://www.bohemiancoding.com/sketch -->
    <title>icon-twitter</title>
    <desc>Created with Sketch.</desc>
    <g id="Symbols" stroke="none" stroke-width="1" fill="none" fill-rule="evenodd">
        <g id="Footer" transform="translate(-107.000000, -490.000000)" fill="#434365">
            <g id="Footer-Links" transform="translate(67.000000, 245.289062)">
                <g id="Social-icons" transform="translate(1.000000, 245.000000)">
                    <path d="M54,0 C62.2788,0 69,6.7212 69,15 C69,23.27872 62.2788,30 54,30 C45.72128,30 39,23.27872 39,15 C39,6.7212 45.72128,0 54,0 Z M62.1478,10.98174 C62.1548,11.14408 62.1572,11.30706 62.1572,11.4715 C62.1572,16.47698 58.4462,22.24892 51.65954,22.24892 C49.57506,22.24892 47.63694,21.6232 46.00362,20.54618 C46.2922,20.58214 46.58526,20.59878 46.88316,20.59878 C48.61182,20.59878 50.20314,19.99448 51.46648,18.97712 C49.85178,18.94886 48.4885,17.8525 48.01848,16.34788 C48.24418,16.39278 48.4768,16.4169 48.71414,16.4169 C49.0492,16.4169 49.37484,16.3695 49.68664,16.28366 C47.99766,15.93484 46.725,14.40382 46.725,12.56992 C46.725,12.55038 46.725,12.53644 46.725,12.52232 C47.22282,12.80378 47.79284,12.9757 48.39776,12.99502 C47.4067,12.31422 46.75518,11.15614 46.75518,9.8426 C46.75518,9.1476 46.93662,8.4982 47.2554,7.9372 C49.07474,10.22962 51.79468,11.73632 54.86096,11.8966 C54.79802,11.6193 54.76562,11.32784 54.76562,11.03204 C54.76562,8.9402 56.41744,7.2446 58.45562,7.2446 C59.5164,7.2446 60.475,7.7052 61.1474,8.4408 C61.9896,8.2712 62.7784,7.9562 63.4926,7.5216 C63.2156,8.4048 62.6318,9.1476 61.8686,9.6158 C62.6154,9.5274 63.3274,9.322 63.9882,9.021 C63.4926,9.7804 62.869,10.44666 62.1478,10.98174 Z" id="icon-twitter"/>
                </g>
            </g>
        </g>
    </g>
</svg>
