<svg xmlns="http://www.w3.org/2000/svg" xmlns:xlink="http://www.w3.org/1999/xlink" width="30px" height="31px" viewBox="0 0 30 31" version="1.1">
    <!-- Generator: Sketch 52.6 (67491) - http://www.bohemiancoding.com/sketch -->
    <title>icon-youtube</title>
    <desc>Created with Sketch.</desc>
    <g id="Symbols" stroke="none" stroke-width="1" fill="none" fill-rule="evenodd">
        <g id="Footer" transform="translate(-185.000000, -490.000000)" fill="#434365">
            <g id="Footer-Links" transform="translate(67.000000, 245.289062)">
                <g id="Social-icons" transform="translate(1.000000, 245.000000)">
                    <path d="M132,0 C140.2788,0 147,6.7212 147,15 C147,23.27872 140.2788,30 132,30 C123.72128,30 117,23.27872 117,15 C117,6.7212 123.72128,0 132,0 Z M140.4498,10.75496 C140.247,9.9962 139.6496,9.3986 138.8906,9.1958 C137.5152,8.8272 132,8.8272 132,8.8272 C132,8.8272 126.48488,8.8272 125.10932,9.1958 C124.35064,9.3986 123.75294,9.9962 123.55012,10.75496 C123.18166,12.13036 123.18166,15.00008 123.18166,15.00008 C123.18166,15.00008 123.18166,17.86978 123.55012,19.24504 C123.75294,20.00388 124.35064,20.60158 125.10932,20.80438 C126.48488,21.17284 132,21.17284 132,21.17284 C132,21.17284 137.5152,21.17284 138.8906,20.80438 C139.6496,20.60158 140.247,20.00388 140.4498,19.24504 C140.8184,17.86978 140.8184,15.00008 140.8184,15.00008 C140.8184,15.00008 140.8184,12.13036 140.4498,10.75496 Z M130.23624,17.64564 L130.23624,12.35452 L134.81832,15.00008 L130.23624,17.64564 Z" id="icon-youtube"/>
                </g>
            </g>
        </g>
    </g>
</svg>
