<?xml version="1.0" encoding="UTF-8"?>
<svg width="43px" height="42px" viewBox="0 0 43 42" version="1.1" xmlns="http://www.w3.org/2000/svg" xmlns:xlink="http://www.w3.org/1999/xlink">
    <!-- Generator: Sketch 52.6 (67491) - http://www.bohemiancoding.com/sketch -->
    <title>Search Icon</title>
    <desc>Created with Sketch.</desc>
    <g id="Search-Icon" stroke="none" stroke-width="1" fill="none" fill-rule="evenodd">
        <path d="M41.981725,36.1278568 L32.0957293,26.3388008 C33.7754327,23.6910854 34.7503122,20.5616413 34.7503122,17.203161 C34.7503122,7.70156514 26.9708238,0 17.3747941,0 C7.7787644,0 0,7.70156514 0,17.203161 C0,26.7051153 7.77840239,34.4059636 17.3747941,34.4059636 C21.0661596,34.4059636 24.4852972,33.2632917 27.2988004,31.3216815 L37.0671445,40.9942481 C37.745904,41.6655857 38.6357124,42 39.5244348,42 C40.4142432,42 41.3029656,41.6655857 41.982811,40.9942481 C43.3392439,39.6497807 43.3392439,37.4719657 41.981725,36.1278568 Z M17.5,29 C11.1489998,29 6,23.851434 6,17.5001772 C6,11.1489204 11.1489998,6 17.5,6 C23.8513547,6 29,11.1489204 29,17.5001772 C29,23.851434 23.8513547,29 17.5,29 Z" id="Shape" fill="#4E5979" fill-rule="nonzero"></path>
    </g>
</svg>