<svg xmlns="http://www.w3.org/2000/svg" xmlns:xlink="http://www.w3.org/1999/xlink" width="30px" height="31px" viewBox="0 0 30 31" version="1.1">
    <!-- Generator: Sketch 52.6 (67491) - http://www.bohemiancoding.com/sketch -->
    <title>icon-linkedin</title>
    <desc>Created with Sketch.</desc>
    <g id="Symbols" stroke="none" stroke-width="1" fill="none" fill-rule="evenodd">
        <g id="Footer" transform="translate(-68.000000, -490.000000)" fill="#434365">
            <g id="Footer-Links" transform="translate(67.000000, 245.289062)">
                <g id="Social-icons" transform="translate(1.000000, 245.000000)">
                    <path d="M15,0 C23.2788,0 30,6.7212 30,15 C30,23.27872 23.2788,30 15,30 C6.72128,30 0,23.27872 0,15 C0,6.7212 6.72128,0 15,0 Z M22.2418,6.5 L7.75398,6.5 C7.0621,6.5 6.50024,7.0492 6.50024,7.7258 L6.50024,22.27364 C6.50024,22.95034 7.06218,23.5 7.75398,23.5 L22.2418,23.5 C22.935,23.5 23.4998,22.95034 23.4998,22.27364 L23.4998,7.7258 C23.4998,7.0492 22.935,6.5 22.2418,6.5 Z M15.64294,20.98588 L13.12456,20.98588 L13.12456,12.87358 L15.5414,12.87358 L15.5414,13.98236 L15.57588,13.98236 C15.9121,13.34486 16.7347,12.67194 17.96154,12.67194 C20.5144,12.67194 20.9862,14.35164 20.9862,16.53662 L20.9862,20.98588 L18.46494,20.98588 L18.46494,17.04094 C18.46494,16.10028 18.44888,14.88998 17.15498,14.88998 C15.84316,14.88998 15.64294,15.91516 15.64294,16.97342 L15.64294,20.98588 Z M9.0186,20.98588 L11.54262,20.98588 L11.54262,12.87358 L9.0186,12.87358 L9.0186,20.98588 Z M10.28132,11.7648 C9.47146,11.7648 8.81884,11.10984 8.81884,10.3028 C8.81884,9.4958 9.47146,8.8408 10.28132,8.8408 C11.08788,8.8408 11.74284,9.4958 11.74284,10.3028 C11.74284,11.10984 11.08788,11.7648 10.28132,11.7648 Z" id="icon-linkedin"/>
                </g>
            </g>
        </g>
    </g>
</svg>
