<?xml version="1.0" encoding="UTF-8"?>
<svg width="522px" height="369px" viewBox="0 0 522 369" version="1.1" xmlns="http://www.w3.org/2000/svg" xmlns:xlink="http://www.w3.org/1999/xlink">
    <!-- Generator: Sketch 53.2 (72643) - https://sketchapp.com -->
    <title>image-website</title>
    <desc>Created with Sketch.</desc>
    <defs>
        <rect id="path-1" x="0" y="0.22265625" width="79" height="79" rx="8"></rect>
        <filter x="-22.2%" y="-15.8%" width="144.3%" height="144.3%" filterUnits="objectBoundingBox" id="filter-2">
            <feOffset dx="0" dy="5" in="SourceAlpha" result="shadowOffsetOuter1"></feOffset>
            <feGaussianBlur stdDeviation="5" in="shadowOffsetOuter1" result="shadowBlurOuter1"></feGaussianBlur>
            <feColorMatrix values="0 0 0 0 0.262745098   0 0 0 0 0.262745098   0 0 0 0 0.396078431  0 0 0 0.213994565 0" type="matrix" in="shadowBlurOuter1"></feColorMatrix>
        </filter>
        <rect id="path-3" x="0" y="0.22265625" width="79" height="79" rx="8"></rect>
        <filter x="-22.2%" y="-15.8%" width="144.3%" height="144.3%" filterUnits="objectBoundingBox" id="filter-4">
            <feOffset dx="0" dy="5" in="SourceAlpha" result="shadowOffsetOuter1"></feOffset>
            <feGaussianBlur stdDeviation="5" in="shadowOffsetOuter1" result="shadowBlurOuter1"></feGaussianBlur>
            <feColorMatrix values="0 0 0 0 0.262745098   0 0 0 0 0.262745098   0 0 0 0 0.396078431  0 0 0 0.213994565 0" type="matrix" in="shadowBlurOuter1"></feColorMatrix>
        </filter>
        <rect id="path-5" x="0.5" y="0.87890625" width="79" height="79" rx="8"></rect>
        <filter x="-22.2%" y="-15.8%" width="144.3%" height="144.3%" filterUnits="objectBoundingBox" id="filter-6">
            <feOffset dx="0" dy="5" in="SourceAlpha" result="shadowOffsetOuter1"></feOffset>
            <feGaussianBlur stdDeviation="5" in="shadowOffsetOuter1" result="shadowBlurOuter1"></feGaussianBlur>
            <feColorMatrix values="0 0 0 0 0.262745098   0 0 0 0 0.262745098   0 0 0 0 0.396078431  0 0 0 0.213994565 0" type="matrix" in="shadowBlurOuter1"></feColorMatrix>
        </filter>
        <rect id="path-7" x="0.5" y="0.87890625" width="79" height="79" rx="8"></rect>
        <filter x="-22.2%" y="-15.8%" width="144.3%" height="144.3%" filterUnits="objectBoundingBox" id="filter-8">
            <feOffset dx="0" dy="5" in="SourceAlpha" result="shadowOffsetOuter1"></feOffset>
            <feGaussianBlur stdDeviation="5" in="shadowOffsetOuter1" result="shadowBlurOuter1"></feGaussianBlur>
            <feColorMatrix values="0 0 0 0 0.262745098   0 0 0 0 0.262745098   0 0 0 0 0.396078431  0 0 0 0.213994565 0" type="matrix" in="shadowBlurOuter1"></feColorMatrix>
        </filter>
        <rect id="path-9" x="0" y="0.22265625" width="79" height="79" rx="8"></rect>
        <filter x="-22.2%" y="-15.8%" width="144.3%" height="144.3%" filterUnits="objectBoundingBox" id="filter-10">
            <feOffset dx="0" dy="5" in="SourceAlpha" result="shadowOffsetOuter1"></feOffset>
            <feGaussianBlur stdDeviation="5" in="shadowOffsetOuter1" result="shadowBlurOuter1"></feGaussianBlur>
            <feColorMatrix values="0 0 0 0 0.262745098   0 0 0 0 0.262745098   0 0 0 0 0.396078431  0 0 0 0.213994565 0" type="matrix" in="shadowBlurOuter1"></feColorMatrix>
        </filter>
        <rect id="path-11" x="0" y="0.87890625" width="79" height="79" rx="8"></rect>
        <filter x="-22.2%" y="-15.8%" width="144.3%" height="144.3%" filterUnits="objectBoundingBox" id="filter-12">
            <feOffset dx="0" dy="5" in="SourceAlpha" result="shadowOffsetOuter1"></feOffset>
            <feGaussianBlur stdDeviation="5" in="shadowOffsetOuter1" result="shadowBlurOuter1"></feGaussianBlur>
            <feColorMatrix values="0 0 0 0 0.262745098   0 0 0 0 0.262745098   0 0 0 0 0.396078431  0 0 0 0.213994565 0" type="matrix" in="shadowBlurOuter1"></feColorMatrix>
        </filter>
        <rect id="path-13" x="0" y="0.22265625" width="79" height="79" rx="8"></rect>
        <filter x="-22.2%" y="-15.8%" width="144.3%" height="144.3%" filterUnits="objectBoundingBox" id="filter-14">
            <feOffset dx="0" dy="5" in="SourceAlpha" result="shadowOffsetOuter1"></feOffset>
            <feGaussianBlur stdDeviation="5" in="shadowOffsetOuter1" result="shadowBlurOuter1"></feGaussianBlur>
            <feColorMatrix values="0 0 0 0 0.262745098   0 0 0 0 0.262745098   0 0 0 0 0.396078431  0 0 0 0.213994565 0" type="matrix" in="shadowBlurOuter1"></feColorMatrix>
        </filter>
        <rect id="path-15" x="0" y="0.09375" width="79" height="79" rx="8"></rect>
        <filter x="-22.2%" y="-15.8%" width="144.3%" height="144.3%" filterUnits="objectBoundingBox" id="filter-16">
            <feOffset dx="0" dy="5" in="SourceAlpha" result="shadowOffsetOuter1"></feOffset>
            <feGaussianBlur stdDeviation="5" in="shadowOffsetOuter1" result="shadowBlurOuter1"></feGaussianBlur>
            <feColorMatrix values="0 0 0 0 0.262745098   0 0 0 0 0.262745098   0 0 0 0 0.396078431  0 0 0 0.213994565 0" type="matrix" in="shadowBlurOuter1"></feColorMatrix>
        </filter>
        <rect id="path-17" x="0" y="0.09375" width="79" height="79" rx="8"></rect>
        <filter x="-22.2%" y="-15.8%" width="144.3%" height="144.3%" filterUnits="objectBoundingBox" id="filter-19">
            <feOffset dx="0" dy="5" in="SourceAlpha" result="shadowOffsetOuter1"></feOffset>
            <feGaussianBlur stdDeviation="5" in="shadowOffsetOuter1" result="shadowBlurOuter1"></feGaussianBlur>
            <feColorMatrix values="0 0 0 0 0.262745098   0 0 0 0 0.262745098   0 0 0 0 0.396078431  0 0 0 0.213994565 0" type="matrix" in="shadowBlurOuter1"></feColorMatrix>
        </filter>
        <path d="M14.041167,0.279684902 L12.9311901,12.1147304 C12.5934971,15.7160899 9.44381924,18.6398907 5.90206114,18.6398907 C2.36030303,18.6398907 -0.240940359,15.7160899 0.0968251459,12.1147304 L1.20672955,0.279684902 L14.041167,0.279684902 Z M10.5487267,3.59353819 L9.86349143,10.9001071 C9.6549951,13.1234645 7.7104536,14.9285256 5.52395786,14.9285256 C3.3373897,14.9285256 1.73148273,13.1234645 1.93997906,10.9001071 L2.62521431,3.59353819 L10.5487267,3.59353819 Z" id="path-20"></path>
        <path d="M0,0.279684902 L1.1099044,12.1147304 C1.44766991,15.7160899 4.59734773,18.6398907 8.13903341,18.6398907 C11.6807915,18.6398907 14.2820349,15.7160899 13.9443418,12.1147304 L12.834365,0.279684902 L0,0.279684902 Z M3.49244028,3.59353819 L4.17767554,10.9001071 C4.38617187,13.1234645 6.33064095,14.9285256 8.51720911,14.9285256 C10.7037773,14.9285256 12.3096842,13.1234645 12.1011879,10.9001071 L11.4159527,3.59353819 L3.49244028,3.59353819 Z" id="path-22"></path>
        <polygon id="path-24" points="2.32575883 0.14983637 0.382303624 16.9841589 10.7336866 16.960188 8.50272517 0.0629327238"></polygon>
        <path d="M10.6073142,32.6651253 C4.54817475,30.6368666 0.168955172,24.83221 0.168955172,17.9957174 L0.168955172,0.659091737 L30.5374344,0.659091737 L30.5374344,17.9957174 C30.5374344,24.83221 26.1582872,30.6368666 20.0990753,32.6651253 C16.905656,33.3992439 13.741277,33.410831 10.6073142,32.6651253 Z" id="path-26"></path>
        <polygon id="path-28" points="0.251296377 0.0246226998 32.3271425 0.0246226998 32.3271425 13.759744 0.251296377 13.759744"></polygon>
        <rect id="path-30" x="0" y="0.09375" width="79" height="79" rx="8"></rect>
        <filter x="-22.2%" y="-15.8%" width="144.3%" height="144.3%" filterUnits="objectBoundingBox" id="filter-31">
            <feOffset dx="0" dy="5" in="SourceAlpha" result="shadowOffsetOuter1"></feOffset>
            <feGaussianBlur stdDeviation="5" in="shadowOffsetOuter1" result="shadowBlurOuter1"></feGaussianBlur>
            <feColorMatrix values="0 0 0 0 0.262745098   0 0 0 0 0.262745098   0 0 0 0 0.396078431  0 0 0 0.213994565 0" type="matrix" in="shadowBlurOuter1"></feColorMatrix>
        </filter>
        <rect id="path-32" x="0" y="0.09375" width="79" height="79" rx="8"></rect>
        <filter x="-22.2%" y="-15.8%" width="144.3%" height="144.3%" filterUnits="objectBoundingBox" id="filter-33">
            <feOffset dx="0" dy="5" in="SourceAlpha" result="shadowOffsetOuter1"></feOffset>
            <feGaussianBlur stdDeviation="5" in="shadowOffsetOuter1" result="shadowBlurOuter1"></feGaussianBlur>
            <feColorMatrix values="0 0 0 0 0.262745098   0 0 0 0 0.262745098   0 0 0 0 0.396078431  0 0 0 0.213994565 0" type="matrix" in="shadowBlurOuter1"></feColorMatrix>
        </filter>
    </defs>
    <g id="Sports-Page-(Football)" stroke="none" stroke-width="1" fill="none" fill-rule="evenodd">
        <g id="Desktop" transform="translate(-621.000000, -2331.000000)">
            <g id="image-website" transform="translate(631.000000, 2336.000000)">
                <path d="M38,39 L446,39 C457.045695,39 466,47.954305 466,59 L466,152 C466,163.045695 457.045695,172 446,172 L58,172 C46.954305,172 38,180.954305 38,192 L38,290 C38,301.045695 46.954305,310 58,310 L466,310" id="Path-4" stroke="#E1E1E1" stroke-width="2" stroke-dasharray="5"></path>
                <g id="Group-28">
                    <g id="Rectangle">
                        <use fill="black" fill-opacity="1" filter="url(#filter-2)" xlink:href="#path-1"></use>
                        <use fill="#FFFFFF" fill-rule="evenodd" xlink:href="#path-1"></use>
                    </g>
                    <g id="Group-19" transform="translate(14.000000, 16.000000)">
                        <path d="M40.5028521,33.5733059 C37.4237035,25.9052243 34.3445549,19.9128212 31.2654064,15.5960965 C33.0018321,13.9435794 34.7382578,13.1173208 36.4746835,13.1173208 C41.3164557,13.1173208 46.1582278,19.5414201 51,32.3896185 C46.8884909,33.007162 43.3894416,33.4017244 40.5028521,33.5733059 Z M19.3670886,9.71632714 C25.8227848,9.71632714 32.278481,18.2188114 38.7341772,35.22378 C35.4139966,37.11626 28.9583004,38.0625 19.3670886,38.0625 C9.77587685,38.0625 3.32018064,37.11626 -1.52766688e-13,35.22378 C6.4556962,18.2188114 12.9113924,9.71632714 19.3670886,9.71632714 Z" id="Combined-Shape" fill="#0C9F9B"></path>
                        <circle id="Oval" fill="#FED050" cx="32.9240506" cy="5.19733979" r="4.51898734"></circle>
                    </g>
                </g>
                <g id="Group-29" transform="translate(143.000000, 0.000000)">
                    <g id="Rectangle-Copy-25">
                        <use fill="black" fill-opacity="1" filter="url(#filter-4)" xlink:href="#path-3"></use>
                        <use fill="#FFFFFF" fill-rule="evenodd" xlink:href="#path-3"></use>
                    </g>
                    <path d="M40.2756044,24.8879572 L40.2756044,24.9211072 L40.2629471,24.9211072 C40.1701273,24.9211072 30.6054689,24.9258429 24.2768462,25.4325632 L23.9983868,25.4609774 C23.1756659,25.5509558 22.2432488,25.6456699 21.3488034,26.6827891 C20.9353334,27.1468881 20.4459199,28.8233273 20.2813758,30.0309318 C20.0152985,32.6584041 19.8744618,35.2999552 19.8594676,37.9442933 L19.8594676,41.8086278 C19.8738241,44.4529896 20.0146629,47.0945789 20.2813758,49.7219893 C20.4417009,50.9153867 20.9226762,52.5870903 21.3445844,53.0606607 C22.1293336,53.9746516 23.2220758,54.1214584 24.1840264,54.2493224 C24.4287332,54.2777366 24.6354682,54.3108865 24.8506413,54.3487722 C28.4663944,54.6944786 39.7946291,54.8223426 40.2798235,54.8223426 C40.7017316,54.8223426 50.055436,54.7749855 56.2659244,54.3014151 L56.5528219,54.2682652 C57.3755429,54.1782868 58.30796,54.078837 59.1981862,53.0464536 C59.6116562,52.6012974 60.1052888,50.9011796 60.2613948,49.7314607 C60.527598,47.1024159 60.6684349,44.459281 60.683303,41.8133635 L60.683303,37.9111434 C60.6689465,35.2667816 60.5281077,32.6251923 60.2613948,29.9977819 C60.0968507,28.7996488 59.6158753,27.1232096 59.1939671,26.6496392 C58.2995218,25.61252 57.3882001,25.5130702 56.5443838,25.4278275 L56.2659244,25.3994133 C49.9457399,24.8879572 40.3726433,24.8879572 40.2756044,24.8879572 Z M40.2756044,21.8428995 L40.2756044,21.8097496 C40.2756044,21.8097496 50.0259024,21.8097496 56.5317265,22.3354128 C57.430391,22.4490697 59.4091403,22.4632768 61.1727165,24.5091009 C62.5650135,26.0718833 63.0164553,29.6189256 63.0164553,29.6189256 C63.3054806,32.3841398 63.4604087,35.1649414 63.4805543,37.949029 L63.4805543,41.8512492 C63.457616,44.6355091 63.299871,47.4163118 63.0080171,50.1813526 C63.0080171,50.1813526 62.5523563,53.7283949 61.1642783,55.2864416 C59.4091403,57.3322657 57.430391,57.3464728 56.5232884,57.4648654 C50.0259024,58 40.2756044,58 40.2756044,58 C40.2756044,58 28.2090304,57.8768717 24.4962385,57.4838083 C23.4625634,57.2659659 21.1462875,57.32753 19.3784922,55.2817059 C17.9861953,53.7236592 17.5347535,50.1766169 17.5347535,50.1766169 C17.2456619,47.4114094 17.0907335,44.6306038 17.0706545,41.8465135 L17.0706545,37.9442933 C17.0988533,35.1708398 17.2608218,32.4011343 17.5558489,29.6473398 C17.5558489,29.6473398 18.0115097,26.1002975 19.3995877,24.5375151 C21.1589448,22.491691 23.133475,22.4822196 24.0405776,22.363827 C30.5337445,21.8428995 40.2756044,21.8428995 40.2756044,21.8428995 Z M35.6014645,32.1430559 L48.8567001,39.9048748 L35.6014645,47.6666938 L35.6014645,32.1430559 Z" id="Combined-Shape" fill="#EE2F61" fill-rule="nonzero"></path>
                </g>
                <g id="Group-32" transform="translate(69.000000, 134.000000)">
                    <g id="Rectangle-Copy-28">
                        <use fill="black" fill-opacity="1" filter="url(#filter-6)" xlink:href="#path-5"></use>
                        <use fill="#FFFFFF" fill-rule="evenodd" xlink:href="#path-5"></use>
                    </g>
                    <g id="Group-20" transform="translate(10.000000, 12.378906)">
                        <path d="M1.56607023,0.369978528 L21.3529066,0.369978528 C21.9051913,0.369978528 22.3529066,0.817693778 22.3529066,1.36997853 L22.3529066,7.56132392 C22.3529066,8.11360867 21.9051913,8.56132392 21.3529066,8.56132392 L1.56607023,8.56132392 C1.01378548,8.56132392 0.566070228,8.11360867 0.566070228,7.56132392 L0.566070228,1.36997853 C0.566070228,0.817693778 1.01378548,0.369978528 1.56607023,0.369978528 Z M38.6470934,0.369978528 L58.4339298,0.369978528 C58.9862145,0.369978528 59.4339298,0.817693778 59.4339298,1.36997853 L59.4339298,7.56132392 C59.4339298,8.11360867 58.9862145,8.56132392 58.4339298,8.56132392 L38.6470934,8.56132392 C38.0948087,8.56132392 37.6470934,8.11360867 37.6470934,7.56132392 L37.6470934,1.36997853 C37.6470934,0.817693778 38.0948087,0.369978528 38.6470934,0.369978528 Z" id="Combined-Shape" fill="#EFEFEF"></path>
                        <path d="M1.56607023,16.0562324 L21.3529066,16.0562324 C21.9051913,16.0562324 22.3529066,16.5039477 22.3529066,17.0562324 L22.3529066,23.2475778 C22.3529066,23.7998626 21.9051913,24.2475778 21.3529066,24.2475778 L1.56607023,24.2475778 C1.01378548,24.2475778 0.566070228,23.7998626 0.566070228,23.2475778 L0.566070228,17.0562324 C0.566070228,16.5039477 1.01378548,16.0562324 1.56607023,16.0562324 Z M38.6470934,16.0562324 L58.4339298,16.0562324 C58.9862145,16.0562324 59.4339298,16.5039477 59.4339298,17.0562324 L59.4339298,23.2475778 C59.4339298,23.7998626 58.9862145,24.2475778 58.4339298,24.2475778 L38.6470934,24.2475778 C38.0948087,24.2475778 37.6470934,23.7998626 37.6470934,23.2475778 L37.6470934,17.0562324 C37.6470934,16.5039477 38.0948087,16.0562324 38.6470934,16.0562324 Z" id="Combined-Shape" fill="#EFEFEF"></path>
                        <path d="M1.56607023,31.7424864 L21.3529066,31.7424864 C21.9051913,31.7424864 22.3529066,32.1902016 22.3529066,32.7424864 L22.3529066,38.9338318 C22.3529066,39.4861165 21.9051913,39.9338318 21.3529066,39.9338318 L1.56607023,39.9338318 C1.01378548,39.9338318 0.566070228,39.4861165 0.566070228,38.9338318 L0.566070228,32.7424864 C0.566070228,32.1902016 1.01378548,31.7424864 1.56607023,31.7424864 Z M38.6470934,31.7424864 L58.4339298,31.7424864 C58.9862145,31.7424864 59.4339298,32.1902016 59.4339298,32.7424864 L59.4339298,38.9338318 C59.4339298,39.4861165 58.9862145,39.9338318 58.4339298,39.9338318 L38.6470934,39.9338318 C38.0948087,39.9338318 37.6470934,39.4861165 37.6470934,38.9338318 L37.6470934,32.7424864 C37.6470934,32.1902016 38.0948087,31.7424864 38.6470934,31.7424864 Z" id="Combined-Shape" fill="#EFEFEF"></path>
                        <path d="M1.56607023,47.4287403 L21.3529066,47.4287403 C21.9051913,47.4287403 22.3529066,47.8764555 22.3529066,48.4287403 L22.3529066,54.6200857 C22.3529066,55.1723704 21.9051913,55.6200857 21.3529066,55.6200857 L1.56607023,55.6200857 C1.01378548,55.6200857 0.566070228,55.1723704 0.566070228,54.6200857 L0.566070228,48.4287403 C0.566070228,47.8764555 1.01378548,47.4287403 1.56607023,47.4287403 Z M38.6470934,47.4287403 L58.4339298,47.4287403 C58.9862145,47.4287403 59.4339298,47.8764555 59.4339298,48.4287403 L59.4339298,54.6200857 C59.4339298,55.1723704 58.9862145,55.6200857 58.4339298,55.6200857 L38.6470934,55.6200857 C38.0948087,55.6200857 37.6470934,55.1723704 37.6470934,54.6200857 L37.6470934,48.4287403 C37.6470934,47.8764555 38.0948087,47.4287403 38.6470934,47.4287403 Z" id="Combined-Shape" fill="#EFEFEF"></path>
                        <path d="M29.1515468,3.43566895 L30,4.56281217 L30.8484532,3.43566895 L31.9874831,3.43566895 L30,6.07597741 L28.0125169,3.43566895 L29.1515468,3.43566895 Z" id="Combined-Shape" fill="#EE2F61"></path>
                        <path d="M29.1515468,18.541579 L30,19.6687222 L30.8484532,18.541579 L31.9874831,18.541579 L30,21.1818874 L28.0125169,18.541579 L29.1515468,18.541579 Z" id="Combined-Shape-Copy" fill="#EE2F61"></path>
                        <path d="M29.1515468,34.8081768 L30,35.93532 L30.8484532,34.8081768 L31.9874831,34.8081768 L30,37.4484853 L28.0125169,34.8081768 L29.1515468,34.8081768 Z" id="Combined-Shape-Copy-2" fill="#EE2F61"></path>
                        <path d="M29.1515468,50.4944307 L30,51.6215739 L30.8484532,50.4944307 L31.9874831,50.4944307 L30,53.1347392 L28.0125169,50.4944307 L29.1515468,50.4944307 Z" id="Combined-Shape-Copy-3" fill="#EE2F61"></path>
                    </g>
                </g>
                <g id="Group-33" transform="translate(210.000000, 134.000000)">
                    <rect id="Rectangle-Copy-38" fill="#EFEFEF" x="12" y="58.3830225" width="40.8104614" height="8.1913454" rx="1"></rect>
                    <g id="Rectangle-Copy-29">
                        <use fill="black" fill-opacity="1" filter="url(#filter-8)" xlink:href="#path-7"></use>
                        <use fill="#FFFFFF" fill-rule="evenodd" xlink:href="#path-7"></use>
                    </g>
                    <path d="M13,47.0219348 L67.1658446,47.0219348 C67.7181294,47.0219348 68.1658446,47.4696501 68.1658446,48.0219348 L68.1658446,54.2132802 C68.1658446,54.765565 67.7181294,55.2132802 67.1658446,55.2132802 L13,55.2132802 C12.4477153,55.2132802 12,54.765565 12,54.2132802 L12,48.0219348 C12,47.4696501 12.4477153,47.0219348 13,47.0219348 Z M13,61.5527648 L51.8104614,61.5527648 C52.3627461,61.5527648 52.8104614,62.0004801 52.8104614,62.5527648 L52.8104614,68.7441102 C52.8104614,69.2963949 52.3627461,69.7441102 51.8104614,69.7441102 L13,69.7441102 C12.4477153,69.7441102 12,69.2963949 12,68.7441102 L12,62.5527648 C12,62.0004801 12.4477153,61.5527648 13,61.5527648 Z" id="Combined-Shape" fill="#EFEFEF"></path>
                    <path d="M33.837838,36.064839 C46.3720847,36.064839 53.2277888,25.6803073 53.2277888,16.6748882 C53.2277888,16.3799335 53.2277888,16.0863074 53.2078594,15.7940099 C54.5415747,14.8293099 55.6928602,13.6348343 56.6078104,12.266511 C55.3640569,12.8176269 54.0446663,13.1790486 52.6936816,13.3387113 C54.1162987,12.4870389 55.1810314,11.147506 55.6897306,9.5694026 C54.3520147,10.3631966 52.8885193,10.922623 51.3623996,11.2235405 C49.249996,8.97735978 45.8934069,8.42759914 43.1748145,9.88253281 C40.4562221,11.3374665 39.0517272,14.4352595 39.7488899,17.4388475 C34.2695026,17.1641537 29.164368,14.5760905 25.7039968,10.318747 C23.8952372,13.4325716 24.8191166,17.4160742 27.813853,19.4158412 C26.7293513,19.3836985 25.6684951,19.0911428 24.7208144,18.5628641 C24.7208144,18.5907652 24.7208144,18.619995 24.7208144,18.6492247 C24.7217021,21.8931858 27.0083762,24.687207 30.1881056,25.3295504 C29.1848206,25.6031674 28.1321658,25.6431647 27.1110105,25.4464693 C28.0037772,28.2225284 30.5622126,30.1242702 33.4777807,30.179031 C31.064646,32.0755525 28.083643,33.1050983 25.0144405,33.1020056 C24.4722335,33.1009647 23.9305538,33.0681356 23.3921896,33.0036874 C26.5086598,35.0036352 30.1348456,36.0644629 33.837838,36.0595245" id="Path" fill="#1DA1F2"></path>
                </g>
                <g id="Group-31" transform="translate(423.000000, 0.000000)">
                    <rect id="Rectangle-Copy-15" fill="#EFEFEF" x="11.9170777" y="36.4822002" width="56.1658446" height="8.1913454" rx="1"></rect>
                    <g id="Rectangle-Copy-27">
                        <use fill="black" fill-opacity="1" filter="url(#filter-10)" xlink:href="#path-9"></use>
                        <use fill="#FFFFFF" fill-rule="evenodd" xlink:href="#path-9"></use>
                    </g>
                    <g id="Group-27" transform="translate(11.000000, 22.000000)">
                        <path d="M1.91707769,14.4822002 L56.0829223,14.4822002 C56.6352071,14.4822002 57.0829223,14.9299154 57.0829223,15.4822002 L57.0829223,21.6735456 C57.0829223,22.2258303 56.6352071,22.6735456 56.0829223,22.6735456 L1.91707769,22.6735456 C1.36479294,22.6735456 0.917077689,22.2258303 0.917077689,21.6735456 L0.917077689,15.4822002 C0.917077689,14.9299154 1.36479294,14.4822002 1.91707769,14.4822002 Z M1.91707769,28.5905986 L48.9472656,28.5905986 C49.4995504,28.5905986 49.9472656,29.0383139 49.9472656,29.5905986 L49.9472656,35.781944 C49.9472656,36.3342287 49.4995504,36.781944 48.9472656,36.781944 L1.91707769,36.781944 C1.36479294,36.781944 0.917077689,36.3342287 0.917077689,35.781944 L0.917077689,29.5905986 C0.917077689,29.0383139 1.36479294,28.5905986 1.91707769,28.5905986 Z" id="Combined-Shape" fill="#EFEFEF"></path>
                        <rect id="Rectangle-Copy-36" fill="#BABABA" x="0.917077689" y="0.373801725" width="40.8104614" height="8.1913454" rx="1"></rect>
                    </g>
                </g>
                <g id="Group-34" transform="translate(350.000000, 134.000000)">
                    <g id="Rectangle-Copy-30">
                        <use fill="black" fill-opacity="1" filter="url(#filter-12)" xlink:href="#path-11"></use>
                        <use fill="#FFFFFF" fill-rule="evenodd" xlink:href="#path-11"></use>
                    </g>
                    <path d="M12.5660702,47.0219348 L66.7319148,47.0219348 C67.2841996,47.0219348 67.7319148,47.4696501 67.7319148,48.0219348 L67.7319148,54.2132802 C67.7319148,54.765565 67.2841996,55.2132802 66.7319148,55.2132802 L12.5660702,55.2132802 C12.0137855,55.2132802 11.5660702,54.765565 11.5660702,54.2132802 L11.5660702,48.0219348 C11.5660702,47.4696501 12.0137855,47.0219348 12.5660702,47.0219348 Z M12.5660702,61.5527648 L51.3765316,61.5527648 C51.9288164,61.5527648 52.3765316,62.0004801 52.3765316,62.5527648 L52.3765316,68.7441102 C52.3765316,69.2963949 51.9288164,69.7441102 51.3765316,69.7441102 L12.5660702,69.7441102 C12.0137855,69.7441102 11.5660702,69.2963949 11.5660702,68.7441102 L11.5660702,62.5527648 C11.5660702,62.0004801 12.0137855,61.5527648 12.5660702,61.5527648 Z" id="Combined-Shape" fill="#EFEFEF"></path>
                    <path d="M52.7793154,9.07519531 L26.2206846,9.07519531 C25.3110457,9.07519531 24.5736377,9.81260331 24.5736377,10.7222422 L24.5736377,37.280873 C24.5736377,38.1905118 25.3110457,38.9279198 26.2206846,38.9279198 L40.5294043,38.9279198 L40.5294043,27.3831507 L36.6434031,27.3831507 L36.6434031,22.8640658 L40.5294043,22.8640658 L40.5294043,19.53909 C40.5294043,15.6839709 42.8867401,13.5839861 46.3249505,13.5839861 C47.483583,13.5814594 48.6415465,13.639873 49.7940429,13.7589848 L49.7940429,17.7891027 L47.4264131,17.7891027 C45.5528972,17.7891027 45.1874587,18.6743903 45.1874587,19.9817338 L45.1874587,22.8589188 L49.6653674,22.8589188 L49.083754,27.3780037 L45.1617236,27.3780037 L45.1617236,38.9279198 L52.7793154,38.9279198 C53.6889543,38.9279198 54.4263623,38.1905118 54.4263623,37.280873 L54.4263623,10.7222422 C54.4263623,9.81260331 53.6889543,9.07519531 52.7793154,9.07519531 Z" id="Path" fill="#4267B2"></path>
                </g>
                <g id="Group-30" transform="translate(278.000000, 0.000000)">
                    <g id="Rectangle-Copy-26">
                        <use fill="black" fill-opacity="1" filter="url(#filter-14)" xlink:href="#path-13"></use>
                        <use fill="#FFFFFF" fill-rule="evenodd" xlink:href="#path-13"></use>
                    </g>
                    <path d="M59.8391409,57.4020612 L20.4727671,57.4020612 C13.8496508,57.4020612 8.48055425,51.9411882 8.48055425,45.20486 C8.48055425,39.1101785 12.875533,34.0595457 18.617867,33.1526794 C18.6173929,33.1043954 18.6171553,33.0560548 18.6171553,33.0076588 C18.6171553,25.01669 25.0951154,18.5387299 33.0860842,18.5387299 C37.7525381,18.5387299 41.9030315,20.7478197 44.5488344,24.1772695 C46.239695,23.1667394 48.2170746,22.5860307 50.330086,22.5860307 C56.3161351,22.5860307 61.2136594,27.2465595 61.5920753,33.1370334 C67.384266,33.9998757 71.8313538,39.0741541 71.8313538,45.20486 C71.8313538,51.9411882 66.4622572,57.4020612 59.8391409,57.4020612 Z" id="Combined-Shape" stroke="#C2DCFA" stroke-width="2" fill="#E2EBF8"></path>
                    <path d="M28.3708436,46.9863672 C28.3708436,47.1330346 28.3175108,47.2597 28.2108436,47.3663672 C28.1041764,47.4730344 27.977511,47.5263672 27.8308436,47.5263672 L27.0108436,47.5263672 C26.8641762,47.5263672 26.7375108,47.4730344 26.6308436,47.3663672 C26.5241764,47.2597 26.4708436,47.1330346 26.4708436,46.9863672 L26.4708436,35.9663672 L23.2308436,38.4263672 C23.110843,38.5330344 22.977511,38.573034 22.8308436,38.5463672 C22.6841762,38.5197004 22.5641774,38.4530344 22.4708436,38.3463672 L21.9908436,37.7263672 C21.8975098,37.6063666 21.8608435,37.4730346 21.8808436,37.3263672 C21.9008437,37.1796998 21.970843,37.059701 22.0908436,36.9663672 L26.3708436,33.6863672 C26.4775108,33.6063668 26.5841764,33.5597006 26.6908436,33.5463672 C26.7975108,33.5330338 26.9041764,33.5263672 27.0108436,33.5263672 L27.8308436,33.5263672 C27.977511,33.5263672 28.1041764,33.5797 28.2108436,33.6863672 C28.3175108,33.7930344 28.3708436,33.9196998 28.3708436,34.0663672 L28.3708436,46.9863672 Z M29.8308435,43.5463672 C29.8308435,42.8663638 30.0008418,42.2363701 30.3408435,41.6563672 C30.6808452,41.0763643 31.1575071,40.5930358 31.7708435,40.2063672 C31.2775077,39.8463654 30.8941782,39.4130364 30.6208435,38.9063672 C30.3475088,38.399698 30.2108435,37.8463702 30.2108435,37.2463672 C30.2108435,36.7130312 30.327509,36.2063696 30.5608435,35.7263672 C30.794178,35.2463648 31.1175081,34.8297023 31.5308435,34.4763672 C31.9441789,34.1230321 32.434174,33.8430349 33.0008435,33.6363672 C33.567513,33.4296995 34.1841735,33.3263672 34.8508435,33.3263672 C35.5175135,33.3263672 36.134174,33.4296995 36.7008435,33.6363672 C37.267513,33.8430349 37.7608414,34.1230321 38.1808435,34.4763672 C38.6008456,34.8297023 38.927509,35.2463648 39.1608435,35.7263672 C39.394178,36.2063696 39.5108435,36.7130312 39.5108435,37.2463672 C39.5108435,37.8463702 39.3675116,38.399698 39.0808435,38.9063672 C38.7941754,39.4130364 38.4108459,39.8463654 37.9308435,40.2063672 C38.5308465,40.5930358 39.0041751,41.0763643 39.3508435,41.6563672 C39.6975119,42.2363701 39.8708435,42.8663638 39.8708435,43.5463672 C39.8708435,44.1197034 39.7475114,44.659698 39.5008435,45.1663672 C39.2541756,45.6730364 38.9075124,46.1163653 38.4608435,46.4963672 C38.0141746,46.8763691 37.4841799,47.1763661 36.8708435,47.3963672 C36.2575071,47.6163683 35.5841805,47.7263672 34.8508435,47.7263672 C34.1175065,47.7263672 33.4441799,47.6163683 32.8308435,47.3963672 C32.2175071,47.1763661 31.6875124,46.8763691 31.2408435,46.4963672 C30.7941746,46.1163653 30.4475114,45.6730364 30.2008435,45.1663672 C29.9541756,44.659698 29.8308435,44.1197034 29.8308435,43.5463672 Z M31.7308435,43.5463672 C31.7308435,43.8797022 31.8075094,44.1896991 31.9608435,44.4763672 C32.1141776,44.7630353 32.3275088,45.0130328 32.6008435,45.2263672 C32.8741782,45.4397016 33.2008416,45.6096999 33.5808435,45.7363672 C33.9608454,45.8630345 34.3841745,45.9263672 34.8508435,45.9263672 C35.3041791,45.9263672 35.7241749,45.8630345 36.1108435,45.7363672 C36.4975121,45.6096999 36.8275088,45.4397016 37.1008435,45.2263672 C37.3741782,45.0130328 37.5875094,44.7630353 37.7408435,44.4763672 C37.8941776,44.1896991 37.9708435,43.8797022 37.9708435,43.5463672 C37.9708435,43.2130322 37.8941776,42.9030353 37.7408435,42.6163672 C37.5875094,42.3296991 37.3741782,42.0797016 37.1008435,41.8663672 C36.8275088,41.6530328 36.4975121,41.4830345 36.1108435,41.3563672 C35.7241749,41.2296999 35.3041791,41.1663672 34.8508435,41.1663672 C34.3841745,41.1663672 33.9608454,41.2296999 33.5808435,41.3563672 C33.2008416,41.4830345 32.8741782,41.6530328 32.6008435,41.8663672 C32.3275088,42.0797016 32.1141776,42.3296991 31.9608435,42.6163672 C31.8075094,42.9030353 31.7308435,43.2130322 31.7308435,43.5463672 Z M32.1108435,37.2463672 C32.1108435,37.539702 32.1808428,37.8163659 32.3208435,38.0763672 C32.4608442,38.3363685 32.6541756,38.5596996 32.9008435,38.7463672 C33.1475114,38.9330348 33.4375085,39.0830333 33.7708435,39.1963672 C34.1041785,39.3097011 34.4641749,39.3663672 34.8508435,39.3663672 C35.2375121,39.3663672 35.6008418,39.3097011 35.9408435,39.1963672 C36.2808452,39.0830333 36.5741756,38.9330348 36.8208435,38.7463672 C37.0675114,38.5596996 37.2608428,38.3363685 37.4008435,38.0763672 C37.5408442,37.8163659 37.6108435,37.539702 37.6108435,37.2463672 C37.6108435,36.9530324 37.5408442,36.6763685 37.4008435,36.4163672 C37.2608428,36.1563659 37.0675114,35.9330348 36.8208435,35.7463672 C36.5741756,35.5596996 36.2808452,35.4097011 35.9408435,35.2963672 C35.6008418,35.1830333 35.2375121,35.1263672 34.8508435,35.1263672 C34.4641749,35.1263672 34.1041785,35.1830333 33.7708435,35.2963672 C33.4375085,35.4097011 33.1475114,35.5596996 32.9008435,35.7463672 C32.6541756,35.9330348 32.4608442,36.1563659 32.3208435,36.4163672 C32.1808428,36.6763685 32.1108435,36.9530324 32.1108435,37.2463672 Z M45.9108435,36.7263672 C45.8708433,37.486371 45.6175125,38.0463654 45.1508435,38.4063672 C44.6841745,38.766369 44.1041803,38.9463672 43.4108435,38.9463672 C42.7175067,38.9463672 42.1375125,38.766369 41.6708435,38.4063672 C41.2041745,38.0463654 40.9508437,37.486371 40.9108435,36.7263672 C40.8975101,36.6197 40.8908435,36.4397018 40.8908435,36.1863672 C40.8908435,35.9330326 40.8975101,35.7530344 40.9108435,35.6463672 C40.9241769,35.273032 41.0041761,34.9463686 41.1508435,34.6663672 C41.2975109,34.3863658 41.487509,34.1563681 41.7208435,33.9763672 C41.954178,33.7963663 42.2141754,33.659701 42.5008435,33.5663672 C42.7875116,33.4730334 43.0908419,33.4263672 43.4108435,33.4263672 C43.7308451,33.4263672 44.0341754,33.4730334 44.3208435,33.5663672 C44.6075116,33.659701 44.867509,33.7963663 45.1008435,33.9763672 C45.334178,34.1563681 45.5208428,34.3863658 45.6608435,34.6663672 C45.8008442,34.9463686 45.8841767,35.273032 45.9108435,35.6463672 C45.9241769,35.7530344 45.9308435,35.9330326 45.9308435,36.1863672 C45.9308435,36.4397018 45.9241769,36.6197 45.9108435,36.7263672 Z M42.4308435,36.6263672 C42.4575103,37.0130358 42.5608426,37.2830331 42.7408435,37.4363672 C42.9208444,37.5897013 43.1441755,37.6663672 43.4108435,37.6663672 C43.6775115,37.6663672 43.9008426,37.5897013 44.0808435,37.4363672 C44.2608444,37.2830331 44.3641767,37.0130358 44.3908435,36.6263672 C44.4041769,36.5197 44.4108435,36.3730348 44.4108435,36.1863672 C44.4108435,35.9996996 44.4041769,35.8530344 44.3908435,35.7463672 C44.3641767,35.3996988 44.2608444,35.1397014 44.0808435,34.9663672 C43.9008426,34.793033 43.6775115,34.7063672 43.4108435,34.7063672 C43.1441755,34.7063672 42.9208444,34.793033 42.7408435,34.9663672 C42.5608426,35.1397014 42.4575103,35.3996988 42.4308435,35.7463672 C42.4175101,35.8530344 42.4108435,35.9996996 42.4108435,36.1863672 C42.4108435,36.3730348 42.4175101,36.5197 42.4308435,36.6263672 Z M48.9708435,38.8463672 C48.9441767,39.4463702 48.9308435,40.0063646 48.9308435,40.5263672 C48.9308435,41.0463698 48.9441767,41.6063642 48.9708435,42.2063672 C49.0108437,43.3130394 49.347507,44.2096971 49.9808435,44.8963672 C50.61418,45.5830373 51.5241709,45.9263672 52.7108435,45.9263672 C53.3508467,45.9263672 53.8908413,45.846368 54.3308435,45.6863672 C54.7708457,45.5263664 55.1341754,45.3197018 55.4208435,45.0663672 C55.7075116,44.8130326 55.9275094,44.5230355 56.0808435,44.1963672 C56.2341776,43.8696989 56.3508431,43.5397022 56.4308435,43.2063672 C56.4575103,43.0596998 56.5241763,42.9497009 56.6308435,42.8763672 C56.7375107,42.8030335 56.8441763,42.7663672 56.9508435,42.7663672 L57.8708435,42.7663672 C57.9908441,42.7663672 58.0941764,42.8097001 58.1808435,42.8963672 C58.2675106,42.9830343 58.3108435,43.0863666 58.3108435,43.2063672 C58.2975101,43.6463694 58.1841779,44.1263646 57.9708435,44.6463672 C57.7575091,45.1663698 57.4275124,45.6563649 56.9808435,46.1163672 C56.5341746,46.5763695 55.960847,46.959699 55.2608435,47.2663672 C54.56084,47.5730354 53.7108485,47.7263672 52.7108435,47.7263672 C51.8441725,47.7263672 51.0708469,47.5897019 50.3908435,47.3163672 C49.7108401,47.0430325 49.1275126,46.6663696 48.6408435,46.1863672 C48.1541744,45.7063648 47.7775115,45.1363705 47.5108435,44.4763672 C47.2441755,43.8163639 47.0975103,43.0930378 47.0708435,42.3063672 C47.0308433,41.1196946 47.0308433,39.9330398 47.0708435,38.7463672 C47.0975103,37.97303 47.2441755,37.2530372 47.5108435,36.5863672 C47.7775115,35.9196972 48.1541744,35.3463696 48.6408435,34.8663672 C49.1275126,34.3863648 49.7108401,34.0097019 50.3908435,33.7363672 C51.0708469,33.4630325 51.8441725,33.3263672 52.7108435,33.3263672 C53.7108485,33.3263672 54.56084,33.479699 55.2608435,33.7863672 C55.960847,34.0930354 56.5341746,34.4763649 56.9808435,34.9363672 C57.4275124,35.3963695 57.7575091,35.8863646 57.9708435,36.4063672 C58.1841779,36.9263698 58.2975101,37.406365 58.3108435,37.8463672 C58.3108435,37.9663678 58.2675106,38.0697001 58.1808435,38.1563672 C58.0941764,38.2430343 57.9908441,38.2863672 57.8708435,38.2863672 L56.9508435,38.2863672 C56.8441763,38.2863672 56.7375107,38.2497009 56.6308435,38.1763672 C56.5241763,38.1030335 56.4575103,37.9930346 56.4308435,37.8463672 C56.3508431,37.5130322 56.2341776,37.1830355 56.0808435,36.8563672 C55.9275094,36.5296989 55.7075116,36.2397018 55.4208435,35.9863672 C55.1341754,35.7330326 54.7708457,35.526368 54.3308435,35.3663672 C53.8908413,35.2063664 53.3508467,35.1263672 52.7108435,35.1263672 C51.5241709,35.1263672 50.61418,35.4696971 49.9808435,36.1563672 C49.347507,36.8430373 49.0108437,37.739695 48.9708435,38.8463672 Z" id="18ºC" fill="#434365"></path>
                </g>
                <g id="Group-37" transform="translate(0.000000, 270.000000)">
                    <g id="Rectangle-Copy-34">
                        <use fill="black" fill-opacity="1" filter="url(#filter-16)" xlink:href="#path-15"></use>
                        <use fill="#FFFFFF" fill-rule="evenodd" xlink:href="#path-15"></use>
                    </g>
                    <g id="Group-19-Copy" transform="translate(15.000000, 15.408203)">
                        <path d="M16.1216065,13.6939126 C14.8959935,10.5355031 13.6703805,8.06728956 12.4447675,6.28927195 C13.135928,5.60861595 13.8270885,5.26828796 14.5182491,5.26828796 C16.4454503,5.26828796 18.3726515,7.91431301 20.2998527,13.2063631 C18.6633227,13.4607234 17.2705739,13.6232399 16.1216065,13.6939126 Z M7.70880481,3.86745116 C10.2784064,3.86745116 12.848008,7.36954314 15.4176096,14.3737271 C14.0960571,15.1532215 11.5264555,15.5429687 7.70880481,15.5429688 C3.89115411,15.5429688 1.32155251,15.1532215 1.95399252e-14,14.3737271 C2.5696016,7.36954314 5.13920321,3.86745116 7.70880481,3.86745116 Z" id="Combined-Shape" fill="#0C9F9B"></path>
                        <circle id="Oval" fill="#FED050" cx="13.1049682" cy="2.06873004" r="1.79872112"></circle>
                    </g>
                    <rect id="Rectangle-Copy-38" fill="#EFEFEF" x="40.6933594" y="12.9067383" width="26.3474852" height="8.1913454" rx="1"></rect>
                    <rect id="Rectangle-Copy-47" fill="#EFEFEF" x="40.6933594" y="28.1708984" width="26.3474852" height="8.1913454" rx="1"></rect>
                    <path d="M11.875,43.4350586 L66.0408446,43.4350586 C66.5931294,43.4350586 67.0408446,43.8827738 67.0408446,44.4350586 L67.0408446,50.626404 C67.0408446,51.1786887 66.5931294,51.626404 66.0408446,51.626404 L11.875,51.626404 C11.3227153,51.626404 10.875,51.1786887 10.875,50.626404 L10.875,44.4350586 C10.875,43.8827738 11.3227153,43.4350586 11.875,43.4350586 Z M11.875,57.9658886 L50.6854614,57.9658886 C51.2377461,57.9658886 51.6854614,58.4136038 51.6854614,58.9658886 L51.6854614,65.157234 C51.6854614,65.7095187 51.2377461,66.157234 50.6854614,66.157234 L11.875,66.157234 C11.3227153,66.157234 10.875,65.7095187 10.875,65.157234 L10.875,58.9658886 C10.875,58.4136038 11.3227153,57.9658886 11.875,57.9658886 Z" id="Combined-Shape" fill="#EFEFEF"></path>
                </g>
                <g id="Group-26" transform="translate(143.000000, 270.000000)">
                    <g id="Group-21">
                        <mask id="mask-18" fill="white">
                            <use xlink:href="#path-17"></use>
                        </mask>
                        <g id="Mask">
                            <use fill="black" fill-opacity="1" filter="url(#filter-19)" xlink:href="#path-17"></use>
                            <use fill="#FFFFFF" fill-rule="evenodd" xlink:href="#path-17"></use>
                        </g>
                        <g id="Group-20" mask="url(#mask-18)">
                            <g transform="translate(12.500000, 10.093750)">
                                <g id="Group-3" stroke-width="1" fill="none" transform="translate(38.382444, 4.410288)">
                                    <mask id="mask-21" fill="white">
                                        <use xlink:href="#path-20"></use>
                                    </mask>
                                    <g id="Clip-2"></g>
                                    <path d="M14.041167,0.279684902 L12.9311901,12.1147304 C12.5934971,15.7160899 9.44381924,18.6398907 5.90206114,18.6398907 C2.36030303,18.6398907 -0.240940359,15.7160899 0.0968251459,12.1147304 L1.20672955,0.279684902 L14.041167,0.279684902 Z M10.5487267,3.59353819 L9.86349143,10.9001071 C9.6549951,13.1234645 7.7104536,14.9285256 5.52395786,14.9285256 C3.3373897,14.9285256 1.73148273,13.1234645 1.93997906,10.9001071 L2.62521431,3.59353819 L10.5487267,3.59353819 Z" id="Fill-1" fill="#FED050" mask="url(#mask-21)"></path>
                                </g>
                                <g id="Group-6" stroke-width="1" fill="none" transform="translate(0.000000, 4.410288)">
                                    <mask id="mask-23" fill="white">
                                        <use xlink:href="#path-22"></use>
                                    </mask>
                                    <g id="Clip-5"></g>
                                    <path d="M0,0.279684902 L1.1099044,12.1147304 C1.44766991,15.7160899 4.59734773,18.6398907 8.13903341,18.6398907 C11.6807915,18.6398907 14.2820349,15.7160899 13.9443418,12.1147304 L12.834365,0.279684902 L0,0.279684902 Z M3.49244028,3.59353819 L4.17767554,10.9001071 C4.38617187,13.1234645 6.33064095,14.9285256 8.51720911,14.9285256 C10.7037773,14.9285256 12.3096842,13.1234645 12.1011879,10.9001071 L11.4159527,3.59353819 L3.49244028,3.59353819 Z" id="Fill-4" fill="#FED050" mask="url(#mask-23)"></path>
                                </g>
                                <g id="Group-9" stroke-width="1" fill="none" transform="translate(21.001715, 29.757184)">
                                    <mask id="mask-25" fill="white">
                                        <use xlink:href="#path-24"></use>
                                    </mask>
                                    <g id="Clip-8"></g>
                                    <polygon id="Fill-7" fill="#FFBC4C" mask="url(#mask-25)" points="2.32575883 0.14983637 0.382303624 16.9841589 10.7336866 16.960188 8.50272517 0.0629327238"></polygon>
                                </g>
                                <g id="Group-12" stroke-width="1" fill="none" transform="translate(10.862956, 0.065105)">
                                    <mask id="mask-27" fill="white">
                                        <use xlink:href="#path-26"></use>
                                    </mask>
                                    <g id="Clip-11"></g>
                                    <path d="M10.6073142,32.6651253 C4.54817475,30.6368666 0.168955172,24.83221 0.168955172,17.9957174 L0.168955172,0.659091737 L30.5374344,0.659091737 L30.5374344,17.9957174 C30.5374344,24.83221 26.1582872,30.6368666 20.0990753,32.6651253 C16.905656,33.3992439 13.741277,33.410831 10.6073142,32.6651253 Z" id="Fill-10" fill="#FED050" mask="url(#mask-27)"></path>
                                </g>
                                <g id="Group-15" stroke-width="1" fill="none" transform="translate(10.138759, 44.965323)">
                                    <mask id="mask-29" fill="white">
                                        <use xlink:href="#path-28"></use>
                                    </mask>
                                    <g id="Clip-14"></g>
                                    <polygon id="Fill-13" fill="#FED050" mask="url(#mask-29)" points="0.251296377 13.759744 32.3271425 13.759744 32.3271425 0.0246226998 0.251296377 0.0246226998"></polygon>
                                </g>
                                <polygon id="Fill-16" fill="#F5A623" points="14.4610564 55.5101386 38.3948275 55.5101386 38.3948275 48.2048732 14.4610564 48.2048732"></polygon>
                                <polygon id="Fill-18" fill="#FED050" points="19.6439899 52.7549309 33.2119665 52.7549309 33.2119665 50.9600809 19.6439899 50.9600809"></polygon>
                                <path d="M25.8977211,8.02613109 C25.9529773,7.89736885 26.0780462,7.81415861 26.2161505,7.81415861 C26.3543273,7.81415861 26.4793238,7.89736885 26.5346524,8.02613109 L28.7976958,13.2948819 L34.4249966,13.8552656 C34.5625216,13.8689529 34.6789725,13.9641848 34.7216277,14.0977992 C34.7643553,14.2313411 34.7251762,14.377991 34.6218333,14.4712676 L30.3931743,18.2879309 L31.6080149,23.9029927 C31.6377069,24.0402281 31.5846233,24.1822431 31.4728797,24.2648016 C31.3610637,24.3473601 31.2118067,24.3548193 31.0926762,24.2837031 L26.2161505,21.3737345 L21.3396973,24.2837031 C21.2204944,24.3548193 21.0712374,24.3473601 20.9594938,24.2648016 C20.8477502,24.1822431 20.7946666,24.0402281 20.8243587,23.9029927 L22.0391268,18.2879309 L17.8105402,14.4712676 C17.7071973,14.377991 17.6680182,14.2313411 17.7106734,14.0977992 C17.7534011,13.9641848 17.8698519,13.8689529 18.007377,13.8552656 L23.6346053,13.2948819 L25.8977211,8.02613109 Z" id="Fill-19" fill="#F5A623"></path>
                            </g>
                        </g>
                    </g>
                </g>
                <g id="Group-36" transform="translate(278.000000, 270.000000)">
                    <g id="Rectangle-Copy-32">
                        <use fill="black" fill-opacity="1" filter="url(#filter-31)" xlink:href="#path-30"></use>
                        <use fill="#FFFFFF" fill-rule="evenodd" xlink:href="#path-30"></use>
                    </g>
                    <g id="Group-23" transform="translate(11.000000, 14.000000)">
                        <g id="Group-22-Copy" transform="translate(37.582922, 13.866494) scale(-1, 1) translate(-37.582922, -13.866494) translate(18.582922, 0.866494)">
                            <path d="M10.8510714,19.4551585 L4.02243585,25.1350198 L4.02243585,18.7759136 C2.10604313,17.7741436 0.798100326,15.7673943 0.798100326,13.4551585 L0.798100326,6.35304628 C0.798100326,3.03933778 3.48439183,0.35304628 6.79810033,0.35304628 L31.4099102,0.35304628 C34.7236187,0.35304628 37.4099102,3.03933778 37.4099102,6.35304628 L37.4099102,13.4551585 C37.4099102,16.768867 34.7236187,19.4551585 31.4099102,19.4551585 L10.8510714,19.4551585 Z" id="Combined-Shape" fill-opacity="0.302875906" fill="#3277DC"></path>
                            <path d="M10.3153902,12.744033 C8.70696968,12.744033 7.40308718,11.442595 7.40308718,9.83718987 C7.40308718,8.23178472 8.70696968,6.9303467 10.3153902,6.9303467 C11.9238108,6.9303467 13.2276933,8.23178472 13.2276933,9.83718987 C13.2276933,11.442595 11.9238108,12.744033 10.3153902,12.744033 Z M19.1673868,12.744033 C17.5589663,12.744033 16.2550838,11.442595 16.2550838,9.83718987 C16.2550838,8.23178472 17.5589663,6.9303467 19.1673868,6.9303467 C20.7758074,6.9303467 22.0796899,8.23178472 22.0796899,9.83718987 C22.0796899,11.442595 20.7758074,12.744033 19.1673868,12.744033 Z M28.0193834,12.744033 C26.4109629,12.744033 25.1070804,11.442595 25.1070804,9.83718987 C25.1070804,8.23178472 26.4109629,6.9303467 28.0193834,6.9303467 C29.627804,6.9303467 30.9316865,8.23178472 30.9316865,9.83718987 C30.9316865,11.442595 29.627804,12.744033 28.0193834,12.744033 Z" id="Combined-Shape" fill="#FFFFFF"></path>
                        </g>
                        <g id="Group-22" transform="translate(0.417078, 25.335154)">
                            <path d="M10.8510714,19.4551585 L4.02243585,25.1350198 L4.02243585,18.7759136 C2.10604313,17.7741436 0.798100326,15.7673943 0.798100326,13.4551585 L0.798100326,6.35304628 C0.798100326,3.03933778 3.48439183,0.35304628 6.79810033,0.35304628 L31.4099102,0.35304628 C34.7236187,0.35304628 37.4099102,3.03933778 37.4099102,6.35304628 L37.4099102,13.4551585 C37.4099102,16.768867 34.7236187,19.4551585 31.4099102,19.4551585 L10.8510714,19.4551585 Z" id="Combined-Shape" fill="#3277DC"></path>
                            <path d="M10.3153902,12.744033 C8.70696968,12.744033 7.40308718,11.442595 7.40308718,9.83718987 C7.40308718,8.23178472 8.70696968,6.9303467 10.3153902,6.9303467 C11.9238108,6.9303467 13.2276933,8.23178472 13.2276933,9.83718987 C13.2276933,11.442595 11.9238108,12.744033 10.3153902,12.744033 Z M19.1673868,12.744033 C17.5589663,12.744033 16.2550838,11.442595 16.2550838,9.83718987 C16.2550838,8.23178472 17.5589663,6.9303467 19.1673868,6.9303467 C20.7758074,6.9303467 22.0796899,8.23178472 22.0796899,9.83718987 C22.0796899,11.442595 20.7758074,12.744033 19.1673868,12.744033 Z M28.0193834,12.744033 C26.4109629,12.744033 25.1070804,11.442595 25.1070804,9.83718987 C25.1070804,8.23178472 26.4109629,6.9303467 28.0193834,6.9303467 C29.627804,6.9303467 30.9316865,8.23178472 30.9316865,9.83718987 C30.9316865,11.442595 29.627804,12.744033 28.0193834,12.744033 Z" id="Combined-Shape" fill="#FFFFFF"></path>
                        </g>
                    </g>
                </g>
                <g id="Group-35" transform="translate(423.000000, 270.000000)">
                    <g id="Rectangle-Copy-31">
                        <use fill="black" fill-opacity="1" filter="url(#filter-33)" xlink:href="#path-32"></use>
                        <use fill="#FFFFFF" fill-rule="evenodd" xlink:href="#path-32"></use>
                    </g>
                    <g id="Group-6" transform="translate(20.402344, 18.879166)">
                        <path d="M12.6780504,32.1964766 C14.7390547,31.7406858 16.791777,33.0864686 17.2591768,35.1999253 C17.7265766,37.3134528 16.4328214,39.3993738 14.3718879,39.8551647 C12.3108836,40.3109555 10.2581612,38.9651726 9.79076146,36.8516452 C9.3233617,34.7381884 10.6171169,32.6522675 12.6780504,32.1964766 Z" id="Clip-2" fill="#F5A623"></path>
                        <path d="M0.075740988,36.6230773 C0.075740988,36.6230773 4.35454052,30.8751149 3.10835352,24.9742549 C0.241026228,11.3975766 4.58948029,2.94071945 12.1640625,1.03880312 C19.7386447,-0.863113197 28.62528,5.17563138 31.7383762,18.6424498 C33.096759,24.5185348 39.4003912,27.9261006 39.4003912,27.9261006 C39.5224262,29.9302638 29.9724786,32.6526214 20.3159274,34.8874053 C10.6593761,37.1221891 0.798748887,38.462663 0.075740988,36.6230773 Z" id="Clip-5" fill="#FED050"></path>
                    </g>
                </g>
            </g>
        </g>
    </g>
</svg>