<svg xmlns="http://www.w3.org/2000/svg" xmlns:xlink="http://www.w3.org/1999/xlink"
    xmlns:serif="http://www.serif.com/" width="100%" height="100%" viewBox="0 0 996 916"
    version="1.1" xml:space="preserve"
    style="fill-rule:evenodd;clip-rule:evenodd;stroke-linecap:round;stroke-linejoin:round;stroke-miterlimit:1.5;"><rect id="Pricing-Page-V1R" serif:id="Pricing Page V1R" x="0.35" y="0.052" width="995.293" height="915.944" style="fill:none;"/><clipPath id="_clip1"><rect x="0.35" y="0.052" width="995.293" height="915.944"/></clipPath><g clip-path="url(#_clip1)"><rect id="Background" x="0.824" y="0.319" width="996.241" height="915.677" style="fill:#fff;"/><g><path d="M602.248,223.397c-89.917,-24.798 -157.097,-138.258 -256.176,-66.079c-52.022,37.899 -4.958,109.739 -65.074,129.986c-206.908,69.688 32.221,204.293 -29.269,269.466c-65.817,69.761 -29.517,188.857 51.14,179.618c98.055,-11.233 102.628,44.381 159.039,61.751c53.459,16.461 178.375,19.112 215.17,-64.153c31.728,-71.799 118.012,-39.281 120.167,-102.638c4.132,-121.476 -148.735,-138.398 -31.205,-259.446c51.993,-53.55 28.494,-105.715 3.474,-130.037c-39.377,-38.279 -110.989,-2.948 -167.266,-18.468Z" style="fill:#f5faff;"/><g id="Spiral"><g opacity="0.401239"><path d="M570.921,343.853c-61.762,-38.222 -142.936,-19.112 -181.159,42.65c-38.222,61.762 -19.111,142.937 42.651,181.159c61.761,38.223 142.936,19.112 181.159,-42.65c38.222,-61.762 19.111,-142.936 -42.651,-181.159Z" style="fill:none;stroke:#adc9f1;stroke-opacity:0.698278;stroke-width:2.5px;stroke-dasharray:50,25,0,0;"/><circle cx="501.667" cy="455.758" r="159.302" style="fill:none;stroke:#adc9f1;stroke-opacity:0.600102;stroke-width:2.5px;stroke-dasharray:62.5,25,0,0;"/><circle cx="501.667" cy="455.758" r="190.809" style="fill:none;stroke:#adc9f1;stroke-opacity:0.5;stroke-width:2.5px;stroke-dasharray:62.5,25,0,0;"/><circle cx="501.667" cy="455.758" r="230.608" style="fill:none;stroke:#adc9f1;stroke-opacity:0.403216;stroke-width:2.5px;stroke-dasharray:62.5,25,0,0;"/><circle cx="501.667" cy="455.758" r="278.708" style="fill:none;stroke:#adc9f1;stroke-opacity:0.304969;stroke-width:2.5px;stroke-dasharray:62.5,25,0,0;"/><circle cx="501.667" cy="455.758" r="336.841" style="fill:none;stroke:#adc9f1;stroke-opacity:0.195714;stroke-width:2.5px;stroke-dasharray:62.5,25,0,0;"/><circle cx="501.667" cy="455.758" r="407.099" style="fill:none;stroke:#adc9f1;stroke-opacity:0.0972314;stroke-width:2.5px;stroke-dasharray:62.5,25,0,0;"/><path d="M411.566,512.39c31.256,49.729 97.005,64.725 146.733,33.469c49.729,-31.256 64.726,-97.006 33.469,-146.734c-31.256,-49.728 -97.005,-64.725 -146.734,-33.469c-49.728,31.257 -64.725,97.006 -33.468,146.734Z" style="fill:none;stroke:#adc9f1;stroke-width:2.5px;stroke-dasharray:37.5,25,0,0;"/><circle cx="501.667" cy="455.758" r="85.932" style="fill:none;stroke:#adc9f1;stroke-width:2.5px;stroke-dasharray:25,12.5,0,0;"/></g></g><path d="M653.433,736.435c-49.031,-0.477 -88.913,6.938 -89.007,16.549c-0.093,9.611 39.637,17.801 88.668,18.278c49.03,0.477 88.913,-6.938 89.006,-16.549c0.094,-9.611 -39.637,-17.801 -88.667,-18.278Z" style="fill:#dae7f9;"/><path d="M519.713,739.704c-46.352,-0.451 -84.06,6.986 -84.154,16.597c-0.094,9.61 37.463,17.779 83.816,18.23c46.352,0.451 84.06,-6.985 84.154,-16.596c0.093,-9.611 -37.463,-17.78 -83.816,-18.231Z" style="fill:#dae7f9;"/><path d="M370.512,737.041c-52.024,-0.506 -94.336,6.885 -94.43,16.496c-0.093,9.611 42.068,17.824 94.091,18.33c52.024,0.507 94.337,-6.885 94.43,-16.496c0.094,-9.61 -42.067,-17.824 -94.091,-18.33Z" style="fill:#dae7f9;"/><path d="M589.37,350.038l-23.334,-3.199l-1.269,35.582l25.39,15.195l-0.787,-47.578Z" style="fill:#007c75;"/><path d="M382.745,725.428l1.381,14.605l22.595,-1.777l2.844,-14.338l-26.82,1.51Z" style="fill:#bc0045;"/><path d="M317.025,721.749c0,0 -0.991,11.554 0.053,12.335c1.043,0.78 3.394,0.661 5.223,-1.931c1.829,-2.592 6.122,-5.865 8.538,-6.565l-13.814,-3.839Z" style="fill:#bc0045;"/><path d="M406.165,730.267c0,0 -8.524,0.205 -12.597,2.403c-4.073,2.199 -8.505,2.376 -10.593,2.141c0,0 -4.848,11.203 -3.476,16.25c0,0 -3.486,6.447 -2.162,8.276l62.939,0.665c0,0 3.343,-8.358 -6.437,-10.17c0,0 -5.37,-0.931 -11.959,-9.005c0,0 -5.473,-6.175 -10.739,-10.112l-4.976,-0.448Z"/><path d="M341.537,725.942c0,0 5.318,12.439 11.089,17.662c0,0 6.051,3.833 7.279,6.217c1.228,2.383 1.487,8.131 -1.359,8.446c-2.847,0.314 -34.875,1.343 -37.856,0.679c-2.981,-0.664 -7.445,-1.522 -7.252,-4.597c0.193,-3.076 0.164,-6.252 0.877,-10.106c0,0 -1.049,-11.517 1.292,-14.455c0,0 2.857,-4.884 25.93,-3.846Z"/><path d="M437.713,456.276c0,0 0.831,54.802 -2.727,86.575c-3.557,31.772 -8.379,69.183 -5.687,79.888c2.691,10.704 3.591,39.832 2.9,48.536c0,0 1.192,13.352 -1.403,18.819c0,0 -0.814,11.865 -2.073,16.404c0,0 0.438,20.936 0.654,23.565c0,0 -11.642,0.79 -19.606,0.353c-7.963,-0.438 -29.7,-1.438 -32.631,-1.481c0,0 -2.406,-16.786 -0.214,-24.031c0,0 -3.511,-35.219 1.715,-49.843c0,0 -4.027,-10.335 1.909,-31.25c0,0 -0.605,-24.74 3.723,-27.893c0,0 -4.67,-28.799 -1.244,-37.83c0,0 1.992,-8.437 -3.626,-16.426l14.779,-99.018l43.531,13.632Z" style="fill:url(#_Linear2);"/><path d="M482.816,301.128c0,0 -2.355,70.763 -38.906,82.744c0,0 5.947,-57.708 8.491,-60.746c0,0 10.019,-16.098 30.415,-21.998Z" style="fill:url(#_Linear3);"/><path d="M342.273,435.255c0,0 -11.382,-8.505 -11.244,-9.915c0.138,-1.409 0.956,-3.663 4.299,-3.966c3.343,-0.304 10.063,4.927 10.063,4.927l-3.118,8.954Z" style="fill:#a30001;"/><path d="M401.126,442.682c0,0 -5.235,67.49 -22.418,109.438l-5.322,12.633c0,0 -6.64,37.429 -8.319,45.955c-1.679,8.527 -8.789,36.735 -8.789,36.735c0,0 -2.734,34.9 -7.979,44.871c0,0 0.261,30.924 -3.185,34.399c0,0 -5.219,2.741 -13.257,1.579c-8.038,-1.162 -14.739,-4.225 -14.739,-4.225c0,0 -11.542,0.324 -17.547,-3.356c0,0 0.411,-14.028 4.412,-16.776c0,0 1.695,-12.042 1.065,-19.421c-0.63,-7.379 2.959,-39.889 8.581,-52.954c0,0 1.272,-12.275 4.274,-15.272c0,0 -0.333,-8.044 2.351,-11.718c0,0 0.153,-7.183 2.797,-9.554c0,0 0.396,-4.864 2.592,-12.18l1.924,-20.381c0,0 -6.428,-26.442 2.459,-72.565c0,0 5.409,-30.499 6.959,-35.914c0,0 3.424,-24.067 3.451,-31.997l60.69,20.703Z" style="fill:url(#_Linear4);"/><path d="M389.656,270.424l-12.505,-15.915c0,0 2.474,-30.799 -2.4,-33.435c0,0 -0.748,-16.865 -5.088,-20.72c0,0 2.16,-27.18 -5.09,-30.218c0,0 -18.039,-3.612 -23.333,1.021c-1.327,0.797 -2.201,2.015 -2.412,3.85c0,0 -0.539,35.119 1.065,44.252c0,0 -0.375,21.748 4.071,31.287c0,0 0.365,17.802 3.248,20.543c0,0 -0.764,19 1.926,27.511c0,0 2.953,26.661 1.97,34.606c-0.983,7.946 -4.805,44.665 -4.807,55.405c0,0 -2.295,21.418 -14.538,34.854c0,0 39.013,13.031 71.398,24.695c32.386,11.664 37.883,11.463 37.905,11.418c0.023,-0.046 0.408,-19.864 0.135,-32.985c-0.274,-13.121 1.007,-25.049 1.835,-28.56c0.829,-3.51 5.558,-15.776 5.007,-17.216c-0.551,-1.44 6.766,-14.118 2.697,-24.347c0,0 5.545,-29.793 8.821,-33.415c3.276,-3.621 12.956,-17.838 12.956,-17.838c0,0 -9.829,-3.602 -17.352,-9.585c-3.171,-2.522 -8.475,-3.508 -12.952,-2.535l-1.148,-6.68l-35.506,-11.501l-15.903,-4.492Z" style="fill:url(#_Linear5);"/><path d="M436.121,278.087l-20.323,-0.589l9.392,17.541l9.01,-4.324l1.921,-12.628Z" style="fill:#ffba42;"/><path d="M437.826,275.386c0,0 10.53,4.876 9.65,14.025c0,0 -12.26,3.674 -21.984,5.638c0,0 11.773,-10.508 10.793,-17.597l1.541,-2.066Z" style="fill:#0d44d4;"/><path d="M436.896,211.335c0,0 -36.14,-3.898 -34.854,24.684l-0.105,2.805c0,0 -6.209,-1.716 -5.397,4.643c0.813,6.36 5.77,11.453 7.577,13.138l-1.057,11.451c0,0 13.283,16.527 24.246,16.181c10.962,-0.346 15.304,-11.578 15.915,-12.432c0.611,-0.853 11.552,-22.98 9.968,-25.732l-1.95,0.383c0,0 8.278,-22.188 -3.04,-26.618c0,0 -2.31,-4.993 -11.303,-8.503Z" style="fill:url(#_Linear6);"/><clipPath id="_clip7"><path d="M436.896,211.335c0,0 -36.14,-3.898 -34.854,24.684l-0.105,2.805c0,0 -6.209,-1.716 -5.397,4.643c0.813,6.36 5.77,11.453 7.577,13.138l-1.057,11.451c0,0 13.283,16.527 24.246,16.181c10.962,-0.346 15.304,-11.578 15.915,-12.432c0.611,-0.853 11.552,-22.98 9.968,-25.732l-1.95,0.383c0,0 8.278,-22.188 -3.04,-26.618c0,0 -2.31,-4.993 -11.303,-8.503Z"/></clipPath><g clip-path="url(#_clip7)"><path d="M447.161,224.3c0,0 -5.542,-1.026 -7.383,1.118c0,0 -1.425,-3.209 -10.393,-2.959c-8.967,0.251 -12.654,-1.518 -14.011,4.7c-1.358,6.217 -5.823,16.395 -6.749,18.575c0,0 -5.135,-6.061 -9.735,-8.935l8.699,-23.745l18.307,-7.914l9.405,1.92l14.972,4.35l6.686,9.005l0.419,17.348l-8.052,10.872c0,0 2.322,-15.119 1.472,-17.429c-0.76,-2.068 -0.603,0.177 -3.637,-6.906Z" style="fill:url(#_Linear8);"/></g><path d="M364.835,156.68c-0.617,7.335 -1.153,14.214 -0.698,21.212c0,0 -2.744,3.768 -9.894,3.648c-10.64,-0.178 -11.437,-7.403 -11.437,-7.403c0.677,-3.961 1.219,-9.324 1.073,-14.727c-0.187,-6.954 16.401,-12.588 20.198,-6.235c0.545,0.911 0.827,2.069 0.758,3.505Z" style="fill:url(#_Linear9);"/><path d="M363.554,143.53l-0.553,17.206c0,0 -2.428,4.245 -8.29,4.082c-5.861,-0.164 -8.955,-5.087 -8.955,-5.087l0.952,-22.068c0,0 5.669,-0.878 16.846,5.867Z" style="fill:url(#_Linear10);"/><path d="M353.258,114.922c0,0 -14.178,24.488 -2.072,28.535c12.107,4.047 21.352,-1.653 21.265,-1.427c-0.088,0.226 11.241,-4.215 12.279,-4.715c1.038,-0.501 9.19,-6.939 8.359,-8.638c-0.831,-1.699 -6.088,-0.469 -9.653,2.719c-3.564,3.188 -3.071,1.547 -6.987,0.804l0.894,-5.253c0,0 2.518,-4.941 4.342,-7.807c1.824,-2.867 10.023,-14.595 6.565,-17.796c0,0 -1.564,-1.811 -5.977,6.183l-6.805,10.311c-0.73,-0.626 -1.29,-1.099 -2.035,-1.648c0,0 7.282,-13.098 7.583,-21.725c0,0 -2.426,-3.929 -4.473,-0.433c-2.048,3.496 -5.459,15.862 -8.415,19.928c0,0 -0.851,-1.119 0.349,-10.485l0.959,-8.707c0,0 1.483,-4.089 -0.985,-4.735c-2.627,-0.688 -4.521,4.729 -7.281,22.724l-1.707,0.434c0,0 -0.773,-7.739 0.743,-12.881c0,0 1.411,-4.738 -0.704,-4.965c-2.115,-0.227 -4.889,4.924 -5.321,10.48c-0.432,5.555 -0.923,9.097 -0.923,9.097Z" style="fill:url(#_Linear11);"/><ellipse cx="424.005" cy="367.336" rx="8.665" ry="8.682" style="fill:url(#_Linear12);"/><path d="M391.451,265.132c0,0 30.361,29.402 35.364,81.255l-2.212,9.73c0,0 -5.503,-0.839 -8.103,-11.317c-2.6,-10.478 -4.445,-25.989 -8.296,-36.127c-2.655,-6.99 -19.22,-36.525 -16.753,-43.541Z" style="fill:url(#_Linear13);"/><path d="M442.499,291.889c0,0 6.625,11.953 5.075,25.671c-1.549,13.719 -7.111,32.404 -23.011,38.41c0,0 0.211,-10.534 3.5,-16.183c3.289,-5.649 12.719,-24.695 14.436,-47.898Z" style="fill:url(#_Linear14);"/><path d="M558.052,710.126l3.47,17.289l-11.766,10.087l-12.153,-1.734c0,0 1.164,-19.177 0.837,-24.699l19.612,-0.943Z" style="fill:url(#_Linear15);"/><path d="M403.906,257.86c0,0 -12.626,4.017 -16.692,12.724c0,0 27.9,13.128 33.638,19.602l4.371,5.486c0,0 0.731,-7.213 -7.798,-16.235c-8.529,-9.023 -15.105,-14.352 -13.519,-21.577Z" style="fill:url(#_Linear16);"/><path d="M492.401,713.416l0.415,22.152l-18.456,2.213l-5.712,-20.744l23.753,-3.621Z" style="fill:url(#_Linear17);"/><path d="M563.852,725.191c0,0 13.645,15.991 21.064,19.526c0,0 12.5,2.914 10.444,11.931c0,0 -49.159,2.629 -58.858,0.349l-0.364,-6.754c0,0 -0.172,-17.259 1.52,-22.089c0,0 1.893,5.541 5.488,5.135c3.596,-0.405 10.738,-2.092 13.092,-6.945c0,0 4.053,-3.531 7.614,-1.153Z"/><path d="M495.487,743.019c0,0 5.935,8.012 4.756,16.365c0,0 -26.266,1.529 -32.165,-0.136c0,0 -1.416,-6.348 -0.412,-13.607c0,0 3.592,-12.643 4.753,-14.612c0,0 1.68,2.976 6.432,2.718c0,0 11.771,-6.688 15.013,0.125l1.623,9.147Z"/><path d="M556.037,464.397c0,0 6.189,37.237 6.453,54.858c0.264,17.62 -0.113,48.06 -2.824,66.95c0,0 -1.722,20.705 -0.742,27.083c0.979,6.377 1.535,16.45 2.477,23.068c0.942,6.618 1.472,35.582 1.655,40.794c0,0 4.23,14.12 2.397,30.295l3.332,7.963c0,0 -3.13,0.594 -13.843,0.879c-10.713,0.284 -18.512,-0.516 -18.512,-0.516c0,0 0.95,-2.598 -1.161,-7.382c-2.112,-4.784 -3.001,-14.948 -3.202,-16.496c-0.2,-1.549 -2.869,-6.518 -3.524,-9.093c-0.655,-2.575 -5.541,-31.588 -5.414,-35.841c0,0 -2.896,-10.827 -2.799,-14.47c0.098,-3.643 -1.347,-19.45 -1.782,-23.691c-0.436,-4.242 -6.378,-36.874 -6.781,-42.28c-0.403,-5.405 -0.425,-22.496 -6.435,-36.006l10.677,-55.925l40.028,-10.19Z" style="fill:url(#_Linear18);"/><path d="M521.472,473.619c0,0 1.208,33.528 -15,71.791l-3.44,17.224c0,0 -0.632,53.315 -7.047,58.791c0,0 2.857,29.063 -0.224,58.362l-0.826,38.535c0,0 -16.357,-3.986 -24.327,6.021l-12.028,-0.958l-0.214,-23.806c0,0 -1.455,-8.614 -3.274,-12.456c-1.82,-3.842 2.059,-17.949 3.721,-20.799c1.662,-2.849 -0.404,-74.316 -0.404,-74.316c0,0 -0.183,-113.27 5.897,-128.212l57.166,9.823Z" style="fill:url(#_Linear19);"/><path d="M570.568,326.578c0,0 10.191,67.757 -11.085,79.585l-9.543,-4.869c0,0 6.548,-50.041 20.628,-74.716Z" style="fill:#bc0045;"/><path d="M584.95,391.416l-14.177,-11.864l-17.847,23.011c9.997,7.462 22.265,14.508 30.14,16.743l1.884,-27.89Z" style="fill:#bc0045;"/><path d="M546.692,306.318c0,0 -41.067,-11.45 -46.834,-10.535c-5.766,0.915 -21.576,7.049 -21.576,7.049c0,0 -27.095,61.873 -10.789,92.693c0,0 10.657,23.288 0.421,38.192c0,0 -4.055,5.597 -4.619,9.596c-0.565,3.999 -8.917,22.197 -1.638,24.198c0,0 16.016,4.965 31.249,6.487c15.233,1.523 47.3,7.644 64.197,-6.859l-0.598,-28.978l4.86,-11.669c0,0 0.988,-3.696 -2.482,-9.72l-3.496,-6.751l-0.081,-8.219c0,0 2.617,-4.523 -0.065,-6.785c0,0 9.856,-16.188 3.243,-19.62c0,0 7.757,-7.707 5.544,-12.258l2.013,-2.697c0,0 6.621,-0.983 6.526,-16.092c0,0 1.043,-12.508 -0.804,-16.367c-1.846,-3.86 -4.817,-12.475 -11.175,-15.215c-6.359,-2.74 -13.896,-6.45 -13.896,-6.45Z" style="fill:url(#_Linear20);"/><path d="M501.613,295.769c0,0 5.862,4.074 7.4,13.811c1.537,9.736 8.771,24.506 10.55,32.617c1.779,8.11 6.222,24.058 7.676,37.407c0,0 3.914,21.512 3.747,25.839c0,0 -1.983,2.48 -6.471,-6.405c0,0 -3.559,-13.218 -4.981,-15.964c0,0 -8.04,-23.515 -9.273,-29.66c0,0 -5.461,-13.229 -6.836,-18.132c0,0 -0.919,-5.017 -3.36,-14.174c0,0 -5.055,-21.966 1.548,-25.339Z" style="fill:url(#_Linear21);"/><path d="M545.116,307.999c0,0 7.868,3.42 4.322,37.29c0,0 -3.39,24.804 -4.236,28.923c-0.845,4.12 -9.676,34.131 -15.396,31.613c0,0 1.403,-21.834 4.048,-34.633c0,0 5.494,-28.18 6.19,-35.601c0,0 3.407,-14.008 1.89,-24.029l3.182,-3.563Z" style="fill:url(#_Linear22);"/><path d="M511.6,280.131c0,0 -5.055,1.258 -6.503,7.415c-1.448,6.156 -2.399,8.342 -2.399,8.342c0,0 16.017,19.012 17.751,30.138l11.232,-13.437l6.792,12.882c0,0 9.723,-13.653 6.201,-31.774l-33.074,-13.566Z" style="fill:url(#_Linear23);"/><path d="M539.564,298.464c0,0 -2.533,10.379 -7.478,12.647c0,0 -8.779,-6.987 -12.553,-18.677l20.031,6.03Z" style="fill:#0d44d4;"/><path d="M554.03,266.549c0,0 8.69,-7.594 3.425,-17.939c-5.264,-10.344 -18.451,-18.046 -18.451,-18.046c0,0 -13.377,-2.371 -22.19,5.303c0,0 -8.598,1.033 -10.126,7.601c-1.528,6.569 -5.412,18.994 -5.326,21.13c0.087,2.135 0.262,15.459 10.196,13.442c0,0 -0.214,9.604 4.045,13.01c0,0 13.95,10.719 18.049,10.791c4.099,0.071 6.874,-0.187 8.673,-3.183c1.8,-2.997 5.127,-9.428 7.049,-11.612c1.922,-2.185 4.52,-3.828 4.656,-20.497Z" style="fill:url(#_Linear24);"/><clipPath id="_clip25"><path d="M554.03,266.549c0,0 8.69,-7.594 3.425,-17.939c-5.264,-10.344 -18.451,-18.046 -18.451,-18.046c0,0 -13.377,-2.371 -22.19,5.303c0,0 -8.598,1.033 -10.126,7.601c-1.528,6.569 -5.412,18.994 -5.326,21.13c0.087,2.135 0.262,15.459 10.196,13.442c0,0 -0.214,9.604 4.045,13.01c0,0 13.95,10.719 18.049,10.791c4.099,0.071 6.874,-0.187 8.673,-3.183c1.8,-2.997 5.127,-9.428 7.049,-11.612c1.922,-2.185 4.52,-3.828 4.656,-20.497Z"/></clipPath><g clip-path="url(#_clip25)"><path d="M555.5,266.737c0,0 2.393,-9.35 -0.941,-9.84c-3.334,-0.489 -6.513,0.111 -14.892,-2.844c-8.379,-2.954 -11.916,-4.544 -13.995,-5.399c-2.08,-0.854 -1.931,6.306 -2.43,7.486c-0.499,1.18 -0.453,-2.737 -3.137,2.546c-2.683,5.283 -2.102,8.629 -4.271,10.075c-2.168,1.446 -0.597,-5.372 -6.886,-5.183c-4.76,0.143 -5.865,3.672 -6.946,6.794c-1.169,3.376 -4.619,-0.609 -4.619,-0.609l1.729,-15.811l5.83,-20.368l21.292,-9.087l25.112,3.578l8.597,9.109l6.838,14.252l-3.818,12.066l-7.463,3.235Z" style="fill:url(#_Linear26);"/></g><path d="M466.131,405.952c0,0 19.74,-0.522 19.248,3.376c0,0 1.235,3.185 -4.889,3.182l-16.089,0.203l1.73,-6.761Z" style="fill:#bc0045;"/><path d="M487.935,416.241c0,0 0.757,-3.096 -2.53,-3.18c-3.286,-0.084 -20.533,0.17 -20.533,0.17l0.092,6.679l19.94,-1.001c0,0 2.992,-0.192 3.031,-2.668Z" style="fill:#bc0045;"/><path d="M466.422,418.969c0,0 -3.301,7.493 1.261,7.461c0,0 12.874,-2.192 16.035,-3.234c0,0 2.978,-2.112 1.39,-4.386l-18.686,0.159Z" style="fill:#bc0045;"/><path d="M477.017,425.389c0,0 1.718,4.886 -3.928,6.246l-4.022,0.37l-1.828,-1.634l0.056,-2.986c0,0 6.675,-1.177 9.722,-1.996Z" style="fill:#bc0045;"/><path d="M473.39,402.936c3.787,-1.739 4.648,-6.772 0.988,-4.987c0,0 -3.144,0.073 -5.711,1.255c0,0 -5.258,8.314 4.723,3.732Z" style="fill:#bc0045;"/><path d="M469.286,398.759c0,0 -8.796,1.808 -7.126,18.563c0,0 -1.519,9.836 6.709,14.87c0,0 14.083,-13.427 0.417,-33.433Z" style="fill:#bc0045;"/><ellipse cx="531.01" cy="417.635" rx="7.463" ry="9.358" style="fill:url(#_Linear27);"/><path d="M672.162,449.603l1.19,8.426c7.981,-0.534 15.67,-2.991 23.016,-7.693l-24.206,-0.733Z" style="fill:#005f56;"/><path d="M674.322,450.812c0,0 2.87,39.499 7.471,55.956c0,0 5.818,27.581 2.611,60.768l0.69,90.994c0,0 15.234,73.29 -2.13,90.865c-11.821,2.063 -21.734,6.16 -36.646,7.362c-1.524,0.123 -3.106,-0.203 -4.802,-1.198l0.591,-13.655c0,0 -2.31,-10.049 -0.185,-30.474c0,0 -0.807,-20.451 -0.419,-28.535l5.083,-46.765c0,0 -2.956,-13.629 0.33,-17.881c0,0 -4.929,-30.751 -8.98,-44.909c0,0 -6.58,-30.847 -9.43,-42.38l-2.662,-10.853l1.332,-62.085l47.146,-7.21Z" style="fill:url(#_Linear28);"/><path d="M634.966,458.141c0,0 1.4,46.22 -9.041,85.444c0,0 1.68,41.219 -1.75,53.529l1.595,98.258c0,0 5.096,17.802 4.997,23.515c0,0 9.542,14.154 2.045,26.263l-27.967,8.838c-3.873,1.514 -5.894,2.47 -8.891,0.422l-4.312,-19.003c0,0 -7.582,-25.315 -3.497,-36.067c0,0 -2.602,-14.179 -3.639,-17.462c0,0 -1.015,-54.675 -2.578,-69.76c0,0 -3.719,-47.05 -5.515,-56.275c0,0 -4.738,-58.651 -2.418,-75.415l4.304,-18.918l56.667,-3.369Z" style="fill:url(#_Linear29);"/><path d="M555.469,313.963c0,0 13.933,-20.52 46.546,-17.532c-0.137,-0.05 45.27,-1.485 45.27,-1.485c0,0 4.361,-2.256 6.307,-2.248c0,0 15.036,-9.989 22.6,-11.956c0,0 2.334,-4.922 4.607,-5.994c0,0 3.577,-5.971 7.439,-8.023c0,0 2.242,-8.451 5.784,-9.217l17.041,-25.192l-0.831,-3.036l1.2,-4.058l-0.265,-3.064l2.602,-1.52l4.996,-20.065c0,0 10.54,-4.042 21.824,3.65l-1.483,17.055c0,0 -2.644,22.681 -5.487,28.554c-2.843,5.874 -7.409,23.696 -30.189,42.902c0,0 0.709,13.989 -5.823,22.439c0,0 -11.192,14.604 -15.177,22.64c0,0 -4.698,22.52 -3.727,35.336c0,0 7.805,45.462 13.34,58.191l4.501,19.025l-18.981,3.779c0,0 -5.837,-0.093 -11.957,1.073c-6.12,1.166 -23.514,6.213 -28.003,7.146c-4.489,0.933 -13.489,1.59 -22.432,1.801c-8.942,0.211 -17.318,0.601 -28.261,1.853c-10.943,1.253 -11.673,1.722 -11.673,1.722c0,0 2.064,-11.478 2.078,-16.18l1.776,-22.085c0,0 -1.888,-36.531 -1.673,-47.4c0,0 2.252,-21.057 -6.118,-33.013l-15.831,-35.098Z" style="fill:url(#_Linear30);"/><path d="M741.095,160.671c0,0 -3.08,32.89 -2.51,45.389c0,0 -5.212,1.145 -10.751,0.164c0,0 -7.349,-2.296 -7.614,-4.055c0,0 4.464,-24.491 3.336,-37.887l-0.539,-10.861l18.078,7.25Z" style="fill:url(#_Linear31);"/><path d="M744.479,157.616c0,0 -5.101,5.581 -8.273,4.977c-6.817,-1.301 -12.05,-3.273 -13.637,-6.359c-2.125,-4.133 -2.579,-15.885 -1.093,-18.177c0,0 2.968,-5.144 1.758,-11.182c0,0 6.735,-3.39 4.758,11.953c0,0 0.95,-0.139 2.379,-3.013c0,0 2.561,-4.937 5.017,-14.473c0,0 1.757,-4.793 4.329,-3.84c1.119,0.415 1.505,2.085 0.898,4.452l-4.334,13.078c0,0 9.549,1.948 11.174,4.794c0,0 6.331,1.982 4.068,6.503c-1.836,3.667 -7.044,11.287 -7.044,11.287Z" style="fill:url(#_Linear32);"/><path d="M752.199,127.637c0,0 0.151,-0.984 0.755,-1.4c0.909,-0.628 2.48,-0.581 3.193,1.168c0,0 2.204,10.057 -4.42,18.082l-3.823,-3.797c0,0 5.576,-3.771 4.295,-14.053Z" style="fill:url(#_Linear33);"/><path d="M745.583,115.53c0,0 -0.718,-0.581 -1.461,-0.568c-0.862,0.014 -1.774,0.685 -1.883,1.704c-0.213,1.978 -2.074,15.317 -5.567,18.57l-1.461,2.678l5.695,1.136c0,0 3.381,-4.869 4.254,-9.651c0,0 2.669,-11.967 0.423,-13.869Z" style="fill:#ee2b5f;"/><path d="M751.529,117.385c-1.809,-0.972 -3.671,0.144 -3.9,2.467c-0.338,3.438 -0.919,15.051 -5.34,18.854l4.846,1.841c0,0 4.124,-3.197 5.466,-16.254c0,0 0.777,-5.913 -1.072,-6.908Z" style="fill:url(#_Linear34);"/><circle cx="650.922" cy="403.267" r="8.549" style="fill:url(#_Linear35);"/><path d="M640.126,294.468c0,0 10.217,9.507 13.254,14.168c0,0 1.196,5.645 1.881,19.476c0,0 1.919,21.403 1.975,29.683c0.055,8.28 0.225,28.913 -7.95,33.034c-3.137,-1.527 -4.508,-6.682 -4.425,-15.121c0,0 0.93,-25.501 0.33,-32.957c-0.6,-7.455 -1.718,-24.011 -1.643,-27.601c0.075,-3.59 -1.743,-10.591 -5.815,-13.364l-6.268,-3.775l8.661,-3.543Z" style="fill:url(#_Linear36);"/><path d="M638.824,291.74l-1.045,15.109c0,0 -4.865,-0.201 -13.688,6.119l-16.763,-10.913c0,0 1.165,-8.451 -0.161,-23.217l0.278,-1.467l31.379,14.369Z" style="fill:url(#_Linear37);"/><path d="M650.421,389.808c0,0 3.319,0.962 -1.816,-16.917c0,0 -12.076,-33.87 -15.669,-40.552c-3.594,-6.682 -10.11,-17.274 -22.026,-30.562c0,0 -3.984,-7.915 -3.067,-11.823c0,0 -6.555,4.948 -6.536,7.882c0.02,2.934 6.001,11.501 8.157,15.065c2.155,3.564 17.36,33.697 19.765,39.84c2.405,6.143 17.309,44.439 21.192,37.067Z" style="fill:url(#_Linear38);"/><path d="M650.503,265.203c0,0 1.311,-5.533 2.398,-12.156c1.087,-6.624 3.01,-18.245 -5.788,-23.175c-8.797,-4.93 -12.251,-9.525 -16.964,-10.43c-4.714,-0.905 -11.845,2.231 -16.375,3.049c-4.53,0.817 -11.627,2.231 -14.601,15.819c-2.975,13.587 -4.743,12.957 -2.61,20.878c2.134,7.922 8.223,12.878 9.329,16.962c1.107,4.084 3.595,10.276 8.694,12.848c1.445,0.728 7.937,4.967 10.343,5.805c6.081,2.119 9.147,2.183 12.668,0.783c3.183,-1.266 3.935,-5.755 5.679,-8.96c1.743,-3.205 7.833,-10.83 7.227,-21.423Z" style="fill:url(#_Linear39);"/><clipPath id="_clip40"><path d="M650.503,265.203c0,0 1.311,-5.533 2.398,-12.156c1.087,-6.624 3.01,-18.245 -5.788,-23.175c-8.797,-4.93 -12.251,-9.525 -16.964,-10.43c-4.714,-0.905 -11.845,2.231 -16.375,3.049c-4.53,0.817 -11.627,2.231 -14.601,15.819c-2.975,13.587 -4.743,12.957 -2.61,20.878c2.134,7.922 8.223,12.878 9.329,16.962c1.107,4.084 3.595,10.276 8.694,12.848c1.445,0.728 7.937,4.967 10.343,5.805c6.081,2.119 9.147,2.183 12.668,0.783c3.183,-1.266 3.935,-5.755 5.679,-8.96c1.743,-3.205 7.833,-10.83 7.227,-21.423Z"/></clipPath><g clip-path="url(#_clip40)"><path d="M652.031,264.709c0,0 -3.671,-3.885 -2.783,-10.542c0.888,-6.658 0.128,-11.215 -1.825,-13.732c-1.953,-2.517 -6.154,-3.055 -11.814,-1.119c-5.659,1.937 -3.803,3.812 -9.611,1.551c-5.808,-2.26 -7.836,-2.505 -11.896,-0.438c-4.061,2.067 -6.592,2.559 -3.876,4.981c2.715,2.421 5.005,3.092 3.1,4.928c-1.906,1.836 -1.928,7.91 -2.696,9.86c-0.768,1.949 -1.339,7.834 -1.339,7.834c0,0 -0.129,-4.209 -3.791,-5.53c-3.663,-1.322 -2.294,-0.349 -5.346,1.06c-3.052,1.41 -1.647,4.244 -4.498,3.255c-2.85,-0.989 -3.866,-13.159 -3.866,-13.159l5.25,-26.167l10.347,-9.432l22.331,-3.253l15.191,3.831l7.128,6.302l4.627,8.588l2.183,14.395l-6.816,16.787Z" style="fill:url(#_Linear41);"/></g><path d="M681.281,757.666c0,0 -30.523,-0.319 -34.91,-0.387c0,0 4.895,-16.368 13.421,-19.135c0,0 11.233,-2.956 21.825,10.369c0,0 2.636,6.714 -0.336,9.153Z"/><path d="M636.74,756.506c0,0 1.367,-13.543 -6.84,-16.28c0,0 -9.019,-0.694 -21.599,6.671c0,0 -7.949,5.993 -7.935,9.562c0,0 24.651,1.049 36.374,0.047Z"/><path d="M598.009,297.569c0,0 0.605,3.962 -3.441,3.53c-4.047,-0.431 -4.711,-1.625 -9.625,-0.825c-4.913,0.8 -0.247,1.291 -6.695,1.969c-6.449,0.677 -6.811,-0.188 -8.567,0.094c-1.756,0.281 -12.304,9.038 -12.304,9.038l-12.167,-5.407l14.591,-5.84c0,0 22.62,-10.187 38.208,-2.559Z" style="fill:url(#_Linear42);"/></g></g><defs><linearGradient id="_Linear2" x1="0" y1="0" x2="1" y2="0" gradientUnits="userSpaceOnUse" gradientTransform="matrix(-14.3008,80.832,80.832,14.3008,406.664,485.404)"><stop offset="0" style="stop-color:#3261db;stop-opacity:1"/><stop offset="1" style="stop-color:#0d44d4;stop-opacity:1"/></linearGradient><linearGradient id="_Linear3" x1="0" y1="0" x2="1" y2="0" gradientUnits="userSpaceOnUse" gradientTransform="matrix(-26.7214,7.3151,7.3151,26.7214,472.346,334.07)"><stop offset="0" style="stop-color:#e4074a;stop-opacity:1"/><stop offset="1" style="stop-color:#bc0045;stop-opacity:1"/></linearGradient><linearGradient id="_Linear4" x1="0" y1="0" x2="1" y2="0" gradientUnits="userSpaceOnUse" gradientTransform="matrix(59.9277,-201.068,-201.068,-59.9277,302.547,720.291)"><stop offset="0" style="stop-color:#0d44d4;stop-opacity:1"/><stop offset="1" style="stop-color:#3261db;stop-opacity:1"/></linearGradient><linearGradient id="_Linear5" x1="0" y1="0" x2="1" y2="0" gradientUnits="userSpaceOnUse" gradientTransform="matrix(-36.9427,-209.529,-209.529,36.9427,396.151,467.54)"><stop offset="0" style="stop-color:#bc0045;stop-opacity:1"/><stop offset="1" style="stop-color:#ef3062;stop-opacity:1"/></linearGradient><linearGradient id="_Linear6" x1="0" y1="0" x2="1" y2="0" gradientUnits="userSpaceOnUse" gradientTransform="matrix(18.8464,-21.8034,-21.8034,-18.8464,426.712,275.18)"><stop offset="0" style="stop-color:#ffd976;stop-opacity:1"/><stop offset="1" style="stop-color:#ffba42;stop-opacity:1"/></linearGradient><linearGradient id="_Linear8" x1="0" y1="0" x2="1" y2="0" gradientUnits="userSpaceOnUse" gradientTransform="matrix(-9.38151,-12.056,-12.056,9.38151,428.938,228.946)"><stop offset="0" style="stop-color:#000;stop-opacity:1"/><stop offset="1" style="stop-color:#424242;stop-opacity:1"/></linearGradient><linearGradient id="_Linear9" x1="0" y1="0" x2="1" y2="0" gradientUnits="userSpaceOnUse" gradientTransform="matrix(-0.59375,20.6953,20.6953,0.59375,355.266,158.985)"><stop offset="0" style="stop-color:#3261db;stop-opacity:1"/><stop offset="1" style="stop-color:#0d44d4;stop-opacity:1"/></linearGradient><linearGradient id="_Linear10" x1="0" y1="0" x2="1" y2="0" gradientUnits="userSpaceOnUse" gradientTransform="matrix(3.61458,-27.5729,-27.5729,-3.61458,352.451,167.331)"><stop offset="0" style="stop-color:#ffcf50;stop-opacity:1"/><stop offset="1" style="stop-color:#ffba42;stop-opacity:1"/></linearGradient><linearGradient id="_Linear11" x1="0" y1="0" x2="1" y2="0" gradientUnits="userSpaceOnUse" gradientTransform="matrix(-21.3099,20.2201,20.2201,21.3099,374.051,115.955)"><stop offset="0" style="stop-color:#ffba42;stop-opacity:1"/><stop offset="1" style="stop-color:#ffcf50;stop-opacity:1"/></linearGradient><linearGradient id="_Linear12" x1="0" y1="0" x2="1" y2="0" gradientUnits="userSpaceOnUse" gradientTransform="matrix(7.9847,-11.0511,-11.0511,-7.9847,419.559,372.29)"><stop offset="0" style="stop-color:#b97b46;stop-opacity:1"/><stop offset="1" style="stop-color:#fff;stop-opacity:1"/></linearGradient><linearGradient id="_Linear13" x1="0" y1="0" x2="1" y2="0" gradientUnits="userSpaceOnUse" gradientTransform="matrix(24.7734,45.9617,45.9617,-24.7734,383.244,249.538)"><stop offset="0" style="stop-color:#3277dc;stop-opacity:1"/><stop offset="1" style="stop-color:#fff;stop-opacity:1"/></linearGradient><linearGradient id="_Linear14" x1="0" y1="0" x2="1" y2="0" gradientUnits="userSpaceOnUse" gradientTransform="matrix(30.0664,-43.9547,-43.9547,-30.0664,402.409,388.099)"><stop offset="0" style="stop-color:#3277dc;stop-opacity:1"/><stop offset="1" style="stop-color:#fff;stop-opacity:1"/></linearGradient><linearGradient id="_Linear15" x1="0" y1="0" x2="1" y2="0" gradientUnits="userSpaceOnUse" gradientTransform="matrix(0.578125,11.8664,11.8664,-0.578125,547.046,721.234)"><stop offset="0" style="stop-color:#bc0045;stop-opacity:1"/><stop offset="1" style="stop-color:#e4074a;stop-opacity:1"/></linearGradient><linearGradient id="_Linear16" x1="0" y1="0" x2="1" y2="0" gradientUnits="userSpaceOnUse" gradientTransform="matrix(-28.4688,-24.5289,-24.5289,28.4688,423.197,289.76)"><stop offset="0" style="stop-color:#3277dc;stop-opacity:1"/><stop offset="1" style="stop-color:#0d44d4;stop-opacity:1"/></linearGradient><linearGradient id="_Linear17" x1="0" y1="0" x2="1" y2="0" gradientUnits="userSpaceOnUse" gradientTransform="matrix(1.23359,7.48672,7.48672,-1.23359,482.082,720.357)"><stop offset="0" style="stop-color:#bc0045;stop-opacity:1"/><stop offset="1" style="stop-color:#e4074a;stop-opacity:1"/></linearGradient><linearGradient id="_Linear18" x1="0" y1="0" x2="1" y2="0" gradientUnits="userSpaceOnUse" gradientTransform="matrix(-12.002,98.4629,98.4629,12.002,542.336,516.22)"><stop offset="0" style="stop-color:#0d44d4;stop-opacity:1"/><stop offset="1" style="stop-color:#3261db;stop-opacity:1"/></linearGradient><linearGradient id="_Linear19" x1="0" y1="0" x2="1" y2="0" gradientUnits="userSpaceOnUse" gradientTransform="matrix(-18.6725,130.335,130.335,18.6725,505.503,478.126)"><stop offset="0" style="stop-color:#0d44d4;stop-opacity:1"/><stop offset="1" style="stop-color:#3261db;stop-opacity:1"/></linearGradient><linearGradient id="_Linear20" x1="0" y1="0" x2="1" y2="0" gradientUnits="userSpaceOnUse" gradientTransform="matrix(-32.6133,-107.323,-107.323,32.6133,530.917,464.113)"><stop offset="0" style="stop-color:#bc0045;stop-opacity:1"/><stop offset="1" style="stop-color:#e4074a;stop-opacity:1"/></linearGradient><linearGradient id="_Linear21" x1="0" y1="0" x2="1" y2="0" gradientUnits="userSpaceOnUse" gradientTransform="matrix(-7.21602,-16.9969,-16.9969,7.21602,531.785,404.457)"><stop offset="0" style="stop-color:#dbe7f9;stop-opacity:1"/><stop offset="1" style="stop-color:#fff;stop-opacity:1"/></linearGradient><linearGradient id="_Linear22" x1="0" y1="0" x2="1" y2="0" gradientUnits="userSpaceOnUse" gradientTransform="matrix(-5.91667,41.6263,41.6263,5.91667,544.799,316.493)"><stop offset="0" style="stop-color:#cfdaf7;stop-opacity:1"/><stop offset="1" style="stop-color:#fff;stop-opacity:1"/></linearGradient><linearGradient id="_Linear23" x1="0" y1="0" x2="1" y2="0" gradientUnits="userSpaceOnUse" gradientTransform="matrix(-30.6589,-11.9297,-11.9297,30.6589,537.165,307.787)"><stop offset="0" style="stop-color:#bc0045;stop-opacity:1"/><stop offset="1" style="stop-color:#e4074a;stop-opacity:1"/></linearGradient><linearGradient id="_Linear24" x1="0" y1="0" x2="1" y2="0" gradientUnits="userSpaceOnUse" gradientTransform="matrix(-11.7539,-35.7617,-35.7617,11.7539,537.249,286.8)"><stop offset="0" style="stop-color:#3261db;stop-opacity:1"/><stop offset="1" style="stop-color:#689be5;stop-opacity:1"/></linearGradient><linearGradient id="_Linear26" x1="0" y1="0" x2="1" y2="0" gradientUnits="userSpaceOnUse" gradientTransform="matrix(-5.29948,-19.8464,-19.8464,5.29948,531.487,256.334)"><stop offset="0" style="stop-color:#000;stop-opacity:1"/><stop offset="1" style="stop-color:#424242;stop-opacity:1"/></linearGradient><linearGradient id="_Linear27" x1="0" y1="0" x2="1" y2="0" gradientUnits="userSpaceOnUse" gradientTransform="matrix(5.5638,-16.1667,-16.1667,-5.5638,528.617,424.326)"><stop offset="0" style="stop-color:#f7c361;stop-opacity:1"/><stop offset="1" style="stop-color:#fff;stop-opacity:1"/></linearGradient><linearGradient id="_Linear28" x1="0" y1="0" x2="1" y2="0" gradientUnits="userSpaceOnUse" gradientTransform="matrix(-4.51367,58.0918,58.0918,4.51367,641.424,481.937)"><stop offset="0" style="stop-color:#2d2d53;stop-opacity:1"/><stop offset="1" style="stop-color:#434365;stop-opacity:1"/></linearGradient><linearGradient id="_Linear29" x1="0" y1="0" x2="1" y2="0" gradientUnits="userSpaceOnUse" gradientTransform="matrix(-11.3867,207.115,207.115,11.3867,614.274,461.888)"><stop offset="0" style="stop-color:#2d2d53;stop-opacity:1"/><stop offset="1" style="stop-color:#434365;stop-opacity:1"/></linearGradient><linearGradient id="_Linear30" x1="0" y1="0" x2="1" y2="0" gradientUnits="userSpaceOnUse" gradientTransform="matrix(82.4102,-167.693,-167.693,-82.4102,608.805,446.236)"><stop offset="0" style="stop-color:#007c75;stop-opacity:0.99"/><stop offset="1" style="stop-color:#0c9f9b;stop-opacity:0.99"/></linearGradient><linearGradient id="_Linear31" x1="0" y1="0" x2="1" y2="0" gradientUnits="userSpaceOnUse" gradientTransform="matrix(-2.98437,25.7217,25.7217,2.98437,734.157,146.375)"><stop offset="0" style="stop-color:#bc0045;stop-opacity:1"/><stop offset="1" style="stop-color:#e4074a;stop-opacity:1"/></linearGradient><linearGradient id="_Linear32" x1="0" y1="0" x2="1" y2="0" gradientUnits="userSpaceOnUse" gradientTransform="matrix(10.8516,-19.4805,-19.4805,-10.8516,733.84,156.029)"><stop offset="0" style="stop-color:#e4074a;stop-opacity:1"/><stop offset="1" style="stop-color:#ef3062;stop-opacity:1"/></linearGradient><linearGradient id="_Linear33" x1="0" y1="0" x2="1" y2="0" gradientUnits="userSpaceOnUse" gradientTransform="matrix(-15.6764,22.5573,22.5573,15.6764,753.587,135.746)"><stop offset="0" style="stop-color:#ef3062;stop-opacity:1"/><stop offset="1" style="stop-color:#e4074a;stop-opacity:1"/></linearGradient><linearGradient id="_Linear34" x1="0" y1="0" x2="1" y2="0" gradientUnits="userSpaceOnUse" gradientTransform="matrix(-11.4063,13.9447,13.9447,11.4063,747.054,134.689)"><stop offset="0" style="stop-color:#ef3062;stop-opacity:1"/><stop offset="1" style="stop-color:#e4074a;stop-opacity:1"/></linearGradient><linearGradient id="_Linear35" x1="0" y1="0" x2="1" y2="0" gradientUnits="userSpaceOnUse" gradientTransform="matrix(3.81641,-13.8571,-13.8571,-3.81641,649.737,409.626)"><stop offset="0" style="stop-color:#abb2c1;stop-opacity:1"/><stop offset="1" style="stop-color:#fff;stop-opacity:1"/></linearGradient><linearGradient id="_Linear36" x1="0" y1="0" x2="1" y2="0" gradientUnits="userSpaceOnUse" gradientTransform="matrix(4.30078,34.5052,34.5052,-4.30078,645.712,304.381)"><stop offset="0" style="stop-color:#acbff0;stop-opacity:1"/><stop offset="1" style="stop-color:#fff;stop-opacity:1"/></linearGradient><linearGradient id="_Linear37" x1="0" y1="0" x2="1" y2="0" gradientUnits="userSpaceOnUse" gradientTransform="matrix(-0.607422,27.7695,27.7695,0.607422,624.393,291.445)"><stop offset="0" style="stop-color:#bc0045;stop-opacity:1"/><stop offset="1" style="stop-color:#e4074a;stop-opacity:1"/></linearGradient><linearGradient id="_Linear38" x1="0" y1="0" x2="1" y2="0" gradientUnits="userSpaceOnUse" gradientTransform="matrix(6.545,13.8284,13.8284,-6.545,639.457,363.628)"><stop offset="0" style="stop-color:#fff;stop-opacity:1"/><stop offset="1" style="stop-color:#e1ebfa;stop-opacity:1"/></linearGradient><linearGradient id="_Linear39" x1="0" y1="0" x2="1" y2="0" gradientUnits="userSpaceOnUse" gradientTransform="matrix(13.834,-50.1533,-50.1533,-13.834,620.145,289.481)"><stop offset="0" style="stop-color:#f1507a;stop-opacity:1"/><stop offset="1" style="stop-color:#e4074a;stop-opacity:1"/></linearGradient><linearGradient id="_Linear41" x1="0" y1="0" x2="1" y2="0" gradientUnits="userSpaceOnUse" gradientTransform="matrix(16.7414,25.0125,25.0125,-16.7414,616.911,219.941)"><stop offset="0" style="stop-color:#424242;stop-opacity:1"/><stop offset="1" style="stop-color:#000;stop-opacity:1"/></linearGradient><linearGradient id="_Linear42" x1="0" y1="0" x2="1" y2="0" gradientUnits="userSpaceOnUse" gradientTransform="matrix(-19.2285,1.04622,1.04622,19.2285,582.386,298.437)"><stop offset="0" style="stop-color:#ffcf50;stop-opacity:1"/><stop offset="1" style="stop-color:#ffba42;stop-opacity:1"/></linearGradient></defs></svg>
