<svg width="48" height="42" viewBox="0 0 48 42" fill="none" xmlns="http://www.w3.org/2000/svg">
    <path fill-rule="evenodd" clip-rule="evenodd" d="M6.99994 28.9333V33H4.99994V27.9333C4.99994 27.6681 5.1053 27.4138 5.29283 27.2262C5.48037 27.0387 5.73473 26.9333 5.99994 26.9333L17.9999 26.9333C18.5522 26.9333 18.9999 27.381 18.9999 27.9333L18.9999 33H16.9999L16.9999 28.9333L6.99994 28.9333Z" fill="white"/>
    <path fill-rule="evenodd" clip-rule="evenodd" d="M12.9999 13V17H10.9999V12C10.9999 11.4477 11.4477 11 11.9999 11L35.9999 11C36.5522 11 36.9999 11.4477 36.9999 12V17H34.9999V13L12.9999 13Z" fill="white"/>
    <path fill-rule="evenodd" clip-rule="evenodd" d="M30.9999 28.9333L30.9999 33H28.9999L28.9999 27.9333C28.9999 27.6681 29.1053 27.4138 29.2928 27.2262C29.4804 27.0387 29.7347 26.9333 29.9999 26.9333L41.9999 26.9333C42.5522 26.9333 42.9999 27.381 42.9999 27.9333V33H40.9999V28.9333L30.9999 28.9333Z" fill="white"/>
    <path d="M4.27239 32.9615C5.04414 31.6385 6.95574 31.6385 7.7275 32.9615L11.2454 38.9923C12.0232 40.3256 11.0614 42 9.51787 42H2.48202C0.938435 42 -0.0233078 40.3256 0.754458 38.9923L4.27239 32.9615Z" fill="white"/>
    <path fill-rule="evenodd" clip-rule="evenodd" d="M29.9999 40C31.6568 40 32.9999 38.6569 32.9999 37C32.9999 35.3431 31.6568 34 29.9999 34C28.3431 34 26.9999 35.3431 26.9999 37C26.9999 38.6569 28.3431 40 29.9999 40ZM24.9999 37C24.9999 39.7614 27.2385 42 29.9999 42C32.7614 42 34.9999 39.7614 34.9999 37C34.9999 34.2386 32.7614 32 29.9999 32C27.2385 32 24.9999 34.2386 24.9999 37Z" fill="white"/>
    <path fill-rule="evenodd" clip-rule="evenodd" d="M8.99994 18V24H14.9999V18H8.99994ZM6.99994 24C6.99994 25.1046 7.89537 26 8.99994 26H14.9999C16.1045 26 16.9999 25.1046 16.9999 24L16.9999 18C16.9999 16.8954 16.1045 16 14.9999 16H8.99994C7.89537 16 6.99994 16.8954 6.99994 18V24Z" fill="white"/>
    <path fill-rule="evenodd" clip-rule="evenodd" d="M20.9999 2L20.9999 8H26.9999L26.9999 2L20.9999 2ZM18.9999 8C18.9999 9.10457 19.8954 10 20.9999 10H26.9999C28.1045 10 28.9999 9.10457 28.9999 8L28.9999 2C28.9999 0.89543 28.1045 -4.82823e-08 26.9999 0L20.9999 2.62269e-07C19.8954 3.10551e-07 18.9999 0.895431 18.9999 2L18.9999 8Z" fill="white"/>
    <path fill-rule="evenodd" clip-rule="evenodd" d="M14.9999 34V40H20.9999L20.9999 34H14.9999ZM12.9999 40C12.9999 41.1046 13.8954 42 14.9999 42H20.9999C22.1045 42 22.9999 41.1046 22.9999 40L22.9999 34C22.9999 32.8954 22.1045 32 20.9999 32H14.9999C13.8954 32 12.9999 32.8954 12.9999 34V40Z" fill="white"/>
    <path d="M40.2724 32.9615C41.0441 31.6385 42.9557 31.6385 43.7275 32.9615L47.2454 38.9923C48.0232 40.3256 47.0614 42 45.5179 42H38.482C36.9384 42 35.9767 40.3256 36.7545 38.9923L40.2724 32.9615Z" fill="white"/>
    <path d="M34.2724 16.9615C35.0441 15.6385 36.9557 15.6385 37.7275 16.9615L41.2454 22.9923C42.0232 24.3256 41.0614 26 39.5179 26H32.482C30.9384 26 29.9767 24.3256 30.7545 22.9923L34.2724 16.9615Z" fill="white"/>
</svg>
