<svg version="1.1" xmlns="http://www.w3.org/2000/svg" xmlns:xlink="http://www.w3.org/1999/xlink">

	<symbol id="menu" viewBox="0 0 20 12.5" fill="currentColor">
        <path d="m20 11v1.5h-20v-1.5zm0-5.5v1.5h-20v-1.5zm0-5.5v1.5h-20v-1.5z" />
	</symbol>

	<symbol id="arrow" viewBox="0 0 11 20" fill="currentColor">
		<path d="m10 0-10 10 10 10 1-1-9-9 9-9z"/>
	</symbol>

	<symbol id="calendar" viewBox="0 0 20 20" fill="currentColor">
		<path d="m5.5 0v1.4h3.8v-1.4h1.4v1.4h3.8v-1.4h1.4v1.4h1.7l2.4 2.5v13.7l-2.5 2.4h-15l-2.5-2.5v-13.6l2.5-2.5h1.7v-1.4zm13.1 6.9h-17.2v10.1l1.6 1.6h14l1.7-1.7v-10zm-13.1 6.9v2.8h-1.4v-2.8zm3.5 0v2.8h-1.4v-2.8zm3.4 0v2.8h-1.4v-2.8zm-6.9-4.8v2.8h-1.4v-2.8zm3.5 0v2.8h-1.4v-2.8zm3.4 0v2.8h-1.4v-2.8zm3.5 0v2.8h-1.4v-2.8zm-11.8-6.2h-1.1l-1.6 1.6v1.1h17.2v-1.1l-1.6-1.6h-1.1v1.4h-1.4v-1.4h-3.8v1.4h-1.4v-1.4h-3.8v1.4h-1.4z"/>
	</symbol>

	<symbol id="close" viewBox="0 0 20 20" fill="currentColor">
		<path d="m19 0-9 9-9-9-1 1 9 9-9 9 1 1 9-9 9 9 1-1-9-9 9-9z"/>
	</symbol>

	<symbol id="moon" viewBox="0 0 12.4 17.5" fill="currentColor">
		<path d="m7.4 1.5c-4.1.8-6.7 4.7-5.9 8.6.8 4 4.6 6.6 8.6 5.8h.1c-1.9-1.2-3.5-3.7-4.1-6.7-.5-3 0-5.9 1.3-7.7m1.3 16c-4.1 0-7.8-2.9-8.6-7.1-.9-4.7 2.2-9.3 7-10.2.7-.2 1.4-.2 2.1-.2l.3 1.3c-1.8 1.1-2.6 4.4-2 7.7s2.6 6 4.8 6.4l.2 1.3c-.7.3-1.4.5-2.1.7-.6 0-1.1.1-1.7.1"/>
	</symbol>

	<symbol id="draw" viewBox="0 0 20 20" fill="currentColor">
        <path d="m0 0v9h5.5v-3.8h1.8l1.7 1.6v6.3l-1.7 1.7h-1.8v-3.8h-5.5v9h5.5v-3.8h2.4l2.5-2.5v-2.7h4.1v3.4h5.5v-9h-5.5v4.1h-4.1v-3.2l-2.5-2.5h-2.4v-3.8zm1.4 7.6h2.8v-6.2h-2.8zm14.5 5.5h2.8v-6.2h-2.8zm-14.5 5.5h2.8v-6.2h-2.8z" fill-rule="evenodd" />
    </symbol>

	<symbol id="dropdown" viewBox="0 0 20 11" fill="currentColor">
		<path d="m19 0-9 9-9-9-1 1 10 10 10-10z"/>
	</symbol>

	<symbol id="star" viewBox="0 0 20 20">
        <path fill="var(--color-symbol-star-fill, currentColor)" d="m9.346 0-2.101 6.847-6.841-.015-.404 1.309 5.544 4.213-2.129 6.837 1.058.809 5.526-4.242 5.527 4.242 1.058-.809-2.129-6.837 5.545-4.213-.403-1.309-6.843.015-2.099-6.847z"/>
        <path fill="var(--color-symbol-star-outline, currentColor)" d="m9.346 0-2.101 6.847-6.841-.015-.404 1.309 5.544 4.213-2.129 6.837 1.058.809 5.527-4.242 5.526 4.242 1.058-.809-2.129-6.837 5.545-4.213-.403-1.309-6.843.015-2.099-6.847zm-.947 7.793 1.601-5.218 1.601 5.218.656.5 5.212-.011-4.223 3.211-.251.809 1.622 5.209-4.212-3.23h-.81l-4.21 3.23 1.621-5.209-.251-.809-4.225-3.211 5.214.011c.001 0 .655-.5.655-.5z"/>
	</symbol>

	<symbol id="list-view" viewBox="0 0 20 20" fill="currentColor">
		<path d="m2.4 15.1c1.3 0 2.4 1.1 2.4 2.4s-1.1 2.4-2.4 2.4-2.4-1.1-2.4-2.4 1.1-2.4 2.4-2.4zm0 1.4c-.6 0-1 .5-1 1 0 .6.5 1 1 1s1-.5 1-1c.1-.6-.4-1-1-1zm17.6.3v1.4h-13.8v-1.4zm-17.6-9.3c1.3 0 2.4 1.1 2.4 2.4s-1.1 2.4-2.4 2.4-2.4-1-2.4-2.4 1.1-2.4 2.4-2.4zm0 1.4c-.6 0-1 .5-1 1 0 .6.5 1 1 1s1-.5 1-1c.1-.5-.4-1-1-1zm17.6.3v1.4h-13.8v-1.4zm-17.6-9.3c1.3 0 2.4 1.1 2.4 2.4s-1.1 2.5-2.4 2.5-2.4-1.1-2.4-2.5c0-1.3 1.1-2.4 2.4-2.4zm0 1.4c-.6 0-1 .5-1 1 0 .6.5 1 1 1s1-.5 1-1c.1-.5-.4-1-1-1zm17.6.4v1.3h-13.8v-1.3z"/>
	</symbol>

	<symbol id="quick-settings" viewBox="0 0 20 20" fill="currentColor">
		<path d="m3.4 6.2v13.8h-1.3v-13.8zm7.3 10.3v3.5h-1.4v-3.5zm7.2-6.2v9.7h-1.4v-9.7zm-7.2-10.3v13.8h2.1v1.4h-2.1-1.4-2.1v-1.4h2.1v-13.8zm7.2 0v7.6h2.1v1.4h-2.1-1.4-2.1v-1.4h2.1v-7.6zm-14.5 0v3.5h2.1v1.4h-2.1-1.3-2.1v-1.4h2.1v-3.5z"/>
	</symbol>

	<symbol id="search" viewBox="0 0 20 20" fill="currentColor">
		<path d="m8 14.6c-3.7 0-6.6-3-6.6-6.6 0-3.7 3-6.6 6.6-6.6 3.7 0 6.6 3 6.6 6.6 0 3.7-2.9 6.6-6.6 6.6zm12 4.4-5.9-5.9c1.2-1.4 1.9-3.1 1.9-5.1 0-4.4-3.6-8-8-8s-8 3.6-8 8 3.6 8 8 8c2 0 3.7-.7 5.1-1.9l5.9 5.9z"/>
	</symbol>

	<symbol id="settings" viewBox="0 0 20 20" fill="currentColor">
		<path d="m12.3 0 .2 2.9.8.3 2.2-1.9 3.3 3.3-1.9 2.2.3.8 2.8.1v4.6l-2.9.2-.3.8 1.9 2.2-3.3 3.3-2.2-1.9-.8.3-.1 2.8h-4.6l-.2-2.9-.8-.3-2.2 1.9-3.3-3.3 1.9-2.2-.3-.8-2.8-.1v-4.6l2.9-.2.3-.8-1.9-2.1 3.3-3.3 2.2 1.9.8-.3.1-2.9zm-1.3 1.4h-2l-.2 2.4-2.4 1-1.8-1.6-1.4 1.4 1.6 1.8-1 2.4-2.4.2v2l2.4.2 1 2.4-1.6 1.8 1.4 1.4 1.8-1.6 2.4 1 .2 2.4h2l.2-2.4 2.4-1 1.8 1.6 1.4-1.4-1.6-1.8 1-2.4 2.4-.1v-2.1l-2.4-.1-1-2.4 1.6-1.8-1.4-1.4-1.8 1.6-2.4-1zm-1 4.9c2 0 3.7 1.7 3.7 3.7s-1.7 3.7-3.7 3.7-3.7-1.7-3.7-3.7 1.7-3.7 3.7-3.7zm0 1.4c-1.3 0-2.3 1-2.3 2.3s1 2.3 2.3 2.3 2.3-1 2.3-2.3-1-2.3-2.3-2.3z"/>
	</symbol>

	<symbol id="table" viewBox="0 0 20 20" fill="currentColor">
		<path d="m2.9 14.5c.1 0 .2 0 .3.1l.7.7c0 .1.1.2.1.3v1.2l-.4.4v.1l.4.4v1.2c0 .1 0 .2-.1.3l-.7.7c-.1.1-.2.1-.3.1h-2.9v-.9h2.8c.1 0 .2-.1.2-.2v-1.4s0 0-.1 0l-.3.3h-2v-.9h2.2c.1 0 .2-.1.2-.2v-1c0-.1-.1-.2-.2-.2h-2.8v-.9zm17.1 2.1v1.4h-13.8v-1.4zm-17.1-9.3c.1 0 .2 0 .3.1l.7.7c0 .1.1.2.1.3v1.1c0 .1 0 .1-.1.2l-2.9 1.8v.2h2.9v.9h-3.9v-1.7l3-1.9v-.5c0-.1-.1-.2-.2-.2h-2.8v-.9zm17.1 2v1.4h-13.8v-1.4zm-18.6-9.3c.1 0 .2 0 .3.1l.7.7c0 .1.1.2.1.3v3.4h1.4v.9h-3.9v-.8h1.4v-3.5c0-.1-.1-.2-.2-.2h-1.2v-.9zm18.6 2.1v1.4h-13.8v-1.4z"/>
	</symbol>

	<symbol id="user" viewBox="0 0 20 20" fill="currentColor">
		<path d="m18.6 18.6h-17.2v-2.5l1-1 5.9-1.5v-1.6l-.3-.1c-1.9-1.6-2.9-5.3-2-7.9.4-1.2 1.5-2.7 4-2.7s3.5 1.5 4 2.7c.9 2.6 0 6.3-2 7.8l-.3.2v1.6l5.9 1.5 1 1zm-.3-4.7-5-1.3c2.1-2 3-6.1 2-9-.9-2.3-2.7-3.6-5.3-3.6s-4.4 1.3-5.3 3.6c-1 2.9-.1 7 2 9l-5 1.3-1.7 1.7v4.4h20v-4.4z"/>
	</symbol>

	<symbol id="user-logged-in" viewBox="0 0 20 20" fill="currentColor">
		<path d="m10 0c2.6 0 4.4 1.3 5.3 3.6 1 2.9.1 7-2 9l3 .7-1.1 1.1-3.3-.8v-1.6l.3-.2c1.9-1.5 2.9-5.3 2-7.8-.4-1.2-1.5-2.7-4-2.7-2.7.1-3.7 1.5-4.2 2.7-.9 2.6 0 6.3 2 7.8l.3.2v1.6l-5.8 1.5-1 1v2.5h8.8l1.4 1.4h-11.7v-4.4l1.7-1.7 5-1.3c-2.1-2-3-6.1-2-9 .9-2.3 2.7-3.6 5.3-3.6zm10 15.3v4.7h-4.7l1.4-1.4h2v-2c-.1 0 1.3-1.3 1.3-1.3zm-1-2.9 1 1-6.6 6.6-3.2-3.2 1-1 2.3 2.3z"/>
	</symbol>

	<symbol id="15-sec-back" viewBox="0 0 17 20" fill="currentColor">
		<path d="m6.9 0 1 1-2 2h2.6c4.7 0 8.5 3.8 8.5 8.5s-3.8 8.5-8.5 8.5-8.5-3.8-8.5-8.5h1.4c0 3.9 3.2 7.1 7.1 7.1s7.1-3.2 7.1-7.1-3.2-7.1-7.1-7.1h-2.7l2 2-1 1-3.6-3.7zm-1.4 8.7c.1 0 .2 0 .3.1l.7.7c.1.1.1.2.1.3v3.4h1.4v.9h-3.9v-.9h1.4v-3.4c0-.1-.1-.2-.2-.2h-1.2v-.9zm7 0v.9h-2.6v1.3h1.9c.1 0 .2 0 .3.1l.7.7c.1.1.1.2.1.3v1c0 .1 0 .2-.1.3l-.8.8c-.1.1-.2.1-.3.1h-2.8v-.9h2.8c.1 0 .2-.1.2-.2v-1c0-.1-.1-.2-.2-.2h-2.8v-3.2z"/>
	</symbol>

	<symbol id="15-sec-forward" viewBox="0 0 17 20" fill="currentColor">
		<path d="m10.1 0 3.7 3.7-3.7 3.7-1-1 2-2h-2.6c-3.9 0-7.1 3.2-7.1 7.1s3.2 7.1 7.1 7.1 7.1-3.2 7.1-7.1h1.4c0 4.7-3.8 8.5-8.5 8.5s-8.5-3.8-8.5-8.5 3.8-8.5 8.5-8.5h2.6l-2-2s1-1 1-1zm-4.6 8.7c.1 0 .2 0 .3.1l.7.7c.1.1.1.2.1.3v3.4h1.4v.9h-3.9v-.9h1.4v-3.4c0-.1-.1-.2-.2-.2h-1.2v-.9zm7 0v.9h-2.6v1.3h1.9c.1 0 .2 0 .3.1l.7.7c.1.1.1.2.1.3v1c0 .1 0 .2-.1.3l-.8.8c-.1.1-.2.1-.3.1h-2.8v-.9h2.8c.1 0 .2-.1.2-.2v-1c0-.1-.1-.2-.2-.2h-2.8v-3.2z"/>
	</symbol>

	<symbol id="fullscreen" viewBox="0 0 15.8 15.8" fill="currentColor">
		<path d="m1.4 10.9v3.6h3.6v1.4h-5v-4.9c0-.1 1.4-.1 1.4-.1zm14.4 0v4.9h-4.9v-1.4h3.6v-3.6zm-10.9-10.9v1.4h-3.5v3.6h-1.4v-5zm10.9 0v4.9h-1.4v-3.5h-3.6v-1.4z"/>
	</symbol>

	<symbol id="small-screen" viewBox="0 0 15.9 15.9" fill="currentColor">
		<path d="m5.3 10.5v5.3h-1.3v-4h-4v-1.4zm10.6 0v1.4h-4v4h-1.4v-5.3zm-10.6-10.5v5.3h-5.3v-1.3h4v-4zm6.6 0v4h4v1.4h-5.3v-5.4z"/>
	</symbol>

	<symbol id="play" viewBox="0 0 17 20" fill="currentColor">
		<path d="m0 0v20l17-10zm1.4 2.4 12.9 7.6-12.9 7.6z"/>
	</symbol>

	<symbol id="pause" viewBox="0 0 17.3 20" fill="currentColor">
		<path d="m6.7 0v20h-6.7v-20zm10.6 0v20h-6.7v-20zm-12 1.4h-4v17.3h4zm10.7 0h-4v17.3h4z"/>
	</symbol>

	<symbol id="spectators" viewBox="0 0 20 15.2" fill="currentColor">
		<path d="m2.5 0-2.5 2.5v10.3l2.5 2.4h15.1l2.5-2.5v-10.2l-2.6-2.5zm8.2 1.4h5.1l-1.7 2.1h-3.5c.1 0 .1-2.1.1-2.1zm-6.5 0h5.1v2.1h-3.5s-1.6-2.1-1.6-2.1zm11.2 2.7 1.9-2.4 1 1-2.4 1.9s-.5-.5-.5-.5zm-13.7-1.4 1-1 1.9 2.4-.5.5s-2.4-1.9-2.4-1.9zm14.8 6.6v-3.5l2.1-1.7v6.9zm-15.1-5.1 2.1 1.7v3.5l-2.1 1.6zm3.4 5.2v-3.6l1-1h8.4l1 1v3.6l-1 1h-8.4zm10.6 1.7.5-.5 2.4 1.9-1 1zm-13.7 1.4 2.4-1.9.5.5-1.9 2.4s-1-1-1-1zm9-.8h3.5l1.7 2.1h-5.1v-2.1zm-4.9 0h3.5v2.1h-5.1z"/>
	</symbol>

	<symbol id="erase" viewBox="0 0 20 20">
		<path fill="var(--color-symbol-erase-1)" d="m10 0c5.5 0 10 4.5 10 10s-4.5 10-10 10-10-4.5-10-10 4.5-10 10-10z"/>
		<path fill="var(--color-symbol-erase-2)" d="m12.7 6 1.3 1.3-2.7 2.7 2.7 2.7-1.3 1.3-2.7-2.7-2.7 2.7-1.3-1.3 2.7-2.7-2.7-2.7 1.3-1.3 2.7 2.7z"/>
	</symbol>

	<symbol id="plus" viewBox="0 0 12 12" fill="currentColor">
		<path d="M6.45 0v5.4H12v.9H6.45V12h-.9V6.3H0v-.9h5.55V0h.9z"/>
	</symbol>

    <symbol id="bell" viewBox="0 0 20 20" fill="currentColor">
        <path d="m10.6869.0002v2.761h1.547l2.223 3.17.682 6.168 2.2 2.2-.981 2.942h-3.288c-.175 1.547-1.476 2.759-3.07 2.759-1.593 0-2.895-1.212-3.07-2.759h-3.289l-.979-2.942 2.199-2.2.682-6.168 2.224-3.17h1.546v-2.761zm.973 17.241h-3.32c.165.783.828 1.385 1.66 1.385s1.496-.602 1.66-1.385zm-.141-13.106h-3.038l-1.611 2.298-.697 6.298-1.94 1.939.398 1.197h10.737l.399-1.197-1.94-1.939-.696-6.298zm-7.1837-4.0995.414 1.309c-1.231.389-2.236 1.235-2.831 2.38-.593 1.144-.706 2.453-.316 3.685l-1.309.414c-.501-1.581-.356-3.261.406-4.732.763-1.471 2.054-2.557 3.636-3.056zm11.3298.0001c1.581.499 2.872 1.585 3.636 3.056.763 1.471.907 3.151.406 4.731l-1.309-.413c.39-1.232.277-2.541-.316-3.685-.594-1.145-1.6-1.991-2.831-2.38zm-10.4969 2.6295.415 1.308c-1.09.345-1.696 1.513-1.351 2.603l-1.309.414c-.278-.878-.198-1.811.226-2.628.424-.816 1.14-1.419 2.019-1.697zm9.6642-.0002c.878.278 1.595.881 2.018 1.697.425.818.504 1.75.226 2.628l-1.309-.414c.345-1.09-.26-2.258-1.35-2.603z"/>
    </symbol>

    <symbol id="bell-off" viewBox="0 0 20 20" fill="currentColor">
        <path d="M.992.207 20 18.827l-.992.972-2.61-2.558h-3.264C12.957 18.788 11.628 20 10.002 20c-1.627 0-2.956-1.212-3.133-2.76H3.51L2.51 14.3l2.244-2.2.638-5.64L0 1.178.992.207zM11.696 17.24H8.307a1.735 1.735 0 0 0 1.695 1.386c.85 0 1.526-.603 1.694-1.386zM6.663 7.705l-.569 5.027-1.98 1.939.407 1.196h10.474L6.663 7.705zm4.04-7.706v2.762h1.579l2.27 3.171.683 6.047-1.587-1.555-.45-3.99-1.645-2.3H8.45l-.504.705-1.007-.986.782-1.092H9.3V0h1.402z" />
    </symbol>

    <symbol id="sound-on" viewBox="0 0 16 16" color="currentColor">
        <path d="M8.55 0V2.21h1.237l1.779 2.536.545 4.934 1.76 1.76-.785 2.354h-2.63C10.316 15.031 9.276 16 8 16c-1.274 0-2.316-.97-2.456-2.207H2.913l-.783-2.354 1.759-1.76.545-4.934 1.78-2.536H7.45V0h1.1zm.778 13.793H6.672c.132.626.662 1.108 1.328 1.108s1.197-.482 1.328-1.108zM9.215 3.308h-2.43l-1.29 1.839-.557 5.038-1.552 1.551.319.958h8.59l.319-.958-1.552-1.551-.557-5.038-1.29-1.839zm3.317-3.28c1.265.4 2.298 1.269 2.909 2.445.61 1.177.725 2.521.325 3.785l-1.048-.33c.312-.986.222-2.033-.252-2.948-.476-.916-1.28-1.593-2.265-1.904zm-9.064 0L3.8 1.077c-.984.311-1.788.988-2.264 1.904-.475.915-.565 1.962-.253 2.948l-1.047.331C-.166 4.994-.05 3.65.559 2.473 1.17 1.297 2.203.428 3.47.03zm.666 2.104l.332 1.047c-.872.276-1.356 1.21-1.08 2.082l-1.048.331c-.222-.702-.158-1.449.181-2.102.34-.653.912-1.135 1.615-1.358zm7.732 0c.702.222 1.276.705 1.614 1.358.34.654.403 1.4.181 2.102l-1.047-.331c.276-.872-.208-1.807-1.08-2.083z"/>
    </symbol>

    <symbol id="sound-off" viewBox="0 0 16 16" color="currentColor">
        <path d="M.794.166L16 15.063l-.793.777-2.09-2.047h-2.61C10.366 15.031 9.303 16 8.002 16c-1.302 0-2.365-.97-2.507-2.207H2.807l-.798-2.353 1.795-1.76.51-4.512L0 .943.794.166zm8.563 13.627H6.646c.134.627.677 1.109 1.356 1.109s1.22-.482 1.355-1.109zM5.331 6.164l-.456 4.022-1.584 1.551.326.957h8.38L5.33 6.164zM8.562 0v2.21h1.264l1.816 2.536.546 4.838-1.27-1.244-.36-3.193-1.316-1.839H6.761l-.403.564-.806-.789.626-.873H7.44V0h1.121z" />
    </symbol>

    <symbol id="restore" viewBox="0 0 16 16">
        <path d="M1.778 8.063 6.069 9.84l-.42 1.01-2.597-1.077a5.176 5.176 0 0 0 4.95 3.674c2.18 0 4.14-1.378 4.874-3.43l1.029.369a6.283 6.283 0 0 1-5.903 4.154 6.27 6.27 0 0 1-5.946-4.293L1.011 12.77 0 12.353l1.358-3.282.163-.392.256-.616zM7.998 2a6.273 6.273 0 0 1 5.946 4.295L14.99 3.77l1.01.418-1.776 4.29-4.292-1.777.419-1.01 2.597 1.077a5.175 5.175 0 0 0-4.95-3.675 5.191 5.191 0 0 0-4.874 3.43l-1.03-.369A6.285 6.285 0 0 1 8 2z"/>
    </symbol>

    <symbol id="filter" viewBox="0 0 12 10" fill="currentColor">
        <path d="m12 0h-12v2h12v-1zm-2 4h-8v2h8v-1zm-2 4h-4v2h4v-1z"/>
    </symbol>

    <symbol id="pin" viewBox="0 0 18 18">
        <path fill="var(--pin-fill)" d="m12.5 0h-7v2.6l1.1 3.4-2.5 2v3.7h4.2v5.6l.7.7.6-.6v-5.6h4.2v-3.7l-2.5-2 1.1-3.3z" />
        <path fill="var(--pin-outline)" d="m12.5 0h-7v2.6l1.1 3.4-2.5 2v3.7h4.2v5.6l.7.7.6-.6v-5.6h4.2v-3.7l-2.5-2 1.1-3.3zm-2.6 6.5 2.7 2.2v1.9h-7.1v-1.9l2.7-2.2-1.4-4v-1.2h4.5v1.2z" />
    </symbol>

    <symbol id="share" viewBox="0 0 20 20" fill="currentColor">
        <path d="M6.282 3.7L9.979 0h.002l3.698 3.7-.96.962-2.06-2.06v11.23H9.3V2.602l-2.058 2.06-.96-.962zm6.79 4.633V6.975h3.02l2.467 2.458v8.112L16.092 20H3.869L1.4 17.556V9.495l2.462-2.52h3.026v1.358H4.435l-1.676 1.716v6.939l1.669 1.653h11.103l1.669-1.66V9.997l-1.669-1.664h-2.459z" />
    </symbol>

    <symbol id="external-link" viewBox="0 0 20 20" fill="currentColor">
        <path d="m16.963 18.632 1.67-1.67v-5.237H20v5.804L17.529 20H2.47L0 17.523V2.47L2.47 0h5.804v1.366H3.037l-1.67 1.67V16.96l1.67 1.673h13.926ZM11.725 1.366V0H20v8.274h-1.367v-5.94l-7.805 7.803-.966-.967 7.804-7.804h-5.94Z"/>
    </symbol>
</svg>
