<svg width="32" height="49" viewBox="0 0 32 49" fill="none" xmlns="http://www.w3.org/2000/svg">
    <path fill-rule="evenodd" clip-rule="evenodd" d="M17.5777 3.36024C16.9682 2.75075 16.0319 2.75075 15.4224 3.36024L10.1083 8.67435L8.08995 21.335L2.97065 29.8671C2.65809 30.3881 1.98241 30.557 1.46147 30.2444C0.940529 29.9319 0.771607 29.2562 1.08417 28.7352L5.98441 20.5682L8.04808 7.6233L13.8668 1.8046C15.3354 0.335965 17.6647 0.335965 19.1334 1.8046L24.9607 7.63197L26.8345 21.1231L31.7188 28.9018C32.0418 29.4163 31.8866 30.0952 31.3721 30.4183C30.8576 30.7414 30.1787 30.5862 29.8556 30.0717L24.7203 21.8933L22.8832 8.66569L17.5777 3.36024ZM18.5055 14.6785C17.398 13.571 15.6023 13.571 14.4947 14.6785C13.3872 15.7861 13.3872 17.5817 14.4947 18.6893C15.6023 19.7968 17.398 19.7968 18.5055 18.6893C19.613 17.5817 19.613 15.7861 18.5055 14.6785ZM12.9391 13.1229C14.9058 11.1562 18.0944 11.1562 20.0611 13.1229C22.0278 15.0896 22.0278 18.2782 20.0611 20.2449C18.0944 22.2116 14.9058 22.2116 12.9391 20.2449C10.9724 18.2782 10.9724 15.0896 12.9391 13.1229ZM24.2931 27.4589C24.9006 27.4589 25.3931 27.9514 25.3931 28.5589L25.3931 33.4573C25.3931 34.6586 24.4553 35.5964 23.254 35.5964H21.9842C22.0261 35.7086 22.0501 35.8297 22.0529 35.9562L22.09 37.6261C22.1035 38.2335 21.6221 38.7368 21.0147 38.7503C20.4074 38.7638 19.9041 38.2823 19.8906 37.675L19.8535 36.0051C19.8503 35.8613 19.8748 35.7234 19.9222 35.5964L13.0778 35.5964C13.1225 35.7161 13.1469 35.8457 13.1469 35.981L13.1469 39.3208C13.1469 39.9283 12.6545 40.4208 12.0469 40.4208C11.4394 40.4208 10.9469 39.9283 10.9469 39.3208L10.9469 35.981C10.9469 35.8457 10.9714 35.7161 11.016 35.5964H9.74618C8.54492 35.5964 7.60712 34.6586 7.60712 33.4573L7.60712 28.5589C7.60712 27.9514 8.0996 27.4589 8.70712 27.4589C9.31463 27.4589 9.80712 27.9514 9.80712 28.5589L9.80712 33.3964L23.1931 33.3964L23.1931 28.5589C23.1931 27.9514 23.6855 27.4589 24.2931 27.4589ZM16.5 39.3341C17.1075 39.3341 17.6 39.8266 17.6 40.4341V47.0004C17.6 47.6079 17.1075 48.1004 16.5 48.1004C15.8925 48.1004 15.4 47.6079 15.4 47.0004V40.4341C15.4 39.8266 15.8925 39.3341 16.5 39.3341Z" fill="white"/>
</svg>
