<svg width="1666" height="930" viewBox="0 0 1666 930" fill="none" xmlns="http://www.w3.org/2000/svg">
<path opacity="0.0800549" fill-rule="evenodd" clip-rule="evenodd" d="M1554.99 617.645C1553.14 617.645 1551.63 619.151 1551.63 621.003C1551.63 622.855 1553.14 624.362 1554.99 624.362C1556.84 624.362 1558.35 622.855 1558.35 621.003C1558.35 619.151 1556.84 617.645 1554.99 617.645ZM1554.99 629.035C1550.56 629.035 1546.96 625.432 1546.96 621.004C1546.96 616.575 1550.56 612.972 1554.99 612.972C1559.42 612.972 1563.02 616.575 1563.02 621.004C1563.02 625.432 1559.42 629.035 1554.99 629.035Z" fill="#F2F7F4"/>
<path opacity="0.0800549" fill-rule="evenodd" clip-rule="evenodd" d="M1657.38 917.905C1655.53 917.905 1654.02 919.411 1654.02 921.263C1654.02 923.115 1655.53 924.622 1657.38 924.622C1659.24 924.622 1660.74 923.115 1660.74 921.263C1660.74 919.411 1659.24 917.905 1657.38 917.905ZM1657.38 929.295C1652.95 929.295 1649.35 925.692 1649.35 921.263C1649.35 916.835 1652.95 913.231 1657.38 913.231C1661.81 913.231 1665.42 916.835 1665.42 921.263C1665.42 925.692 1661.81 929.295 1657.38 929.295Z" fill="#F2F7F4"/>
<path opacity="0.0800549" fill-rule="evenodd" clip-rule="evenodd" d="M638.993 4.67359C637.141 4.67359 635.634 6.17972 635.634 8.0317C635.634 9.88369 637.141 11.3898 638.993 11.3898C640.845 11.3898 642.351 9.88369 642.351 8.0317C642.351 6.17972 640.845 4.67359 638.993 4.67359ZM638.993 16.0638C634.563 16.0638 630.96 12.4603 630.96 8.03189C630.96 3.60348 634.563 0 638.993 0C643.423 0 647.025 3.60348 647.025 8.03189C647.025 12.4603 643.423 16.0638 638.993 16.0638Z" fill="#F2F7F4"/>
<path opacity="0.0800549" fill-rule="evenodd" clip-rule="evenodd" d="M369.99 841.3C368.138 841.3 366.631 842.807 366.631 844.659C366.631 846.511 368.138 848.017 369.99 848.017C371.842 848.017 373.348 846.511 373.348 844.659C373.348 842.807 371.842 841.3 369.99 841.3ZM369.99 852.691C365.561 852.691 361.957 849.087 361.957 844.659C361.957 840.23 365.561 836.627 369.99 836.627C374.42 836.627 378.022 840.23 378.022 844.659C378.022 849.087 374.42 852.691 369.99 852.691Z" fill="#F2F7F4"/>
<path opacity="0.0800549" fill-rule="evenodd" clip-rule="evenodd" d="M8.03281 547.078C6.18083 547.078 4.67353 548.584 4.67353 550.436C4.67353 552.288 6.18083 553.794 8.03281 553.794C9.88479 553.794 11.3909 552.288 11.3909 550.436C11.3909 548.584 9.88479 547.078 8.03281 547.078ZM8.03305 558.468C3.60348 558.468 0 554.864 0 550.436C0 546.007 3.60348 542.404 8.03305 542.404C12.4626 542.404 16.0649 546.007 16.0649 550.436C16.0649 554.864 12.4626 558.468 8.03305 558.468Z" fill="#F2F7F4"/>
<path opacity="0.0800549" fill-rule="evenodd" clip-rule="evenodd" d="M878.033 225.674C876.181 225.674 874.674 227.18 874.674 229.032C874.674 230.884 876.181 232.39 878.033 232.39C879.885 232.39 881.391 230.884 881.391 229.032C881.391 227.18 879.885 225.674 878.033 225.674ZM878.033 237.064C873.603 237.064 870 233.46 870 229.032C870 224.603 873.603 221 878.033 221C882.463 221 886.065 224.603 886.065 229.032C886.065 233.46 882.463 237.064 878.033 237.064Z" fill="#F2F7F4"/>
<path opacity="0.0800549" fill-rule="evenodd" clip-rule="evenodd" d="M409.301 365.815C407.449 365.815 405.942 367.322 405.942 369.174C405.942 371.026 407.449 372.532 409.301 372.532C411.153 372.532 412.659 371.026 412.659 369.174C412.659 367.322 411.153 365.815 409.301 365.815ZM409.301 377.205C404.872 377.205 401.268 373.602 401.268 369.173C401.268 364.745 404.872 361.142 409.301 361.142C413.731 361.142 417.333 364.745 417.333 369.173C417.333 373.602 413.731 377.205 409.301 377.205Z" fill="#F2F7F4"/>
<rect opacity="0.172945" x="1615.66" y="290.574" width="4.15105" height="67.8005" transform="rotate(45 1615.66 290.574)" fill="#F2F7F4"/>
<rect opacity="0.172945" x="1377.66" y="821.908" width="4.15105" height="67.8005" transform="rotate(45 1377.66 821.908)" fill="#F2F7F4"/>
<rect opacity="0.172945" x="1288.94" y="503" width="4.15105" height="67.8005" transform="rotate(45 1288.94 503)" fill="#F2F7F4"/>
<rect opacity="0.172945" x="1235.94" y="44" width="4.15105" height="67.8005" transform="rotate(45 1235.94 44)" fill="#F2F7F4"/>
<rect opacity="0.172945" x="1311.25" y="341.77" width="4.15105" height="67.8005" transform="rotate(45 1311.25 341.77)" fill="#F2F7F4"/>
<rect opacity="0.172945" x="53.4768" y="160.507" width="4.15105" height="67.8005" transform="rotate(45 53.4768 160.507)" fill="#F2F7F4"/>
<rect opacity="0.172945" x="234.942" y="339" width="4.15105" height="67.8005" transform="rotate(45 234.942 339)" fill="#F2F7F4"/>
<rect opacity="0.172945" x="53.7957" y="832.978" width="4.15105" height="67.8005" transform="rotate(45 53.7957 832.978)" fill="#F2F7F4"/>
<rect opacity="0.172945" x="527.942" y="623" width="4.15105" height="67.8005" transform="rotate(45 527.942 623)" fill="#F2F7F4"/>
</svg>
