<svg width="100" height="100" viewBox="0 0 100 100" fill="none" xmlns="http://www.w3.org/2000/svg">
<g clip-path="url(#clip0)">
<path d="M68.8396 42.9688C68.8396 40.8113 67.0908 39.0625 64.9334 39.0625H24.699C22.5416 39.0625 20.7927 40.8113 20.7927 42.9688C20.7927 45.1262 22.5416 46.875 24.699 46.875H64.9334C67.0908 46.875 68.8396 45.1262 68.8396 42.9688Z" fill="white"/>
<path d="M24.699 54.6875C22.5416 54.6875 20.7927 56.4363 20.7927 58.5938C20.7927 60.7512 22.5416 62.5 24.699 62.5H49.1347C51.2921 62.5 53.041 60.7512 53.041 58.5938C53.041 56.4363 51.2921 54.6875 49.1347 54.6875H24.699Z" fill="white"/>
<path d="M33.8787 92.1875H20.8145C16.5066 92.1875 13.002 88.6828 13.002 84.375V15.625C13.002 11.3172 16.5066 7.8125 20.8145 7.8125H68.8396C73.1475 7.8125 76.6521 11.3172 76.6521 15.625V39.6484C76.6521 41.8059 78.401 43.5547 80.5584 43.5547C82.7158 43.5547 84.4646 41.8059 84.4646 39.6484V15.625C84.4646 7.00938 77.4553 0 68.8396 0H20.8145C12.1988 0 5.18945 7.00938 5.18945 15.625V84.375C5.18945 92.9906 12.1988 100 20.8145 100H33.8787C36.0361 100 37.785 98.2512 37.785 96.0938C37.785 93.9363 36.0361 92.1875 33.8787 92.1875Z" fill="white"/>
<path d="M91.3837 56.5572C86.8145 51.9881 79.3802 51.9879 74.814 56.5541L53.3681 77.9525C52.9126 78.407 52.5767 78.9668 52.3895 79.5824L47.719 94.9584C47.305 96.3216 47.6657 97.8019 48.6606 98.8216C49.406 99.5855 50.4185 100 51.4569 100C51.8044 100 52.1552 99.9537 52.4995 99.8582L68.2661 95.4908C68.9149 95.3111 69.5063 94.9668 69.9829 94.491L91.3839 73.1302C95.953 68.5611 95.953 61.1267 91.3837 56.5572ZM65.1907 88.2361L57.2587 90.4334L59.58 82.791L74.0505 68.3525L79.5759 73.8779L65.1907 88.2361ZM85.8624 67.6037L85.1056 68.359L79.5811 62.8345L80.3354 62.0818C81.8585 60.5588 84.3366 60.5588 85.8597 62.0818C87.3827 63.6049 87.3827 66.083 85.8624 67.6037Z" fill="#11BA55"/>
<path d="M64.9334 23.4375H24.699C22.5416 23.4375 20.7927 25.1863 20.7927 27.3438C20.7927 29.5012 22.5416 31.25 24.699 31.25H64.9334C67.0908 31.25 68.8396 29.5012 68.8396 27.3438C68.8396 25.1863 67.0908 23.4375 64.9334 23.4375Z" fill="white"/>
</g>
<defs>
<clipPath id="clip0">
<rect width="100" height="100" fill="white"/>
</clipPath>
</defs>
</svg>
