<svg width="100" height="100" viewBox="0 0 100 100" fill="none" xmlns="http://www.w3.org/2000/svg">
<g clip-path="url(#clip0)">
<path d="M94.1063 26.2783L98.6221 23.4577C99.4797 22.9228 100 21.9837 100 20.9728C100 19.9626 99.4797 19.0235 98.6221 18.4879L89.9353 13.0634L89.5805 2.82778C89.5454 1.81765 88.9923 0.897541 88.1172 0.391712C87.2421 -0.113353 86.1687 -0.131664 85.276 0.342884L76.2352 5.15322L67.1936 0.342884C66.3017 -0.131664 65.2275 -0.113353 64.3524 0.392476C63.4773 0.897541 62.9242 1.81765 62.8891 2.82778L62.5343 13.0634L53.8475 18.4879C52.9907 19.0235 52.4696 19.9626 52.4696 20.9728C52.4696 21.9837 52.9907 22.9228 53.8475 23.4577L56.4835 25.1041H37.2398V18.6191C37.2398 17.0017 35.9283 15.6894 34.3102 15.6894H15.4823C13.8641 15.6894 12.5526 17.0017 12.5526 18.6191V25.1041H10.775C4.83398 25.1041 0 29.9373 0 35.8783V89.2246C0 95.1663 4.83398 99.9996 10.775 99.9996H89.2242C95.166 99.9996 100 95.1663 100 89.2246V35.8783C100 31.6944 97.6006 28.062 94.1063 26.2783ZM66.9601 17.2077C67.7864 16.6912 68.3029 15.7977 68.3365 14.8242L68.5829 7.71898L74.8589 11.0584C75.7195 11.5161 76.7517 11.5161 77.6115 11.0584L83.8875 7.71898L84.1339 14.8242C84.1675 15.7977 84.684 16.6912 85.5103 17.2077L91.5398 20.9728L85.5103 24.7379C84.684 25.2544 84.1675 26.1478 84.1339 27.1213L83.8875 34.2266L77.6115 30.8872C76.7509 30.4302 75.7202 30.4302 74.8596 30.8872L68.5829 34.2266L68.3365 27.1213C68.3029 26.1478 67.7864 25.2544 66.9601 24.7379L60.9306 20.9728L66.9601 17.2077ZM18.412 21.5488H31.3805V25.1041H18.412V21.5488ZM94.1406 89.2246C94.1406 91.9353 91.9357 94.1402 89.2242 94.1402H10.775C8.06427 94.1402 5.85938 91.9353 5.85938 89.2246V35.8783C5.85938 33.1684 8.06427 30.9635 10.775 30.9635H62.6068L62.8891 39.1178C62.9242 40.1279 63.4773 41.048 64.3524 41.5538C64.8048 41.8148 65.3107 41.946 65.8173 41.946C66.2895 41.946 66.7625 41.8315 67.1928 41.6027L76.2352 36.7923L85.276 41.6027C86.1679 42.0772 87.2414 42.0589 88.1172 41.5538C88.9923 41.048 89.5454 40.1279 89.5805 39.1178L89.8621 31.0062C92.2722 31.3198 94.1406 33.3843 94.1406 35.8783V89.2246Z" fill="white"/>
<path d="M50 40.7944C36.2724 40.7944 25.1038 51.9623 25.1038 65.6899C25.1038 79.4175 36.2724 90.5862 50 90.5862C63.7276 90.5862 74.8962 79.4175 74.8962 65.6899C74.8962 51.9623 63.7276 40.7944 50 40.7944ZM50 84.7268C39.5035 84.7268 30.9631 76.1864 30.9631 65.6899C30.9631 55.1934 39.5035 46.6538 50 46.6538C60.4965 46.6538 69.0369 55.1934 69.0369 65.6899C69.0369 76.1864 60.4965 84.7268 50 84.7268Z" fill="#11BA55"/>
<path d="M50.0001 50.2085C41.4636 50.2085 34.5186 57.1535 34.5186 65.6901C34.5186 74.2274 41.4636 81.1724 50.0001 81.1724C58.5367 81.1724 65.4825 74.2274 65.4825 65.6901C65.4825 57.1535 58.5367 50.2085 50.0001 50.2085ZM50.0001 75.313C44.6946 75.313 40.3779 70.9963 40.3779 65.6901C40.3779 60.3846 44.6946 56.0679 50.0001 56.0679C55.3064 56.0679 59.6231 60.3846 59.6231 65.6901C59.6231 70.9963 55.3064 75.313 50.0001 75.313Z" fill="white"/>
<path d="M17.0508 34.5186C12.8402 34.5186 9.41382 37.9442 9.41382 42.1556C9.41382 46.3662 12.8402 49.7918 17.0508 49.7918C21.2615 49.7918 24.6879 46.3662 24.6879 42.1556C24.6879 37.9442 21.2615 34.5186 17.0508 34.5186ZM17.0508 43.9325C16.0705 43.9325 15.2732 43.1352 15.2732 42.1548C15.2732 41.1752 16.0705 40.3779 17.0508 40.3779C18.0312 40.3779 18.8285 41.1752 18.8285 42.1548C18.8285 43.1352 18.0312 43.9325 17.0508 43.9325Z" fill="white"/>
</g>
<defs>
<clipPath id="clip0">
<rect width="100" height="100" fill="white"/>
</clipPath>
</defs>
</svg>
