<svg width="100" height="100" viewBox="0 0 100 100" fill="none" xmlns="http://www.w3.org/2000/svg">
<path d="M100 50C100 22.4297 77.5703 0 50 0C39.5737 0 29.6753 3.15018 21.2242 9.13086C19.8799 8.2962 18.2968 7.8125 16.6016 7.8125C11.7554 7.8125 7.8125 11.7554 7.8125 16.6016C7.8125 18.2968 8.2962 19.8799 9.13086 21.2242C3.15018 29.6753 0 39.5737 0 50C0 77.5703 22.4297 100 50 100C60.4263 100 70.3247 96.8498 78.7758 90.8691C80.1201 91.7038 81.7032 92.1875 83.3984 92.1875C88.2446 92.1875 92.1875 88.2446 92.1875 83.3984C92.1875 81.7032 91.7038 80.1201 90.8691 78.7758C96.8498 70.3247 100 60.4263 100 50ZM16.6016 13.6719C18.2167 13.6719 19.5312 14.9864 19.5312 16.6016C19.5312 18.2167 18.2167 19.5312 16.6016 19.5312C14.9864 19.5312 13.6719 18.2167 13.6719 16.6016C13.6719 14.9864 14.9864 13.6719 16.6016 13.6719ZM5.85938 50C5.85938 40.9195 8.56705 32.2937 13.71 24.8993C14.6164 25.2159 15.5884 25.3906 16.6016 25.3906C21.4478 25.3906 25.3906 21.4478 25.3906 16.6016C25.3906 15.5884 25.2159 14.6164 24.8993 13.71C32.2937 8.56705 40.9195 5.85938 50 5.85938C74.3393 5.85938 94.1406 25.6607 94.1406 50C94.1406 59.0805 91.433 67.7063 86.29 75.1007C85.3836 74.7841 84.4116 74.6094 83.3984 74.6094C78.5522 74.6094 74.6094 78.5522 74.6094 83.3984C74.6094 84.4116 74.7841 85.3836 75.1007 86.29C67.7063 91.433 59.0805 94.1406 50 94.1406C25.6607 94.1406 5.85938 74.3393 5.85938 50ZM83.3984 86.3281C81.7833 86.3281 80.4688 85.0136 80.4688 83.3984C80.4688 81.7833 81.7833 80.4688 83.3984 80.4688C85.0136 80.4688 86.3281 81.7833 86.3281 83.3984C86.3281 85.0136 85.0136 86.3281 83.3984 86.3281Z" fill="#11BA55"/>
<path d="M50 17.7734C32.2304 17.7734 17.7734 32.2304 17.7734 50C17.7734 67.7696 32.2304 82.2266 50 82.2266C67.7696 82.2266 82.2266 67.7696 82.2266 50C82.2266 32.2304 67.7696 17.7734 50 17.7734ZM23.6328 50C23.6328 35.4614 35.4614 23.6328 50 23.6328C53.0807 23.6328 56.0387 24.1653 58.7891 25.1411V32.4219C58.7891 34.037 57.4745 35.3516 55.8594 35.3516H44.1406C39.2944 35.3516 35.3516 39.2944 35.3516 44.1406C35.3516 48.9868 39.2944 52.9297 44.1406 52.9297C45.7558 52.9297 47.0703 54.2442 47.0703 55.8594C47.0703 57.4745 45.7558 58.7891 44.1406 58.7891H38.2812C33.7593 58.7891 30.0255 62.2223 29.5456 66.6191C25.8514 62.0804 23.6328 56.295 23.6328 50ZM50 76.3672C44.5839 76.3672 39.5439 74.7246 35.3516 71.9131V67.5781C35.3516 65.963 36.6661 64.6484 38.2812 64.6484H44.1406C48.9868 64.6484 52.9297 60.7056 52.9297 55.8594C52.9297 51.0132 48.9868 47.0703 44.1406 47.0703C42.5255 47.0703 41.2109 45.7558 41.2109 44.1406C41.2109 42.5255 42.5255 41.2109 44.1406 41.2109H55.8594C60.7056 41.2109 64.6484 37.2681 64.6484 32.4219V28.0869C70.9435 32.309 75.3258 39.1678 76.2032 47.0703H67.5781C62.7319 47.0703 58.7891 51.0132 58.7891 55.8594C58.7891 60.7056 62.7319 64.6484 67.5781 64.6484H71.9131C67.1768 71.7094 59.1225 76.3672 50 76.3672ZM76.2032 52.9297C75.9781 54.9606 75.5211 56.9229 74.8589 58.7891H67.5781C65.963 58.7891 64.6484 57.4745 64.6484 55.8594C64.6484 54.2442 65.963 52.9297 67.5781 52.9297H76.2032Z" fill="white"/>
</svg>
