<?xml version="1.0" encoding="utf-8"?>
<!-- Generator: Adobe Illustrator 16.0.0, SVG Export Plug-In . SVG Version: 6.00 Build 0)  -->
<!DOCTYPE svg PUBLIC "-//W3C//DTD SVG 1.1//EN" "http://www.w3.org/Graphics/SVG/1.1/DTD/svg11.dtd">
<svg version="1.1" id="Layer_1" xmlns="http://www.w3.org/2000/svg" xmlns:xlink="http://www.w3.org/1999/xlink" x="0px" y="0px"
	 width="196px" height="100px" viewBox="0 0 196 100" enable-background="new 0 0 196 100" xml:space="preserve">
<g>
	<rect x="32.273" y="25.755" fill="#FFFFFF" width="48.433" height="48.434"/>
	<polygon fill="#DB0011" points="104.922,50.027 80.706,25.755 80.706,74.245 	"/>
	<polygon fill="#DB0011" points="56.489,50.027 80.706,25.755 32.273,25.755 	"/>
	<polygon fill="#DB0011" points="8,50.027 32.273,74.245 32.273,25.755 	"/>
	<polygon fill="#DB0011" points="56.489,50.027 32.273,74.245 80.706,74.245 	"/>
	<path d="M126.178,51.454H117.4v8.66h-4.387V39.829h4.387v8.319h8.777v-8.319h4.386v20.284h-4.386V51.454L126.178,51.454z"/>
	<path d="M141.163,60.512c-4.39,0-7.979-1.764-8.036-6.606h4.389c0.058,2.164,1.311,3.473,3.703,3.473
		c1.769,0,3.817-0.911,3.817-2.905c0-1.596-1.368-2.052-3.646-2.734l-1.481-0.396c-3.19-0.916-6.383-2.169-6.383-5.814
		c0-4.501,4.216-6.04,8.035-6.04c3.932,0,7.35,1.369,7.406,5.868h-4.388c-0.17-1.823-1.254-2.906-3.306-2.906
		c-1.65,0-3.247,0.855-3.247,2.679c0,1.481,1.367,1.937,4.218,2.848l1.707,0.516c3.475,1.083,5.699,2.278,5.699,5.696
		C149.596,58.748,145.15,60.512,141.163,60.512z"/>
	<path d="M152.102,39.886h7.065c1.309-0.057,2.679,0,3.987,0.229c2.452,0.566,4.332,2.165,4.332,4.899
		c0,2.62-1.651,3.931-4.046,4.559c2.732,0.512,4.788,1.88,4.788,4.898c0,4.615-4.561,5.642-8.094,5.642h-7.977L152.102,39.886z
		 M159.168,48.318c1.938,0,3.932-0.397,3.932-2.734c0-2.107-1.825-2.679-3.647-2.679h-3.076v5.413H159.168z M159.566,57.095
		c2.053,0,4.044-0.456,4.044-2.964c0-2.506-1.708-2.961-3.815-2.961h-3.476v5.925H159.566L159.566,57.095z"/>
	<path d="M179.621,60.512c-6.552,0-9.459-4.157-9.459-10.369c0-6.211,3.249-10.712,9.688-10.712c4.044,0,7.978,1.821,8.09,6.382
		h-4.556c-0.229-2.052-1.596-3.078-3.534-3.078c-3.99,0-5.184,4.272-5.184,7.52c0,3.249,1.195,7.012,5.013,7.012
		c1.994,0,3.477-1.083,3.762-3.135H188C187.545,58.805,183.839,60.512,179.621,60.512z"/>
</g>
</svg>
