<svg width="48" height="48" viewBox="0 0 48 48" fill="none" xmlns="http://www.w3.org/2000/svg">
    <path fill-rule="evenodd" clip-rule="evenodd" d="M28 8H20V16H28V8ZM20 6C18.8954 6 18 6.89543 18 8V11.3103C12.1376 13.6833 8 19.4308 8 26.1469C8 27.12 8.08698 28.0736 8.25381 29H7C5.89543 29 5 29.8954 5 31V39C5 40.1046 5.89543 41 7 41H15C15.6102 41 16.1565 40.7268 16.5233 40.296C18.7554 41.4777 21.3006 42.1469 24 42.1469C26.6994 42.1469 29.2446 41.4777 31.4767 40.296C31.8435 40.7268 32.3898 41 33 41H41C42.1046 41 43 40.1046 43 39V31C43 29.8954 42.1046 29 41 29H39.7462C39.913 28.0736 40 27.12 40 26.1469C40 19.4308 35.8624 13.6833 30 11.3103V8C30 6.89543 29.1046 6 28 6H20ZM31 31.3105V38.2742C28.9413 39.4652 26.5515 40.1469 24 40.1469C21.4485 40.1469 19.0587 39.4652 17 38.2742V31.8685L21.1449 29.1052L22.2724 31.038C23.0441 32.361 24.9557 32.361 25.7275 31.038L26.9638 28.9187L31 31.3105ZM27.9715 27.1911L31.7561 29.4338C32.0975 29.1622 32.5298 29 33 29H37.7093C37.8997 28.0797 38 27.1255 38 26.1469C38 20.5634 34.7309 15.7413 30 13.4939V16C30 17.1046 29.1046 18 28 18H25V21.9995H27.5179C29.0615 21.9995 30.0232 23.674 29.2454 25.0073L27.9715 27.1911ZM23 21.9995V18H20C18.8954 18 18 17.1046 18 16V13.4939C13.2691 15.7413 10 20.5634 10 26.1469C10 27.1255 10.1002 28.0797 10.2907 29H15C15.6338 29 16.1987 29.2948 16.5651 29.7547L20.1354 27.3746L18.7545 25.0073C17.9767 23.674 18.9384 21.9995 20.482 21.9995H23ZM7 31H15V39H7L7 31ZM41 31H33V39H41V31Z" fill="white"/>
</svg>
