<svg xmlns="http://www.w3.org/2000/svg" width="48" height="48" viewBox="0 0 48 48" fill="none">
    <path fill-rule="evenodd" clip-rule="evenodd" d="M6.99994 31.9333V36H4.99994V30.9333C4.99994 30.6681 5.1053 30.4138 5.29283 30.2262C5.48037 30.0387 5.73473 29.9333 5.99994 29.9333L17.9999 29.9333C18.5522 29.9333 18.9999 30.381 18.9999 30.9333L18.9999 36H16.9999L16.9999 31.9333L6.99994 31.9333Z" fill="#11BA55"/>
    <path fill-rule="evenodd" clip-rule="evenodd" d="M12.9999 16V20H10.9999V15C10.9999 14.4477 11.4477 14 11.9999 14L35.9999 14C36.5522 14 36.9999 14.4477 36.9999 15V20H34.9999V16L12.9999 16Z" fill="#11BA55"/>
    <path fill-rule="evenodd" clip-rule="evenodd" d="M30.9999 31.9333L30.9999 36H28.9999L28.9999 30.9333C28.9999 30.6681 29.1053 30.4138 29.2928 30.2262C29.4804 30.0387 29.7347 29.9333 29.9999 29.9333L41.9999 29.9333C42.5522 29.9333 42.9999 30.381 42.9999 30.9333V36H40.9999V31.9333L30.9999 31.9333Z" fill="#11BA55"/>
    <path d="M4.27239 35.9615C5.04414 34.6385 6.95574 34.6385 7.7275 35.9615L11.2454 41.9923C12.0232 43.3256 11.0614 45 9.51787 45H2.48202C0.938435 45 -0.0233078 43.3256 0.754458 41.9923L4.27239 35.9615Z" fill="#11BA55"/>
    <path fill-rule="evenodd" clip-rule="evenodd" d="M29.9999 43C31.6568 43 32.9999 41.6569 32.9999 40C32.9999 38.3431 31.6568 37 29.9999 37C28.3431 37 26.9999 38.3431 26.9999 40C26.9999 41.6569 28.3431 43 29.9999 43ZM24.9999 40C24.9999 42.7614 27.2385 45 29.9999 45C32.7614 45 34.9999 42.7614 34.9999 40C34.9999 37.2386 32.7614 35 29.9999 35C27.2385 35 24.9999 37.2386 24.9999 40Z" fill="#11BA55"/>
    <path fill-rule="evenodd" clip-rule="evenodd" d="M8.99994 21V27H14.9999V21H8.99994ZM6.99994 27C6.99994 28.1046 7.89537 29 8.99994 29H14.9999C16.1045 29 16.9999 28.1046 16.9999 27L16.9999 21C16.9999 19.8954 16.1045 19 14.9999 19H8.99994C7.89537 19 6.99994 19.8954 6.99994 21V27Z" fill="#11BA55"/>
    <path fill-rule="evenodd" clip-rule="evenodd" d="M20.9999 5L20.9999 11H26.9999L26.9999 5L20.9999 5ZM18.9999 11C18.9999 12.1046 19.8954 13 20.9999 13H26.9999C28.1045 13 28.9999 12.1046 28.9999 11L28.9999 5C28.9999 3.89543 28.1045 3 26.9999 3L20.9999 3C19.8954 3 18.9999 3.89543 18.9999 5L18.9999 11Z" fill="#11BA55"/>
    <path fill-rule="evenodd" clip-rule="evenodd" d="M14.9999 37V43H20.9999L20.9999 37H14.9999ZM12.9999 43C12.9999 44.1046 13.8954 45 14.9999 45H20.9999C22.1045 45 22.9999 44.1046 22.9999 43L22.9999 37C22.9999 35.8954 22.1045 35 20.9999 35H14.9999C13.8954 35 12.9999 35.8954 12.9999 37V43Z" fill="#11BA55"/>
    <path d="M40.2724 35.9615C41.0441 34.6385 42.9557 34.6385 43.7275 35.9615L47.2454 41.9923C48.0232 43.3256 47.0614 45 45.5179 45H38.482C36.9384 45 35.9767 43.3256 36.7545 41.9923L40.2724 35.9615Z" fill="#11BA55"/>
    <path d="M34.2724 19.9615C35.0441 18.6385 36.9557 18.6385 37.7275 19.9615L41.2454 25.9923C42.0232 27.3256 41.0614 29 39.5179 29H32.482C30.9384 29 29.9767 27.3256 30.7545 25.9923L34.2724 19.9615Z" fill="#11BA55"/>
</svg>
