<svg version="1.1" xmlns="http://www.w3.org/2000/svg" xmlns:xlink="http://www.w3.org/1999/xlink">

	<symbol id="arrow" viewBox="0 0 14 14" fill="currentColor">
        <path fill-rule="evenodd" clip-rule="evenodd" d="M0.6,6.5L7,0.1l6.4,6.4l-0.7,0.7L7.5,1.9v12.2H6.5V1.9L1.3,7.2 L0.6,6.5z"/>
	</symbol>

	<symbol id="arrow-bold" viewBox="0 0 20 16" fill="currentColor">
		<path d="m0 16 10-16 10 16z"/>
	</symbol>

	<symbol id="assist" viewBox="0 0 20 20" fill="currentColor">
        <path d="M13.66 9.28c0 .26-.22.48-.48.48H6.9c-.26 0-.48-.22-.48-.48V5.9c0-.28.22-.48.48-.48h6.28c.26 0 .48.2.48.48v3.38zm.281-6.001a.957.957 0 0 0-.68-.279H6.818c-.26 0-.5.1-.68.279L4.28 5.139a.947.947 0 0 0-.28.68v11.082c0 .06.04.099.1.099h2.22c.06 0 .1-.04.1-.1v-4.24c0-.278.22-.48.48-.48h6.28c.26 0 .48.202.48.48v4.24c0 .06.04.1.101.1h2.22c.04 0 .08-.04.08-.1V5.82c0-.26-.1-.5-.282-.68l-1.838-1.86z"/>
	</symbol>

	<symbol id="audio" viewBox="0 0 20 15.9" fill="currentColor">
		<path d="m6.6 0-3.1 3.2v3.7h-1l-2.5 2.5v4.1l2.5 2.5h3.7v-9h-1.4v-3.3l2.4-2.4h5.6l2.4 2.4v3.2h-1.4v9h3.7l2.5-2.5v-4l-2.5-2.5h-1v-3.7l-3.1-3.2zm8.6 8.3h1.8l1.7 1.7v2.9l-1.7 1.6h-1.8zm-13.8 4.6v-3l1.6-1.6h1.8v6.3h-1.8z"/>
	</symbol>

	<symbol id="behind" viewBox="0 0 20 20">
        <path fill="var(--color-symbol-behind-1)" d="m17.5 0 2.5 2.5v15.1l-2.5 2.4h-15l-2.5-2.5v-15l2.5-2.5zm-5 4.2h-7.1s-.1 0-.1.1v10.6s0 .1.1.1h7.1c.2 0 .4-.1.5-.2l1.4-1.4c.1-.1.2-.3.2-.5v-2c0-.2-.1-.4-.2-.5l-.6-.7v-.1l.6-.7c.2-.1.2-.3.2-.5v-2c0-.2-.1-.4-.2-.5l-1.4-1.5c-.1-.1-.3-.2-.5-.2zm0 6.3c.2 0 .3.2.3.4v1.9c0 .2-.2.4-.4.4h-4.8c-.2 0-.4-.2-.4-.4v-1.9c0-.2.2-.4.4-.4h.9zm-.1-4.4c.2 0 .4.2.4.4v1.9c0 .1-.1.3-.2.3h-.1-4.9c-.1 0-.2 0-.3-.1v-.1-.1-1.9c0-.1.1-.2.2-.3.1 0 .1-.1.2-.1z"/>
        <path fill="var(--color-symbol-behind-2)" d="m12.8 8.3c0 .1-.1.3-.2.3h-.1-4.9c-.1 0-.2 0-.3-.1v-.1-.1-1.8c0-.1.1-.2.2-.3.1 0 .1-.1.2-.1h4.8c.2 0 .4.2.4.4-.1 0-.1 1.8-.1 1.8zm0 4.4c0 .2-.2.4-.4.4h-4.8c-.2 0-.4-.2-.4-.4v-1.9c0-.2.2-.4.4-.4h.9 4c.2 0 .3.2.3.4zm.2-8.3c-.1-.1-.3-.2-.5-.2h-7.1s-.1 0-.1.1v10.6s0 .1.1.1h7.1c.2 0 .4-.1.5-.2l1.4-1.4c.1-.1.2-.3.2-.5v-2c0-.2-.1-.4-.2-.5l-.6-.7v-.1l.6-.7c.2-.1.2-.3.2-.5v-2c0-.2-.1-.4-.2-.5z"/>
	</symbol>

    <symbol id="corner" viewBox="0 0 20 20">
        <path fill="#555e61" d="M0 20h1.373V0H0z"/>
        <path fill="#dc0000" d="M11.723 0v10.354H20l-4.83-5.177L20 0zM2.756 11.733h7.587V1.38H2.756z" />
    </symbol>

	<symbol id="info" viewBox="0 0 20 20" fill="currentColor">
		<path d="m10 0c5.5 0 10 4.5 10 10s-4.5 10-10 10-10-4.5-10-10 4.5-10 10-10zm0 1.4c-4.8 0-8.6 3.9-8.6 8.6 0 4.8 3.9 8.6 8.6 8.6 4.8 0 8.6-3.9 8.6-8.6 0-4.8-3.8-8.6-8.6-8.6zm1 5.5v6.2h2.1v2.1h-6.2v-2.1h2.1v-4.1h-2.1v-2.1zm0-3.5v2.1h-2v-2.1z"/>
	</symbol>

	<symbol id="injury" viewBox="0 0 20 20" fill="currentColor">
		<path d="m7.2 0v7.2h-7.2v5.5h7.2v7.3h5.5v-7.2h7.3v-5.6h-7.2v-7.2z"/>
	</symbol>

	<symbol id="lineup" viewBox="0 0 20 17.2" fill="currentColor" preserveAspectRatio="xMidYMid meet">
		<path d="m7.2 0 2.1 2.1h1.5l2-2.1h4l3.2 3.2v7.2h-4.1v-1.4h2.8v-5.3l-2.4-2.4h-2.9l-2.1 2.1h-2.6l-2.1-2h-2.9l-2.3 2.3v5.3h2.8v-2.8h1.4v9.7h9v-9.7h1.4v11h-11.9v-6.9h-4.1v-7.1l3.2-3.2z"/>
	</symbol>

	<symbol id="next-stage" viewBox="0 0 20 20" fill="currentColor">
		<path d="m17.5 0 2.5 2.5v15.1l-2.5 2.4h-15l-2.5-2.5v-15l2.5-2.5zm-.5 1.4h-14l-1.6 1.6v14l1.6 1.6h14l1.7-1.7v-13.9c-.1 0-1.7-1.6-1.7-1.6zm-7 2 5.9 5.9-1 1-4.2-4.2v9.8h-1.4v-9.8l-4.2 4.2-1-1z"/>
	</symbol>

	<symbol id="penalty-2-min" viewBox="0 0 20 20">
		<path fill="var(--color-yellow)" d="M13.884 8.47a.36.36 0 0 1-.184.322l-5.705 3.71c-.031.016-.031.046-.031.063v.475c0 .045.03.076.078.076h5.765c.046 0 .077.032.077.077v1.703c0 .045-.031.076-.077.076H6.185a.072.072 0 0 1-.076-.076v-3.252c0-.015.015-.046.03-.061l5.858-3.772c.016-.015.032-.031.032-.063V6.46c0-.2-.17-.368-.37-.368H6.186c-.045 0-.076-.03-.076-.076V4.315c0-.046.03-.077.076-.077h5.536c.2 0 .384.077.522.214l1.426 1.426a.733.733 0 0 1 .215.522v2.07zM17.527 0H2.473L0 2.47v15.059l2.47 2.47h15.06L20 17.53V2.472L17.527 0z" />
        <path fill="#00141E" d="M12.243 4.452a.733.733 0 0 0-.522-.215H6.185a.073.073 0 0 0-.077.077v1.702c0 .046.031.077.077.077h5.475c.2 0 .368.168.368.368v1.287c0 .031-.015.048-.03.062l-5.859 3.773a.12.12 0 0 0-.03.06v3.252c0 .045.03.077.076.077h7.622a.074.074 0 0 0 .077-.077v-1.703c0-.045-.032-.076-.077-.076H8.041c-.046 0-.077-.03-.077-.076v-.476c0-.016 0-.047.031-.06L13.7 8.791a.361.361 0 0 0 .184-.322V6.4a.73.73 0 0 0-.215-.522l-1.426-1.426z" />
    </symbol>

	<symbol id="penalty-5-min" viewBox="0 0 20 20">
        <path fill="var(--color-yellow)" d="M13.887 12.81a.726.726 0 0 1-.215.52l-1.426 1.427a.727.727 0 0 1-.522.215H6.187c-.046 0-.077-.03-.077-.076v-1.703c0-.045.03-.076.077-.076h5.476c.2 0 .368-.17.368-.37v-1.855c0-.2-.168-.367-.368-.367H6.187c-.046 0-.077-.031-.077-.063v-6.15c0-.046.03-.077.077-.077h6.887c.03 0 .077.03.077.077v1.702c0 .046-.046.077-.077.077H8.043a.073.073 0 0 0-.077.076v2.44c0 .03.03.076.077.076h3.68c.2 0 .385.076.523.215l1.426 1.412a.752.752 0 0 1 .215.52v1.98zM17.527 0H2.474L0 2.47v15.059l2.47 2.47h15.06L20 17.53V2.472L17.528 0z"/>
        <path fill="#00141E" d="M12.246 8.898a.73.73 0 0 0-.522-.215H8.043c-.047 0-.077-.046-.077-.076v-2.44c0-.044.03-.076.077-.076h5.031c.03 0 .076-.031.076-.077V4.312c0-.046-.046-.077-.076-.077H6.186c-.045 0-.076.03-.076.077v6.15c0 .032.031.063.076.063h5.477c.199 0 .368.167.368.367v1.857a.374.374 0 0 1-.368.368H6.186a.072.072 0 0 0-.076.076v1.703c0 .046.031.076.076.076h5.538a.73.73 0 0 0 .522-.215l1.426-1.425a.734.734 0 0 0 .215-.522v-1.98a.757.757 0 0 0-.215-.52l-1.426-1.412z" />
    </symbol>

	<symbol id="penalty-10-min" viewBox="0 0 20 20">
		<path fill="var(--color-yellow)" d="m17.5 0 2.5 2.5v15.1l-2.5 2.4h-15l-2.5-2.5v-15l2.5-2.5zm-1.5 4.2h-3.5c-.2 0-.4.1-.5.2l-1.4 1.4c-.1.1-.2.3-.2.5v6.4c0 .2.1.4.2.5l1.4 1.4c.1.1.3.2.5.2h3.5c.2 0 .4-.1.5-.2l1.4-1.4c.1-.1.2-.3.2-.5v-6.3c0-.2-.1-.4-.2-.5l-1.4-1.4c-.1-.2-.3-.3-.5-.3zm-11.5 0h-2.6s-.1 0-.1.1v1.7s0 .1.1.1h2.5c.2 0 .4.2.4.4v6.5s0 .1-.1.1h-2.8s-.1 0-.1.1v1.7s0 .1.1.1h7.6s.1 0 .1-.1v-1.7s0-.1-.1-.1h-2.8s-.1 0-.1-.1v-6.6c0-.2-.1-.4-.2-.5l-1.4-1.5c-.1-.1-.3-.2-.5-.2zm11.4 1.9c.2 0 .4.2.4.4v6.3c0 .2-.2.4-.4.4h-3.3c-.2 0-.4-.2-.4-.4v-6.3c0-.2.2-.4.4-.4z"/>
		<path fill="#000000" d="m16 4.2c.2 0 .4.1.5.2l1.4 1.4c.1.1.2.3.2.5v6.4c0 .2-.1.4-.2.5l-1.4 1.4c-.1.3-.3.4-.5.4h-3.5c-.2 0-.4-.1-.5-.2l-1.4-1.4c-.1-.1-.2-.3-.2-.5v-6.5c0-.2.1-.4.2-.5l1.4-1.5c.1-.1.3-.2.5-.2zm-11.5 0c.2 0 .4.1.5.2l1.4 1.4c.2.2.3.4.3.6v6.6s0 .1.1.1h2.8s.1 0 .1.1v1.7s0 .1-.1.1h-7.7s-.1 0-.1-.1v-1.7s0-.1.1-.1h2.8s.1 0 .1-.1v-6.5c0-.2-.2-.4-.4-.4h-2.5s-.1 0-.1-.1v-1.7s0-.1.1-.1zm11.4 1.9h-3.3c-.2 0-.4.2-.4.4v6.3c0 .2.2.4.4.4h3.3c.2 0 .4-.2.4-.4v-6.3c0-.2-.2-.4-.4-.4z"/>
	</symbol>

    <symbol id="penalty-10-min-misconduct" viewBox="0 0 20 20">
        <path fill="var(--color-red)" d="M17.528 0L20 2.472v15.057L17.531 20H2.47L0 17.529V2.47L2.473 0h15.055zm-1.53 4.235h-3.451c-.199 0-.384.077-.522.215l-1.426 1.426c-.139.138-.215.323-.215.521v6.413c0 .199.076.383.215.521l1.426 1.426c.138.139.323.215.522.215h3.451c.2 0 .384-.076.522-.215l1.426-1.426c.139-.138.215-.322.215-.521V6.397c0-.198-.076-.383-.215-.521L16.52 4.45c-.138-.138-.322-.215-.522-.215zm-11.508 0H1.913c-.045 0-.077.031-.077.077v1.702c0 .046.032.077.077.077h2.516c.2 0 .368.168.368.368v6.58c0 .046-.031.078-.076.078H1.913c-.045 0-.077.031-.077.076v1.703c0 .046.032.076.077.076h7.624c.046 0 .077-.03.077-.076v-1.703c0-.045-.031-.076-.077-.076H6.73c-.046 0-.077-.032-.077-.078V6.397c0-.198-.076-.383-.215-.521L5.012 4.45c-.138-.138-.322-.215-.522-.215zm11.447 1.856c.2 0 .368.168.368.368v6.29c0 .197-.169.367-.368.367h-3.329c-.214 0-.368-.17-.368-.368V6.46c0-.2.154-.368.368-.368z" transform="translate(-560.000000, -1769.000000) translate(559.999900, 1768.999800)"/>
        <path fill="#ffffff" d="M15.998 4.234c.2 0 .384.077.522.215l1.426 1.427c.14.138.215.322.215.52v6.414c0 .2-.076.382-.215.521l-1.426 1.426c-.138.138-.322.215-.522.215h-3.45c-.2 0-.385-.077-.523-.215L10.6 13.331c-.139-.139-.215-.322-.215-.52V6.395c0-.198.076-.382.215-.52l1.426-1.427c.138-.138.322-.215.522-.215zm-11.508 0c.2 0 .384.078.522.216l1.426 1.427c.139.137.215.322.215.52v6.643c0 .046.03.077.077.077h2.808c.045 0 .076.03.076.076v1.703c0 .046-.031.076-.076.076H1.913c-.045 0-.077-.03-.077-.076v-1.703c0-.045.032-.076.077-.076H4.72c.046 0 .076-.031.076-.077V6.46c0-.2-.168-.368-.368-.368H1.913c-.045 0-.077-.032-.077-.078V4.312c0-.046.032-.077.077-.077zm11.447 1.857H12.61c-.215 0-.369.168-.369.368v6.29c0 .197.154.367.37.367h3.327c.2 0 .368-.17.368-.368V6.46c0-.2-.168-.368-.368-.368z" transform="translate(-560.000000, -1769.000000) translate(559.999900, 1768.999800)"/>
    </symbol>

	<symbol id="card" viewBox="0 0 13.1 20" fill="currentColor">
		<path d="m2.5 0-2.5 2.5v15.1l2.5 2.4h8.2l2.5-2.5v-15l-2.6-2.5z"/>
	</symbol>

    <symbol id="red-yellow-card" viewBox="0 0 20 20">
        <path fill="#ffcd00" d="m5.97 0L3.5 2.5 3.5 17.5 5.97 20 14.1 20 16.6 17.5 16.6 2.5 14.1 0" />
        <path fill="#dc0000" d="m5.97 0L3.5 2.5 3.5 17.5 16.6 2.5 14.1 0"/>
    </symbol>

    <symbol id="stopwatch" viewBox="0 0 20 20" fill="currentColor">
        <path d="M12.88 0v1.374h-2.418v2.145a8.167 8.167 0 0 1 3.626 1.176l1.533-2.016 1.094.83-1.525 2.008c1.738 1.518 2.861 3.724 2.861 6.208 0 4.562-3.713 8.275-8.276 8.275S1.5 16.287 1.5 11.725c0-4.328 3.351-7.851 7.588-8.206V1.374H6.671V0h6.209zM9.775 4.823c-3.805 0-6.901 3.097-6.901 6.902a6.91 6.91 0 0 0 6.901 6.901 6.908 6.908 0 0 0 6.901-6.901c0-3.805-3.095-6.902-6.901-6.902zm.684 1.384v5.517H9.095V6.207h1.366z"/>
	</symbol>

	<symbol id="substitution" viewBox="0 0 20 20">
        <path d="M18.7371,4.2131 L17.4301,7.3681 C16.3871,4.2251 13.4281,2.0001 9.9991,2.0001 C6.6971,2.0001 3.7311,4.0861 2.6181,7.1931 L3.9041,7.6531 C4.8241,5.0891 7.2731,3.3671 9.9991,3.3671 C12.8881,3.3671 15.3741,5.2781 16.1851,7.9591 L12.9381,6.6151 L12.4161,7.8771 L17.7791,10.0981 L20.0001,4.7361 L18.7371,4.2131 Z" id="Fill-1" fill="#DC0000"/>
        <path d="M10.0022,16.3088 C7.1122,16.3088 4.6262,14.3968 3.8152,11.7168 L7.0622,13.0628 L7.5852,11.7998 L2.2222,9.5788 L2.2212,9.5788 L1.9022,10.3488 L1.6982,10.8398 L1.6992,10.8398 L0.0002,14.9418 L1.2622,15.4648 L2.5702,12.3088 C3.6132,15.4528 6.5722,17.6758 10.0022,17.6758 C13.3032,17.6758 16.2692,15.5888 17.3812,12.4828 L16.0952,12.0228 C15.1762,14.5858 12.7282,16.3088 10.0022,16.3088" id="Fill-4" fill="#14DC4B"/>
    </symbol>

	<symbol id="stream" viewBox="0 0 20 20" fill="currentColor">
        <path d="M17.527 3 20 5.471v9.539l-2.469 2.47H2.469L0 15.01V5.471L2.473 3h15.054zm-.569 1.373H3.041L1.374 6.04v8.4l1.666 1.666h13.921l1.664-1.666v-8.4l-1.667-1.667zM7.586 6.471l5.87 3.77-5.87 3.77V6.47z" />
	</symbol>

	<symbol id="stream-locked" viewBox="0 0 20 20" fill="currentColor">
        <path d="M15.518 11.084a2.952 2.952 0 0 1 2.95 2.945H20v4.138l-2.072 2.073H13.1l-2.07-2.07v-4.14h1.538a2.952 2.952 0 0 1 2.949-2.946zm0 4.33c-.594 0-1.076.482-1.076 1.076 0 .356.183.657.45.852v1.52h1.253v-1.519c.266-.196.45-.497.45-.853 0-.594-.482-1.076-1.076-1.076zM17.526 3l2.473 2.47v8.498a4.465 4.465 0 0 0-1.376-3.161V6.041l-1.666-1.667H3.042L1.375 6.041v8.4l1.665 1.665h6.614v1.374H2.47L0 15.01V5.47L2.472 3h15.053zm-2.007 9.458c-.867 0-1.571.705-1.573 1.571h3.147a1.575 1.575 0 0 0-1.574-1.57zM7.584 6.471l5.87 3.769-5.87 3.77V6.47z" />
	</symbol>

	<symbol id="var" viewBox="0 0 20 13.1" fill="currentColor">
		<path d="m17.5 0 2.5 2.5v8.2l-2.5 2.5h-15l-2.5-2.6v-8.1l2.5-2.5zm-.5 1.4h-14l-1.6 1.6v7l1.6 1.7h14l1.7-1.7v-7zm-13.8 2.3c.1 0 .1 0 0 0l1.1 4.6h.5l1-4.6h1l-1.1 5.6h-2.1l-1.4-5.6zm7.8 0c.1 0 .2 0 .3.1l.7.8c.1.1.1.2.1.3v4.4h-.9v-1.7c0-.1-.1-.2-.2-.2h-2.5c-.1 0-.2.1-.2.2v1.7h-1v-4.5c0-.1 0-.2.1-.3l.7-.7c.1-.1.2-.1.3-.1zm5.6 0c.1 0 .2 0 .3.1l.7.7c.1.1.1.2.1.3v1c0 .1 0 .2-.1.3l-.7.7c-.1.1-.2.2-.3.2h-.2l1.3 2.3h-1.1l-1.3-2.3h-1.2c-.1 0-.2.1-.2.2v2.1h-.9v-5.6zm-5.6 1h-2.5c-.1 0-.2.1-.2.2v1.4c0 .1.1.2.2.2h2.5c.1 0 .2-.1.2-.2v-1.4c0-.2-.1-.2-.2-.2zm5.6 0h-2.5c-.1 0-.2.1-.2.2v1s.1.1.2.1h2.5c.1 0 .2-.1.2-.2v-1c0-.1-.1-.1-.2-.1z"/>
	</symbol>

	<symbol id="warning" viewBox="0 0 20 17.3">
		<path fill="var(--color-red)" d="m9.4 0-9.4 16.3.6 1h18.9l.6-1-9.5-16.3zm-.4 12.1h2v-7.2h-2zm0 3.3h2v-2h-2z"/>
		<path fill="var(--color-white)" d="m11 13.2v2h-2v-2zm0-8.5v7.2h-2v-7.2z"/>
	</symbol>

	<symbol id="whistle" viewBox="0 0 20 20" fill="currentColor">
		<path d="m2 5.1 1.7 1.7c.9-.8 2.1-1.3 3.4-1.3 1.2 0 2.4.5 3.5 1.5l.4.5.3.3.5.5.2.2.6.6.2.2.8.8.2.2.9.9.2.2.4.4 1.6 1.6.4.4.2.2.5.5 1.5 1.6.1.1-3.7 3.8h-3.2l-4.1-4c-1 1-2.3 1.5-3.7 1.5-1.3 0-2.6-.5-3.5-1.5-1.9-2-2-4.8-.2-6.8l.4-.4-1.6-1.7zm5.1 1.8c-1 0-2 .4-2.7 1.1l-2.1 2.1c-1.3 1.4-1.2 3.4.2 4.9.6.7 1.5 1.1 2.5 1.1s2-.4 2.7-1.1h1.9l3.7 3.6h2.1l2.5-2.5-6-6-3 3-1.9-1.9 3-3-.4-.3c-.9-.8-1.9-1-2.5-1zm12.4-1.1.5 1.2-4.9 2-.5-1.3c0 .1 4.9-1.9 4.9-1.9zm-2.6-3.6 1 1-3.7 3.7-1-1c-.1 0 3.7-3.7 3.7-3.7zm-3.9-2.2 1.3.5-2 4.9-1.3-.5z"/>
	</symbol>

    <symbol id="tv" viewBox="0 0 14 14" fill="currentColor">
        <path d="M1.729 1.4L0 3.13v5.23l1.73 1.73h4.79v1.454H1.448v.961h11.107v-.961H7.482V10.09h4.788L14 8.36V3.13L12.272 1.4H1.729zM.962 7.961V3.53L2.128 2.36h9.745l1.165 1.168V7.96l-1.166 1.166H2.129L.962 7.961z" />
    </symbol>

    <symbol id="preview" viewBox="0 0 44 14">
        <path stroke="var(--color-stroke)" fill="var(--color-fill)" d="m.5.5h43v13h-43z"/>
        <g text-anchor="middle" fill="currentColor">
            <text x="50%" y="9.5">PREVIEW</text>
        </g>
    </symbol>

    <symbol id="liveBet" viewBox="0 0 26 22" fill="none">
        <rect width="26" height="22" rx="4" fill="var(--color-symbol-fill)"/>
        <path d="M5.74949 14H2.17649V8.159H3.25649V13.055H5.74949V14ZM7.65532 14H6.57532V8.159H7.65532V14ZM11.6918 14H10.5038L8.46076 8.159H9.60376L11.1248 12.641L12.6458 8.159H13.7258L11.6918 14ZM18.228 13.055V14H14.538V8.159H18.192V9.113H15.618V10.58H18.003V11.516H15.618V13.055H18.228Z" fill="var(--color-symbol-text)" />
        <path d="M20.5 8.29311L22.9658 11.0002L20.5005 13.7069L20.7678 14L23.5 11.0002L20.7672 8L20.5 8.29251L20.5 8.29311Z" fill="var(--color-symbol-text)" stroke="var(--color-symbol-text)" stroke-width="0.7" />
        <rect x="0.5" y="0.5" width="25" height="21" rx="3.5" stroke="var(--color-symbol-stroke)"/>
    </symbol>

	<symbol id="jersey" viewBox="0 0 14 14" fill="currentColor">
        <path d="m7.2 1.5l2.1 2.1h1.5L12.8 1.5h4L20 4.7v7.2h-4.1v-1.4h2.8V5.2l-2.4-2.4H13.4l-2.1 2.1H8.7l-2.1-2.1H3.7L1.4 5.2v5.2h2.8v-2.8h1.4v9.7h8.98V7.7h1.4v11H4.1l-0-6.9H0V4.7L3.2 1.5h4z"/>
    </symbol>

    <svg id="suspended" viewBox="0 0 20 20" fill="currentColor">
        <path d="m10 18.6080847c-2.13012931 0-4.0769779-.7819977-5.5819163-2.0669993l12.0812545-12.16984011c1.3104571 1.51104776 2.1097647 3.47622442 2.1097647 5.62773648 0 4.74697083-3.8621321 8.60910293-8.6091029 8.60910293m0-17.21820587c2.0955096 0 4.0158843.75348743 5.5106405 2.00285103l-12.07514513 12.16271254c-1.27278282-1.5018837-2.04459831-3.43855-2.04459831-5.55646063 0-4.74697077 3.86213216-8.60910294 8.60910294-8.60910294m0-1.38987883c-5.51471337 0-10 4.48528663-10 9.99898177 0 5.51369513 4.48528663 9.99898173 10 9.99898173 5.5136951 0 10-4.4852866 10-9.99898173 0-5.51369514-4.4863049-9.99898177-10-9.99898177"/>
    </svg>

    <svg id="matchRating" viewBox="0 0 20 20" fill="currentColor">
        <path fill-rule="evenodd" clip-rule="evenodd" d="M5.54125 17.2327H1.33731V14.9392L2.36119 13.9665L8.08579 12.6223V11.1827L7.83488 10.993C5.9445 9.56253 5.02292 6.10317 5.90191 3.73652C6.32056 2.60811 7.33396 1.26337 9.78305 1.26337V1.32693C12.2516 1.32693 13.273 2.73922 13.695 3.92431H13.6951C14.5157 6.22671 13.7676 9.49141 12.1404 11.1574L13.2831 11.8901C15.1256 9.82236 15.9225 6.16644 14.9669 3.4842C14.1663 1.23777 12.3254 0 9.78305 0C7.26077 0 5.43452 1.17857 4.64011 3.31755C3.63778 6.01741 4.56409 9.77478 6.62081 11.6636L1.67672 12.8246L0 14.4168V18.4957H4.44478L5.54125 17.2327ZM12.2431 13.9448L15.2856 15.8024L19.9999 10.569V12.4614L15.5362 17.4171L12.5123 15.5699L8.66754 20H6.98779L12.2431 13.9448Z"/>
    </svg>

    <svg id="careerRating" viewBox="0 0 20 20" fill="currentColor">
        <path d="M4.37021 17L3.20851 15.7489L4.60851 14.3489C4.07234 13.7135 3.66525 13.0284 3.38723 12.2936C3.12908 11.5589 3 10.7645 3 9.91064C3 8.63972 3.3078 7.48794 3.9234 6.45532C4.55887 5.40284 5.40284 4.5688 6.45532 3.95319C7.5078 3.31773 8.65958 3 9.91064 3C10.7248 3 11.4993 3.13901 12.234 3.41702C12.9887 3.67518 13.6837 4.07234 14.3191 4.60851L15.8383 3.08936L16.9702 4.37021L15.4809 5.85958C15.9376 6.47518 16.2752 7.12057 16.4936 7.79575C16.7121 8.45106 16.8213 9.15603 16.8213 9.91064C16.8213 11.1617 16.5035 12.3135 15.8681 13.366C15.2525 14.4184 14.4184 15.2624 13.366 15.8979C12.3333 16.5135 11.1816 16.8213 9.91064 16.8213C9.15603 16.8213 8.44113 16.7121 7.76596 16.4936C7.09078 16.2752 6.45532 15.9475 5.85957 15.5106L4.37021 17ZM5.91915 13.0383L13.0085 5.94894C12.5319 5.59149 12.0355 5.32341 11.5191 5.14468C11.0227 4.96596 10.4865 4.8766 9.91064 4.8766C8.97731 4.8766 8.1234 5.10497 7.34894 5.5617C6.59433 5.99858 5.98865 6.60426 5.53191 7.37872C5.09504 8.13333 4.8766 8.9773 4.8766 9.91064C4.8766 10.4865 4.95603 11.0426 5.11489 11.5787C5.29362 12.095 5.5617 12.5816 5.91915 13.0383ZM9.91064 14.9447C10.8241 14.9447 11.6582 14.7262 12.4128 14.2894C13.1872 13.8326 13.8028 13.227 14.2596 12.4723C14.7163 11.6979 14.9447 10.844 14.9447 9.91064C14.9447 9.41418 14.8752 8.94752 14.7362 8.51064C14.617 8.0539 14.4284 7.61702 14.1702 7.2L7.2 14.1702C7.59716 14.4284 8.02411 14.627 8.48085 14.766C8.93759 14.8851 9.41419 14.9447 9.91064 14.9447Z"/>
    </svg>

    <symbol id="liveBetDesktop" viewBox="0 0 24 24">
        <path stroke="none" fill="none" d="M.5.5h25v13H.5V.5z"/>
        <g text-anchor="middle" fill="currentColor">
            <text x="50%" y="15">LIVE</text>
        </g>
    </symbol>

    <symbol id="liveBetMobile" viewBox="0 0 24 24">
        <path d="m25.5.5h-25v25h25z"/>
        <g text-anchor="middle" fill="currentColor">
            <text x="50%" y="15">LIVE</text>
        </g>
    </symbol>
</svg>
