<svg version="1.1" xmlns="http://www.w3.org/2000/svg" xmlns:xlink="http://www.w3.org/1999/xlink">

    <symbol id="jersey" viewBox="0 0 20 20" fill="currentColor">
        <path d="M7.181,1.5 L9.251,3.576 L10.75,3.576 L12.82,1.5 L16.839,1.5 L20,4.665 L20,11.845 L15.864,11.845 L15.864,10.471 L18.626,10.471 L18.626,5.235 L16.269,2.874 L13.39,2.874 L11.32,4.951 L8.681,4.951 L6.611,2.874 L3.732,2.874 L1.375,5.235 L1.375,10.469 L4.137,10.469 L4.1376,7.7082 L5.5116,7.7082 L5.5116,17.3692 L14.4886,17.3692 L14.4886,7.7082 L15.8626,7.7082 L15.8626,18.7432 L4.1376,18.7432 L4.137,11.843 L0,11.843 L0,4.665 L3.162,1.5 L7.181,1.5 Z" />
    </symbol>

    <symbol id="jerseyWhite" viewBox="0 0 16 16">
        <path fill-rule="evenodd" clip-rule="evenodd" fill="#DFDFDF" d="M12,6.2v8.7H4V6.3L2.9,7.6L0.5,5.9l2.3-3.1l2.7-1.5h4.9l2.7,1.5 l2.3,3.1l-2.3,1.7L12,6.2z"/>
        <path opacity="0.15" d="M5.6,1.2C6,2.6,6.4,3.9,8,3.9c1.6,0,2-1.3,2.4-2.7C10.4,1.2,5.6,1.2,5.6,1.2z"/>
    </symbol>

    <symbol id="jerseySilver" viewBox="0 0 16 16">
        <path fill-rule="evenodd" clip-rule="evenodd" fill="#AAAAAA" d="M12,6.2v8.7H4V6.3L2.9,7.6L0.5,5.9l2.3-3.1l2.7-1.5h4.9l2.7,1.5 l2.3,3.1l-2.3,1.7L12,6.2z"/>
        <path opacity="0.3" d="M5.6,1.2C6,2.6,6.4,3.9,8,3.9c1.6,0,2-1.3,2.4-2.7C10.4,1.2,5.6,1.2,5.6,1.2z"/>
    </symbol>

    <symbol id="jerseyBlack" viewBox="0 0 16 16">
        <path fill-rule="evenodd" clip-rule="evenodd" fill="#3D3D3D" d="M12,6.2v8.7H4V6.3L2.9,7.6L0.5,5.9l2.3-3.1l2.7-1.5h4.9l2.7,1.5 l2.3,3.1l-2.3,1.7L12,6.2z"/>
        <path opacity="0.698" d="M5.6,1.2C6,2.6,6.4,3.9,8,3.9c1.6,0,2-1.3,2.4-2.7C10.4,1.2,5.6,1.2,5.6,1.2z"/>
    </symbol>

    <symbol id="jerseyYellow" viewBox="0 0 16 16">
        <path fill-rule="evenodd" clip-rule="evenodd" fill="#F4D42C" d="M12,6.2v8.7H4V6.3L2.9,7.6L0.5,5.9l2.3-3.1l2.7-1.5h4.9l2.7,1.5 l2.3,3.1l-2.3,1.7L12,6.2z"/>
        <path opacity="0.15" d="M5.6,1.2C6,2.6,6.4,3.9,8,3.9c1.6,0,2-1.3,2.4-2.7C10.4,1.2,5.6,1.2,5.6,1.2z"/>
    </symbol>

    <symbol id="jerseyGold" viewBox="0 0 16 16">
        <path fill-rule="evenodd" clip-rule="evenodd" fill="#FCB008" d="M12,6.2v8.7H4V6.3L2.9,7.6L0.5,5.9l2.3-3.1l2.7-1.5h4.9l2.7,1.5 l2.3,3.1l-2.3,1.7L12,6.2z"/>
        <path opacity="0.15" d="M5.6,1.2C6,2.6,6.4,3.9,8,3.9c1.6,0,2-1.3,2.4-2.7C10.4,1.2,5.6,1.2,5.6,1.2z"/>
    </symbol>

    <symbol id="jerseyOchre" viewBox="0 0 16 16">
        <path fill-rule="evenodd" clip-rule="evenodd" fill="#EE6E05" d="M12,6.2v8.7H4V6.3L2.9,7.6L0.5,5.9l2.3-3.1l2.7-1.5h4.9l2.7,1.5 l2.3,3.1l-2.3,1.7L12,6.2z"/>
        <path opacity="0.15" d="M5.6,1.2C6,2.6,6.4,3.9,8,3.9c1.6,0,2-1.3,2.4-2.7C10.4,1.2,5.6,1.2,5.6,1.2z"/>
    </symbol>

    <symbol id="jerseyRed" viewBox="0 0 16 16">
        <path fill-rule="evenodd" clip-rule="evenodd" fill="#EE171D" d="M12,6.2v8.7H4V6.3L2.9,7.6L0.5,5.9l2.3-3.1l2.7-1.5h4.9l2.7,1.5 l2.3,3.1l-2.3,1.7L12,6.2z"/>
        <path opacity="0.25" d="M5.6,1.2C6,2.6,6.4,3.9,8,3.9c1.6,0,2-1.3,2.4-2.7C10.4,1.2,5.6,1.2,5.6,1.2z"/>
    </symbol>

    <symbol id="jerseyPink" viewBox="0 0 16 16">
        <path fill-rule="evenodd" clip-rule="evenodd" fill="#F08DF4" d="M12,6.2v8.7H4V6.3L2.9,7.6L0.5,5.9l2.3-3.1l2.7-1.5h4.9l2.7,1.5 l2.3,3.1l-2.3,1.7L12,6.2z"/>
        <path opacity="0.2" d="M5.6,1.2C6,2.6,6.4,3.9,8,3.9c1.6,0,2-1.3,2.4-2.7C10.4,1.2,5.6,1.2,5.6,1.2z"/>
    </symbol>

    <symbol id="jerseyTurquoise" viewBox="0 0 16 16">
        <path fill-rule="evenodd" clip-rule="evenodd" fill="#13BAF3" d="M12,6.2v8.7H4V6.3L2.9,7.6L0.5,5.9l2.3-3.1l2.7-1.5h4.9l2.7,1.5 l2.3,3.1l-2.3,1.7L12,6.2z"/>
        <path opacity="0.2" d="M5.6,1.2C6,2.6,6.4,3.9,8,3.9c1.6,0,2-1.3,2.4-2.7C10.4,1.2,5.6,1.2,5.6,1.2z"/>
    </symbol>

    <symbol id="jerseyBlue" viewBox="0 0 16 16">
        <path fill-rule="evenodd" clip-rule="evenodd" fill="#1D46F8" d="M12,6.2v8.7H4V6.3L2.9,7.6L0.5,5.9l2.3-3.1l2.7-1.5h4.9l2.7,1.5 l2.3,3.1l-2.3,1.7L12,6.2z"/>
        <path opacity="0.4" d="M5.6,1.2C6,2.6,6.4,3.9,8,3.9c1.6,0,2-1.3,2.4-2.7C10.4,1.2,5.6,1.2,5.6,1.2z"/>
    </symbol>

    <symbol id="jerseyGreen" viewBox="0 0 16 16">
        <path fill-rule="evenodd" clip-rule="evenodd" fill="#6EDB3C" d="M12,6.2v8.7H4V6.3L2.9,7.6L0.5,5.9l2.3-3.1l2.7-1.5h4.9l2.7,1.5 l2.3,3.1l-2.3,1.7L12,6.2z"/>
        <path opacity="0.2" d="M5.6,1.2C6,2.6,6.4,3.9,8,3.9c1.6,0,2-1.3,2.4-2.7C10.4,1.2,5.6,1.2,5.6,1.2z"/>
    </symbol>

    <symbol id="jerseyRedPolkaDot" viewBox="0 0 16 16">
        <path fill-rule="evenodd" clip-rule="evenodd" fill="#FFFFFF"
              d="M12,6.2v8.7H4V6.3L2.9,7.6L0.5,5.9l2.3-3.1l2.7-1.5h4.9l2.7,1.5 l2.3,3.1l-2.3,1.7L12,6.2z"/>
        <path fill="none" d="M11.4,3.9c-0.8,0-1.5-0.6-1.5-1.5c-0.4,0.9-0.9,1.5-2,1.5c-0.6,0-1.1-0.2-1.4-0.5C6.4,3.7,6,3.9,5.5,3.9
	c-0.6,0-1-0.3-1.3-0.7L3.6,3.5L3.2,4.1C3.6,4.2,4,4.7,4,5.2l1-1V7c0.2-0.1,0.3-0.1,0.5-0.1C6.3,6.9,7,7.6,7,8.4S6.4,9.9,5.5,9.9
	c-0.2,0-0.3,0-0.5-0.1v3.2c0.2-0.1,0.3-0.1,0.5-0.1c0.6,0,1.2,0.4,1.4,1h3.2c0.2-0.4,0.5-0.7,0.9-0.9V9.8c-0.6-0.2-1-0.8-1-1.4
	s0.4-1.2,1-1.4V4.2l2.2,2.1l0,0c-0.2-0.2-0.3-0.5-0.3-0.9c0-0.3,0.1-0.6,0.3-0.8l-0.8-1C12.2,3.8,11.9,3.9,11.4,3.9z M8.5,12.9
	c-0.8,0-1.5-0.7-1.5-1.5s0.7-1.5,1.5-1.5s1.5,0.7,1.5,1.5S9.4,12.9,8.5,12.9z M8.5,6.8C7.7,6.8,7,6.2,7,5.3s0.7-1.5,1.5-1.5
	s1.5,0.7,1.5,1.5S9.4,6.8,8.5,6.8z"/>
        <path fill="#B0B0B0" d="M5,7V4.2l-1,1c0,0.1,0,0.1,0,0.2c0,0.8-0.7,1.5-1.5,1.5S1,6.2,1,5.3V5.2L0.6,5.8l2.3,1.7l1.1-1v1.8
	C4,7.8,4.5,7.2,5,7z"/>
        <path fill="#B0B0B0" d="M3.2,4.1l0.4-0.6l0.6-0.3C4.1,2.9,4,2.7,4,2.4c0-0.1,0-0.2,0-0.3L3,2.7L2,4c0.2-0.1,0.3-0.1,0.5-0.1
	C2.8,3.9,3,4,3.2,4.1z"/>
        <path fill="#B0B0B0" d="M5,13V9.8C4.4,9.6,4,9,4,8.4v6C4,13.8,4.5,13.2,5,13z"/>
        <path fill="#B0B0B0" d="M10.6,1.3L10.6,1.3l-0.1-0.1c0,0.1,0,0.1-0.1,0.2C10.4,1.4,10.4,1.3,10.6,1.3z"/>
        <path fill="#B0B0B0" d="M10.1,13.9H6.9C7,14.1,7,14.2,7,14.4s0,0.3-0.1,0.5h3.2c0-0.1-0.1-0.3-0.1-0.5S10.1,14,10.1,13.9z"/>
        <path fill="#B0B0B0" d="M12.4,3.5l0.8,1c0.2-0.3,0.5-0.5,0.8-0.6l-0.9-1.1L13,2.6C12.9,3,12.8,3.2,12.4,3.5z"/>
        <path fill="#B0B0B0" d="M4,14.9L4,14.9c0-0.1,0-0.3,0-0.5V14.9z"/>
        <path fill="#B0B0B0" d="M10.9,9.8V13c0.2-0.1,0.3-0.1,0.5-0.1s0.3,0,0.5,0.1V9.8c-0.2,0.1-0.3,0.1-0.5,0.1S11.2,9.9,10.9,9.8z"/>
        <path fill="#B0B0B0" d="M13.2,6.2L13.2,6.2l-2.3-2V7c0.2-0.1,0.3-0.1,0.5-0.1s0.3,0,0.5,0.1V6.5l1.2,1.1l1-0.7
	C13.8,6.8,13.4,6.6,13.2,6.2z"/>
        <path fill="#EE171D" d="M4,5.2c0-0.5-0.4-0.9-0.8-1.1C3,4,2.8,3.9,2.5,3.9C2.2,3.9,2.2,3.9,2,4L1,5.2v0.1c0,0.8,0.7,1.5,1.5,1.5
	S4,6.2,4,5.3C4,5.2,4,5.2,4,5.2z"/>
        <circle fill="#EE171D" cx="8.4" cy="5.3" r="1.5"/>
        <path fill="#EE171D" d="M14.1,3.9c-0.3,0.1-0.6,0.3-0.8,0.6C13.1,4.7,13,5,13,5.3s0.1,0.6,0.3,0.9s0.5,0.5,0.9,0.6l1.3-1L14.1,3.9z"
        />
        <path fill="#EE171D" d="M5.5,6.8c-0.2,0-0.3,0-0.5,0.1C4.4,7.1,4,7.8,4,8.4c0,0.6,0.4,1.2,1,1.4c0.2,0.1,0.3,0.1,0.5,0.1
	C6.3,9.9,7,9.2,7,8.4S6.4,6.8,5.5,6.8z"/>
        <circle fill="#EE171D" cx="8.4" cy="11.4" r="1.5"/>
        <path fill="#EE171D" d="M11.4,6.8c-0.2,0-0.3,0-0.5,0.1c-0.6,0.2-1,0.8-1,1.4c0,0.6,0.4,1.2,1,1.4c0.2,0.1,0.3,0.1,0.5,0.1
	s0.3,0,0.5-0.1V7C11.9,6.8,11.7,6.8,11.4,6.8z"/>
        <path fill="#EE171D" d="M6.9,13.9c-0.2-0.6-0.8-1-1.4-1c-0.2,0-0.3,0-0.5,0.1c-0.6,0.2-1,0.8-1,1.4c0,0.2,0,0.3,0.1,0.5h2.8
	c0-0.1,0.1-0.3,0.1-0.5S7,14,6.9,13.9z"/>
        <path fill="#EE171D" d="M11.4,12.9c-0.2,0-0.3,0-0.5,0.1c-0.4,0.1-0.7,0.5-0.9,0.9c-0.1,0.2-0.1,0.3-0.1,0.5s0,0.3,0.1,0.5h1.9V13
	C11.9,12.9,11.7,12.9,11.4,12.9z"/>
        <path opacity="0.399" d="M10.4,1.2L10.4,1.2c-0.3,0-2.8,0-4.1,0l0,0H10.4z"/>
        <path fill="#B0B0B0" d="M7,2.2h3c0-0.3,0.2-0.6,0.4-0.8c0-0.1,0-0.1,0.1-0.2h-4C6.7,1.4,7,1.8,7,2.2z"/>
        <path fill="#EE171D" d="M5.6,1.2h0.8l0,0C6,1.2,5.7,1.2,5.6,1.2L5.6,1.2z"/>
        <path opacity="0.399" d="M5.6,1.2h0.8l0,0C6,1.2,5.7,1.2,5.6,1.2L5.6,1.2z"/>
        <path fill="#EE171D" d="M6.9,2.1c0-0.4-0.3-0.8-0.6-1H5.5l0,0L4,2c0,0.1,0,0.2,0,0.3c0,0.3,0.1,0.5,0.2,0.8c0.3,0.4,0.7,0.7,1.3,0.7
	c0.5,0,0.9-0.2,1.1-0.5S7,2.7,7,2.3C6.9,2.2,6.9,2.2,6.9,2.1z"/>
        <path fill="#EE171D" d="M10.6,1.3c-0.1,0-0.1,0.1-0.2,0.1c-0.2,0.2-0.3,0.5-0.3,0.8c0,0.1,0,0.1,0,0.2l0,0c0,0.8,0.7,1.5,1.5,1.5
	c0.4,0,0.7-0.1,1-0.4c0.2-0.2,0.4-0.5,0.5-0.8L10.6,1.3z"/>
        <path opacity="0.399" d="M6.4,1.2H5.6c0.1,0.3,0.2,0.7,0.3,1c0.2,0.5,0.4,0.9,0.7,1.2
	C6.9,3.7,7.4,3.9,8,3.9c1.1,0,1.6-0.6,2-1.5c0-0.1,0.1-0.2,0.1-0.2c0.1-0.2,0.2-0.5,0.3-0.8c0-0.1,0-0.1,0.1-0.2
	C10.5,1.2,6.4,1.2,6.4,1.2z"/>
    </symbol>

    <symbol id="jerseyBluePolkaDot" viewBox="0 0 16 16">
        <path fill-rule="evenodd" clip-rule="evenodd" fill="#FFFFFF"
              d="M12,6.2v8.7H4V6.3L2.9,7.6L0.5,5.9l2.3-3.1l2.7-1.5h4.9l2.7,1.5 l2.3,3.1l-2.3,1.7L12,6.2z"/>
        <path fill="none" d="M11.4,3.9c-0.8,0-1.5-0.6-1.5-1.5c-0.4,0.9-0.9,1.5-2,1.5c-0.6,0-1.1-0.2-1.4-0.5C6.4,3.7,6,3.9,5.5,3.9
	c-0.6,0-1-0.3-1.3-0.7L3.6,3.5L3.2,4.1C3.6,4.2,4,4.7,4,5.2l1-1V7c0.2-0.1,0.3-0.1,0.5-0.1C6.3,6.9,7,7.6,7,8.4S6.4,9.9,5.5,9.9
	c-0.2,0-0.3,0-0.5-0.1v3.2c0.2-0.1,0.3-0.1,0.5-0.1c0.6,0,1.2,0.4,1.4,1h3.2c0.2-0.4,0.5-0.7,0.9-0.9V9.8c-0.6-0.2-1-0.8-1-1.4
	s0.4-1.2,1-1.4V4.2l2.2,2.1l0,0c-0.2-0.2-0.3-0.5-0.3-0.9c0-0.3,0.1-0.6,0.3-0.8l-0.8-1C12.2,3.8,11.9,3.9,11.4,3.9z M8.5,12.9
	c-0.8,0-1.5-0.7-1.5-1.5s0.7-1.5,1.5-1.5s1.5,0.7,1.5,1.5S9.4,12.9,8.5,12.9z M8.5,6.8C7.7,6.8,7,6.2,7,5.3s0.7-1.5,1.5-1.5
	s1.5,0.7,1.5,1.5S9.4,6.8,8.5,6.8z"/>
        <path fill="#B0B0B0" d="M5,7V4.2l-1,1c0,0.1,0,0.1,0,0.2c0,0.8-0.7,1.5-1.5,1.5S1,6.2,1,5.3V5.2L0.6,5.8l2.3,1.7l1.1-1v1.8
	C4,7.8,4.5,7.2,5,7z"/>
        <path fill="#B0B0B0" d="M3.2,4.1l0.4-0.6l0.6-0.3C4.1,2.9,4,2.7,4,2.4c0-0.1,0-0.2,0-0.3L3,2.7L2,4c0.2-0.1,0.3-0.1,0.5-0.1
	C2.8,3.9,3,4,3.2,4.1z"/>
        <path fill="#B0B0B0" d="M5,13V9.8C4.4,9.6,4,9,4,8.4v6C4,13.8,4.5,13.2,5,13z"/>
        <path fill="#B0B0B0" d="M10.6,1.3L10.6,1.3l-0.1-0.1c0,0.1,0,0.1-0.1,0.2C10.4,1.4,10.4,1.3,10.6,1.3z"/>
        <path fill="#B0B0B0" d="M10.1,13.9H6.9C7,14.1,7,14.2,7,14.4s0,0.3-0.1,0.5h3.2c0-0.1-0.1-0.3-0.1-0.5S10.1,14,10.1,13.9z"/>
        <path fill="#B0B0B0" d="M12.4,3.5l0.8,1c0.2-0.3,0.5-0.5,0.8-0.6l-0.9-1.1L13,2.6C12.9,3,12.8,3.2,12.4,3.5z"/>
        <path fill="#B0B0B0" d="M4,14.9L4,14.9c0-0.1,0-0.3,0-0.5V14.9z"/>
        <path fill="#B0B0B0" d="M10.9,9.8V13c0.2-0.1,0.3-0.1,0.5-0.1s0.3,0,0.5,0.1V9.8c-0.2,0.1-0.3,0.1-0.5,0.1S11.2,9.9,10.9,9.8z"/>
        <path fill="#B0B0B0" d="M13.2,6.2L13.2,6.2l-2.3-2V7c0.2-0.1,0.3-0.1,0.5-0.1s0.3,0,0.5,0.1V6.5l1.2,1.1l1-0.7
	C13.8,6.8,13.4,6.6,13.2,6.2z"/>
        <path fill="#1d8bf8" d="M4,5.2c0-0.5-0.4-0.9-0.8-1.1C3,4,2.8,3.9,2.5,3.9C2.2,3.9,2.2,3.9,2,4L1,5.2v0.1c0,0.8,0.7,1.5,1.5,1.5
	S4,6.2,4,5.3C4,5.2,4,5.2,4,5.2z"/>
        <circle fill="#1d8bf8" cx="8.4" cy="5.3" r="1.5"/>
        <path fill="#1d8bf8" d="M14.1,3.9c-0.3,0.1-0.6,0.3-0.8,0.6C13.1,4.7,13,5,13,5.3s0.1,0.6,0.3,0.9s0.5,0.5,0.9,0.6l1.3-1L14.1,3.9z"
        />
        <path fill="#1d8bf8" d="M5.5,6.8c-0.2,0-0.3,0-0.5,0.1C4.4,7.1,4,7.8,4,8.4c0,0.6,0.4,1.2,1,1.4c0.2,0.1,0.3,0.1,0.5,0.1
	C6.3,9.9,7,9.2,7,8.4S6.4,6.8,5.5,6.8z"/>
        <circle fill="#1d8bf8" cx="8.4" cy="11.4" r="1.5"/>
        <path fill="#1d8bf8" d="M11.4,6.8c-0.2,0-0.3,0-0.5,0.1c-0.6,0.2-1,0.8-1,1.4c0,0.6,0.4,1.2,1,1.4c0.2,0.1,0.3,0.1,0.5,0.1
	s0.3,0,0.5-0.1V7C11.9,6.8,11.7,6.8,11.4,6.8z"/>
        <path fill="#1d8bf8" d="M6.9,13.9c-0.2-0.6-0.8-1-1.4-1c-0.2,0-0.3,0-0.5,0.1c-0.6,0.2-1,0.8-1,1.4c0,0.2,0,0.3,0.1,0.5h2.8
	c0-0.1,0.1-0.3,0.1-0.5S7,14,6.9,13.9z"/>
        <path fill="#1d8bf8" d="M11.4,12.9c-0.2,0-0.3,0-0.5,0.1c-0.4,0.1-0.7,0.5-0.9,0.9c-0.1,0.2-0.1,0.3-0.1,0.5s0,0.3,0.1,0.5h1.9V13
	C11.9,12.9,11.7,12.9,11.4,12.9z"/>
        <path opacity="0.399" d="M10.4,1.2L10.4,1.2c-0.3,0-2.8,0-4.1,0l0,0H10.4z"/>
        <path fill="#B0B0B0" d="M7,2.2h3c0-0.3,0.2-0.6,0.4-0.8c0-0.1,0-0.1,0.1-0.2h-4C6.7,1.4,7,1.8,7,2.2z"/>
        <path fill="#1d8bf8" d="M5.6,1.2h0.8l0,0C6,1.2,5.7,1.2,5.6,1.2L5.6,1.2z"/>
        <path opacity="0.399" d="M5.6,1.2h0.8l0,0C6,1.2,5.7,1.2,5.6,1.2L5.6,1.2z"/>
        <path fill="#1d8bf8" d="M6.9,2.1c0-0.4-0.3-0.8-0.6-1H5.5l0,0L4,2c0,0.1,0,0.2,0,0.3c0,0.3,0.1,0.5,0.2,0.8c0.3,0.4,0.7,0.7,1.3,0.7
	c0.5,0,0.9-0.2,1.1-0.5S7,2.7,7,2.3C6.9,2.2,6.9,2.2,6.9,2.1z"/>
        <path fill="#1d8bf8" d="M10.6,1.3c-0.1,0-0.1,0.1-0.2,0.1c-0.2,0.2-0.3,0.5-0.3,0.8c0,0.1,0,0.1,0,0.2l0,0c0,0.8,0.7,1.5,1.5,1.5
	c0.4,0,0.7-0.1,1-0.4c0.2-0.2,0.4-0.5,0.5-0.8L10.6,1.3z"/>
        <path opacity="0.399" d="M6.4,1.2H5.6c0.1,0.3,0.2,0.7,0.3,1c0.2,0.5,0.4,0.9,0.7,1.2
	C6.9,3.7,7.4,3.9,8,3.9c1.1,0,1.6-0.6,2-1.5c0-0.1,0.1-0.2,0.1-0.2c0.1-0.2,0.2-0.5,0.3-0.8c0-0.1,0-0.1,0.1-0.2
	C10.5,1.2,6.4,1.2,6.4,1.2z"/>
    </symbol>

    <symbol id="man" viewBox="0 0 20 20" fill="#2f5491" stroke="#2f5491">
        <path d="M10.012 20H20v-4.731l-1.48-1.394-5.915-1.379v-.697C16.301 9.025 16.555 0 10.012 0h-.024c-6.542 0-6.29 9.025-2.594 11.799v.697l-5.915 1.379L0 15.269V20H10.012z" />
    </symbol>

    <symbol id="woman" viewBox="0 0 20 20" fill="#eb0037" stroke="#eb0037">
        <path d="M18.519 13.847l-4.28-.994-1.642-.381v-.696l.624-.255c.325-.132.662-.268 1.019-.41.594-.236 1.226-.483 1.871-.724 0-.232-.002-.477-.008-.729C16.012 5.864 15.12 0 10 0S3.989 5.864 3.898 9.658c-.006.252-.009.497-.009.729 1.291.483 2.527.984 3.515 1.389v.696l-2.258.524-3.664.851L0 15.238v4.763h20v-4.763l-1.481-1.391z" />
    </symbol>

    <symbol id="men-double" viewBox="0 0 20 20" fill="#2f5491" stroke="#2f5491">
        <path d="M18.631 18.634h-3.815v-2.387l-1.098-1.105-4.387-1.093v-.554c2.322-1.864 3.061-7.273.06-8.885.029-.895.272-1.694.712-2.254.513-.658 1.289-.991 2.303-.991 1.403 0 2.335.627 2.771 1.864.639 1.81-.044 4.558-1.406 5.652l-.256.205v1.376l4.425 1.103.691.697v6.372zm.012-8.302l-3.504-.873c1.457-1.625 2.08-4.555 1.329-6.685C15.837.985 14.394 0 12.406 0 10.97 0 9.8.524 9.025 1.515c-.558.711-.882 1.645-.974 2.68-.208-.027-.413-.058-.644-.058-5.22 0-4.664 7.158-1.923 9.358v.554l-4.387 1.093L0 16.247V20h20v-8.301l-1.357-1.367z" />
    </symbol>

    <symbol id="women-double" viewBox="0 0 20 20" fill="#eb0037" stroke="#eb0037">
        <path d="M18.636 18.634h-3.857v-2.41l-1.095-1.103-4.376-1.091v-.551c.73-.321 1.643-.718 2.597-1.101 0-2.412-.325-6.391-2.658-7.755.528-2.153 1.578-3.258 3.152-3.258 2.792 0 3.483 3.464 3.542 6.56-.742.305-1.442.609-2.019.861l-.409.181v1.496l4.431 1.104.692.696v6.371zm.006-8.303l-3.08-.765c.418-.179.863-.366 1.319-.548l.428-.172v-.463c0-7.294-3.076-8.383-4.91-8.383-1.63 0-3.584.797-4.453 4.191-.18-.025-.361-.047-.557-.047-4.035 0-4.515 5.288-4.515 8.234.954.383 1.867.78 2.597 1.101v.551l-4.376 1.091L0 16.224V20h20v-8.302l-1.358-1.367z" />
    </symbol>

    <symbol id="mix" viewBox="0 0 20 20">
        <path fill="#2f5491" stroke="#2f5491" d="M18.646 10.332l-3.497-.873c1.454-1.624 2.076-4.555 1.327-6.685C15.846.984 14.405 0 12.42 0c-1.433 0-2.601.522-3.375 1.515-.556.71-.88 1.644-.971 2.678.51.083.952.268 1.338.521.013-.936.254-1.776.709-2.36.513-.657 1.287-.99 2.299-.99 1.4 0 2.332.627 2.767 1.863.638 1.812-.044 4.56-1.404 5.654l-.255.204v1.377l4.417 1.102.689.697v6.372h-3.837V20H20v-8.3l-1.354-1.367z" />
        <path fill="#eb0037" stroke="#eb0037" d="M14.797 16.199l-1.096-1.101-4.382-1.088v-.552c.731-.32 1.645-.716 2.601-1.1 0-2.353-.314-6.2-2.509-7.642-.385-.254-.826-.438-1.337-.522-.214-.035-.438-.057-.675-.057-4.041 0-4.521 5.282-4.521 8.222.955.383 1.869.78 2.6 1.099v.552l-4.382 1.088L0 16.198v3.803h14.797v-3.802z" />
    </symbol>

    <symbol id="lightbulb" xmlns="http://www.w3.org/2000/svg" viewBox="0 0 32 36">
        <path fill="#FFD15C"
              d="M19.805 27.525c.45-1.5 1.35-2.85 2.55-3.9a10.245 10.245 0 0 0 3.675-7.875c0-5.85-4.875-10.65-10.875-10.35-5.325.225-9.675 4.725-9.825 10.05-.075 3.3 1.35 6.225 3.675 8.175 1.275 1.05 2.175 2.4 2.625 3.9h8.175z"/>
        <path fill="#FFF"
              d="M14.705 27.675h.675l-3-11.175h.225c.375 0 .75-.15 1.05-.45.15-.15.3-.225.525-.225.225 0 .375.075.525.225.525.6 1.425.6 1.95 0 .15-.15.3-.225.525-.225a.81.81 0 0 1 .525.225c.3.3.6.45 1.05.45h.225l-2.925 11.175h.675l3.075-11.7c0-.15 0-.3-.15-.375-.15-.075-.3 0-.375.075-.15.15-.3.225-.45.225-.225 0-.375-.075-.6-.225-.3-.3-.6-.45-.975-.45s-.675.15-.975.45c-.3.3-.75.3-1.05 0-.225-.3-.6-.45-.975-.45s-.75.15-.975.45a.852.852 0 0 1-.6.225c-.15 0-.375-.075-.45-.225-.075-.075-.225-.15-.375-.075s-.225.225-.15.375l3 11.7z"/>
        <g fill="#344A5E">
            <path d="M13.355 34.425c.375.9 1.275 1.575 2.325 1.575 1.05 0 1.95-.675 2.325-1.575h-4.65z"/>
            <path d="M18.455 34.5H12.98c-.75 0-1.35-.6-1.35-1.35v-5.7h8.175v5.7c0 .75-.6 1.35-1.35 1.35z"/>
        </g>
        <g fill="#415A6B">
            <path d="M19.73 30.3h-8.1a.832.832 0 0 1-.825-.825c0-.45.375-.825.825-.825h8.1c.45 0 .825.375.825.825 0 .45-.375.825-.825.825zM19.73 32.925h-8.1a.832.832 0 0 1-.825-.825c0-.45.375-.825.825-.825h8.1c.45 0 .825.375.825.825 0 .45-.375.825-.825.825z"/>
        </g>
        <g fill="#FFD15C">
            <path d="M15.68 0c-.375 0-.75.3-.75.75V3.3c0 .375.3.75.75.75s.75-.3.75-.75V.75c0-.45-.375-.75-.75-.75zM5.63 4.575c-.3-.3-.75-.3-1.05 0-.3.3-.3.75 0 1.05l1.8 1.8c.3.3.75.3 1.05 0 .3-.3.3-.75 0-1.05l-1.8-1.8zM3.305 14.925H.755c-.375 0-.75.3-.75.75 0 .375.3.75.75.75h2.55c.375 0 .75-.3.75-.75 0-.375-.375-.75-.75-.75zM6.38 23.925l-1.8 1.8c-.3.3-.3.75 0 1.05.3.3.75.3 1.05 0l1.8-1.8c.3-.3.3-.75 0-1.05-.3-.3-.75-.3-1.05 0zM24.98 23.925c-.3-.3-.75-.3-1.05 0-.3.3-.3.75 0 1.05l1.8 1.8c.3.3.75.3 1.05 0 .3-.3.3-.75 0-1.05l-1.8-1.8zM30.605 14.925h-2.55c-.375 0-.75.3-.75.75 0 .375.3.75.75.75h2.55c.375 0 .75-.3.75-.75 0-.375-.3-.75-.75-.75zM25.73 4.575l-1.8 1.8c-.3.3-.3.75 0 1.05.3.3.75.3 1.05 0l1.8-1.8c.3-.3.3-.75 0-1.05-.3-.3-.75-.3-1.05 0z"/>
        </g>
    </symbol>
</svg>
