<svg version="1.1" xmlns="http://www.w3.org/2000/svg" xmlns:xlink="http://www.w3.org/1999/xlink">

	<symbol id="fb" viewBox="0 0 20 20" fill="var(--color-fill, #1877F2)">
		<path d="M20 10.06C20 4.708 15.834.293 10.522.014 5.21-.266.61 3.689.055 9.012-.5 14.335 3.184 19.164 8.438 20v-7.031H5.899V10.06h2.539V7.844c0-2.522 1.493-3.915 3.777-3.915.75.01 1.498.076 2.238.196v2.477h-1.26c-.436-.059-.874.086-1.191.391-.317.306-.479.74-.44 1.18v1.887h2.774l-.443 2.909h-2.33V20c4.86-.774 8.438-4.99 8.437-9.94z"/>
	</symbol>

	<symbol id="tw" viewBox="0 0 1200 1227" fill="currentColor">
		<path d="M714.163 519.284L1160.89 0H1055.03L667.137 450.887L357.328 0H0L468.492 681.821L0 1226.37H105.866L515.491 750.218L842.672 1226.37H1200L714.137 519.284H714.163ZM569.165 687.828L521.697 619.934L144.011 79.6944H306.615L611.412 515.685L658.88 583.579L1055.08 1150.3H892.476L569.165 687.854V687.828Z"/>
	</symbol>

	<symbol id="in" viewBox="0 0 20 20" fill="currentColor">
		<path d="M10.002 4.872c-2.837 0-5.126 2.29-5.126 5.128s2.289 5.128 5.126 5.128c2.838 0 5.127-2.29 5.127-5.128s-2.29-5.128-5.127-5.128zm0 8.462c-1.834 0-3.333-1.495-3.333-3.334s1.495-3.334 3.333-3.334S13.335 8.161 13.335 10s-1.499 3.334-3.333 3.334zm6.532-8.671c0 .664-.535 1.196-1.195 1.196-.665 0-1.196-.536-1.196-1.196 0-.661.535-1.197 1.196-1.197.66 0 1.195.536 1.195 1.197zm3.396 1.213c-.076-1.602-.442-3.02-1.615-4.19C17.145.516 15.727.15 14.125.07c-1.65-.093-6.6-.093-8.25 0-1.597.076-3.016.442-4.19 1.611C.512 2.851.151 4.27.07 5.871c-.093 1.652-.093 6.601 0 8.253.076 1.602.442 3.02 1.615 4.19 1.174 1.17 2.588 1.535 4.19 1.616 1.65.093 6.6.093 8.25 0 1.602-.076 3.02-.442 4.19-1.616 1.169-1.17 1.534-2.588 1.615-4.19.093-1.652.093-6.596 0-8.248zm-2.133 10.02c-.348.874-1.022 1.548-1.9 1.9-1.317.523-4.44.402-5.895.402-1.454 0-4.582.116-5.894-.402-.874-.348-1.548-1.021-1.9-1.9-.523-1.317-.402-4.441-.402-5.896s-.116-4.583.401-5.895c.348-.875 1.022-1.549 1.901-1.901 1.316-.523 4.44-.402 5.894-.402 1.455 0 4.582-.116 5.894.402.875.348 1.549 1.021 1.901 1.9.522 1.317.402 4.441.402 5.896s.12 4.583-.402 5.895z"/>
	</symbol>

	<symbol id="vk" viewBox="0 0 20 20" fill="currentColor">
		<path d="M16.919 0H3.08C1.38 0 0 1.38 0 3.081v13.836C0 18.62 1.38 20 3.081 20h13.836C18.62 20 20 18.62 20 16.919V3.08C20 1.38 18.62 0 16.919 0zm-.5 14.081h-1.683c-.549 0-.617-.4-1.625-1.362-.85-.838-1.213-.904-1.418-.904-.184 0-.31.138-.31.458v1.28c0 .378-.217.527-1.11.527-1.464 0-3.09-.904-4.325-2.575-1.843-2.484-2.313-4.338-2.313-4.739 0-.217.16-.366.378-.366H5.51c.389 0 .538.115.675.526.686 2.014 1.912 3.789 2.427 3.789.194 0 .217-.16.217-.572V8.095c0-.993-.561-1.076-.561-1.443 0-.144.115-.25.297-.25h2.404c.32 0 .366.114.366.503v2.781c0 .318.065.435.207.435.175 0 .336-.106.652-.457.986-1.089 1.797-2.815 1.797-2.815.103-.218.23-.367.573-.367h1.499c.297 0 .424.16.366.447-.171.801-1.9 3.239-1.9 3.239-.16.25-.229.388 0 .63.16.206.664.652.973 1.063.755.801 1.247 1.476 1.247 1.854.001.285-.16.366-.331.366z"/>
	</symbol>

	<symbol id="tiktok" viewBox="0 0 13 14" fill="currentColor">
		<path d="M5.7353 5.21325V7.61775C5.43247 7.53789 5.11558 7.527 4.80798 7.5859C4.50039 7.64479 4.20993 7.77197 3.95802 7.95804C3.70611 8.14412 3.49917 8.38436 3.35246 8.66105C3.20574 8.93774 3.12299 9.24383 3.1103 9.55675C3.09249 9.82655 3.13269 10.097 3.22821 10.35C3.32372 10.6029 3.47232 10.8325 3.66401 11.0232C3.8557 11.2139 4.08602 11.3613 4.33947 11.4555C4.59291 11.5497 4.8636 11.5885 5.1333 11.5693C5.40526 11.5899 5.67846 11.5513 5.93407 11.4562C6.18967 11.361 6.42159 11.2115 6.61383 11.0181C6.80606 10.8246 6.95403 10.5917 7.04754 10.3355C7.14104 10.0793 7.17785 9.80582 7.15542 9.534V0H9.53455C9.93967 2.5165 11.197 3.101 12.8832 3.3705V5.782C11.7153 5.68656 10.5887 5.30621 9.60192 4.67425V9.43862C9.60017 11.5937 8.32267 14 5.1508 14C4.55585 13.9973 3.96742 13.8758 3.42 13.6428C2.87258 13.4098 2.37717 13.0699 1.96279 12.6429C1.54842 12.216 1.22341 11.7107 1.00682 11.1566C0.790223 10.6024 0.686398 10.0106 0.701423 9.41587C0.720131 8.7965 0.869934 8.18814 1.14095 7.6309C1.41197 7.07365 1.79805 6.5802 2.27372 6.18308C2.74939 5.78595 3.30385 5.49419 3.90052 5.32702C4.4972 5.15984 5.12254 5.12107 5.7353 5.21325Z" />
	</symbol>

	<symbol id="google" viewBox="0 0 14.5 14.5">
		<path d="m3.2 8.8-.5 1.9h-1.9c-.5-1-.8-2.2-.8-3.4s.3-2.3.8-3.3l1.6.3.7 1.6c-.2.9-.2 2 .1 2.9" fill="var(--color-fill, #f0b529)" />
		<path d="m14.4 5.9c.2 1 .2 1.9 0 2.9-.3 1.6-1.3 3.1-2.6 4.2l-2.1-.1-.2-1.9c.9-.5 1.5-1.3 1.9-2.2h-4v-2.9z" fill="var(--color-fill, #5e7cb0)" />
		<path d="m11.8 12.9c-1.3 1-2.9 1.6-4.6 1.6-2.7 0-5.1-1.5-6.4-3.8l2.4-1.9c.8 2.2 3.3 3.4 5.6 2.5.2-.1.4-.2.7-.3z" fill="var(--color-fill, #2fa948)" />
		<path d="m11.9 1.7-2.3 1.9c-2.1-1.3-4.7-.6-6 1.4-.2.3-.3.6-.4.9l-2.4-2c1.3-2.4 3.8-3.9 6.5-3.9 1.7 0 3.4.6 4.6 1.7" fill="var(--color-fill, #dc4139)" />
	</symbol>

	<symbol id="apple" viewBox="0 0 16.4 19.9" fill="var(--color-fill, #000000)">
		<path d="m13.7 10.6c0 3 2.7 4 2.7 4 0 .1-.4 1.4-1.4 2.8-.8 1.2-1.7 2.4-3.1 2.5-1.3 0-1.8-.8-3.3-.8s-2 .8-3.3.8-2.3-1.3-3.2-2.5c-1.7-2.5-3-7-1.3-10.1 1-1.4 2.6-2.4 4.3-2.4 1.3 0 2.5.9 3.3.9s2.3-1.1 3.8-.9c.7 0 2.5.3 3.7 2-.1 0-2.2 1.2-2.2 3.7m-2.5-7.4c.7-.8 1.2-2 1-3.2-1 0-2.2.7-2.9 1.5s-1.2 2-1.1 3.1c1.1.1 2.3-.6 3-1.4" />
	</symbol>

</svg>
