<svg version="1.1" xmlns="http://www.w3.org/2000/svg" xmlns:xlink="http://www.w3.org/1999/xlink">

    <symbol id="home" viewBox="0 0 20 20" fill="currentColor">
        <path d="M17.528 0 20 2.471v15.057L17.531 20H2.47L0 17.528V2.47L2.473 0h15.055zm-.57 1.373h-6.272v17.253h6.275l1.664-1.667V3.041l-1.667-1.668zm-7.645 0H3.041L1.373 3.04v13.92l1.666 1.667h6.274V1.373zm-4.667 4.58c.14 0 .271.052.367.15l1.008 1.008a.516.516 0 0 1 .152.368v4.69c0 .033.021.056.054.056H8.21c.033 0 .055.021.055.054v1.202c0 .033-.022.054-.055.054H2.825c-.033 0-.054-.02-.054-.054V12.28c0-.033.021-.054.054-.054h1.982c.033 0 .055-.023.055-.056V7.523a.264.264 0 0 0-.26-.26H2.825c-.033 0-.054-.022-.054-.055V6.005c0-.032.021-.053.054-.053zm11.247-.001c.14 0 .27.054.368.152l1.008 1.007a.52.52 0 0 1 .15.369v4.527a.52.52 0 0 1-.15.37l-1.008 1.007a.513.513 0 0 1-.368.15h-2.438a.513.513 0 0 1-.368-.15l-1.008-1.007a.52.52 0 0 1-.151-.37V7.48a.52.52 0 0 1 .15-.37l1.009-1.006a.514.514 0 0 1 .368-.152zm-.043 1.31h-2.351a.257.257 0 0 0-.261.262v4.44c0 .14.109.262.26.262h2.352c.14 0 .259-.121.259-.261V7.524a.263.263 0 0 0-.26-.261z" />
    </symbol>

	<symbol id="american-football" viewBox="0 0 19.9 19.9" fill="currentColor">
		<path d="m10 0c5.5 0 10 4.6 9.9 10 0 6.4-5.3 10-5.3 10h-5v-3c-1.3 1.8-3.5 2.9-5.7 2.9h-3.9v-1.4h3.9c1.4 0 2.7-.5 3.7-1.4h-7.6v-1.4h8.8c.3-.4.5-.9.6-1.4h-9.4v-1.4h9.6v-2.1h-9.6v-1c0-2.6 1-5.2 2.9-7.1 1.9-1.6 4.4-2.7 7.1-2.7zm0 1.4c-4.6 0-8.4 3.7-8.6 8.2h9.6v8.9h3.2s4.4-3.1 4.4-8.6c-.1-4.6-3.9-8.5-8.6-8.5zm3.7 8.2v1.4h-1.4v-1.4z"/>
	</symbol>

	<symbol id="aussie-rules" viewBox="0 0 20 20" fill="currentColor">
		<path  d="m1.4 11.7v8.3h-1.4v-8.3zm3.4-5.5v13.8h-1.4v-13.8zm15.2 5.5v8.3h-1.4v-8.3zm-3.4-5.5v13.8h-1.4v-13.8zm-10.5 2.4c-1.4-4.9 3.5-9.7 8.4-8.4l.3.1.1.3c1.4 4.8-3.4 9.7-8.4 8.4h-.3zm1.5-3.5c-.3.9-.4 1.8-.3 2.7.4.1.9.1 1.4.1s.9-.1 1.4-.3zm2.1-2.7c-.6.4-1.1.9-1.5 1.4l3.1 3.1c.6-.4 1.1-.9 1.5-1.5zm4-.9c-.4-.1-.9-.1-1.4-.1s-.9.1-1.4.3l2.5 2.5c.4-.9.5-1.8.3-2.7z"/>
	</symbol>

	<symbol id="badminton" viewBox="0 0 19.9 19.9" fill="currentColor">
		<path d="m15.9 5.8-1.7-1.7-3.9.6v-4.7h-3.7l-2.4 1.7-1.7 11.3-1.6 1.6c-1.2 1.2-1.2 3.2 0 4.4.6.6 1.4.9 2.2.9s1.6-.3 2.2-.9l1.5-1.5 11.5-1.7 1.6-2.5v-3.7h-4.6zm-10.4-3.3 1.6-1.1h1.9v4l-4.5 7.5-.4-.4c0-.1 1.4-10 1.4-10zm-1 15.5c-.3.3-.7.5-1.2.5-.4 0-.9-.2-1.2-.5-.7-.7-.7-1.8 0-2.4l1.7-1.7 2.4 2.4zm1.8-3.4-.8-.8 4.6-7.7 3.6-.6.7.8-.6 3.7zm12.2-3.6v1.9l-1 1.6-9.8 1.4-.4-.4 7.4-4.5z"/>
	</symbol>

	<symbol id="bandy" viewBox="0 0 20 20" fill="currentColor">
		<path d="m14.3 8.1 1 1-4.3 4.3 1.7 1.7h6.2l1.1 1.1v2.6l-1.1 1.2h-3.3l-5.6-5.6-5.6 5.6h-3.3l-1.1-1.1v-2.6l1.1-1.1h6.2l1.7-1.8-4.3-4.3 1-1 4.3 4.3c0 .1 4.3-4.3 4.3-4.3zm-8.4 8.5h-4.5v2.1h2.5zm12.7 0h-4.5l2.1 2.1h2.5v-2.1zm-2.4-10.3 1 1-.9.9-1-1s.9-.9.9-.9zm-12.4 0 .9.9-1 1-.9-.9zm16.2-3.8v2l-1.9 1.9-1-1zm-20 0 2.9 2.9-1 1-1.9-2zm10-2.5c1.7 0 3.1 1.4 3.1 3.1s-1.4 3.1-3.1 3.1-3.1-1.4-3.1-3.1 1.3-3.1 3.1-3.1zm0 1.4c-1 0-1.7.8-1.7 1.7 0 1 .8 1.7 1.7 1.7 1 0 1.7-.8 1.7-1.7s-.8-1.7-1.7-1.7z"/>
	</symbol>

	<symbol id="baseball" viewBox="0 0 19.9 19.9" fill="currentColor">
		<path d="m3 0 8.8 8.8 3.2 5.2 3.4 3.4.5-.5 1 1-2.1 2.1-1-1 .6-.6-3.4-3.4-5.2-3.1-8.8-8.8v-2l1.1-1.1zm-.5 1.4h-.9l-.2.3v.8l8.3 8.3 2.8 1.7-1.7-2.8c0-.1-8.3-8.3-8.3-8.3zm14.3-1.4c1.7 0 3.1 1.4 3.1 3.1s-1.4 3.1-3.1 3.1-3.1-1.4-3.1-3.1 1.4-3.1 3.1-3.1zm0 1.4c-.9 0-1.7.8-1.7 1.7s.8 1.7 1.7 1.7 1.7-.8 1.7-1.7c0-1-.7-1.7-1.7-1.7z"/>
	</symbol>

	<symbol id="basketball" viewBox="0 0 20 20" fill="currentColor">
        <path d="M15.782 16.392A27.055 27.055 0 0 0 8.438 6.027c.488-.37.998-.71 1.537-1.008 1.184 1.16 2.743 1.715 3.843 2.1.189.064.365.126.523.185 2.666 1 3.361 1.443 4.264 2.147.011.182.028.364.028.548a8.607 8.607 0 0 1-2.851 6.393M9.735 18.62c-.64-1.44-1.117-2.933-1.552-4.905-.347-1.575-.932-3.528-2.332-5.06a12.89 12.89 0 0 1 1.535-1.739 25.73 25.73 0 0 1 7.271 10.342A8.587 8.587 0 0 1 10 18.633c-.09 0-.176-.01-.265-.013m-6.323-3.053c.096-2.08.689-4.03 1.668-5.735.801.971 1.347 2.266 1.768 4.178.377 1.708.797 3.118 1.318 4.422a8.64 8.64 0 0 1-4.754-2.865M1.469 8.738a3.636 3.636 0 0 1 2.544.221 14.02 14.02 0 0 0-1.773 4.8A8.578 8.578 0 0 1 1.367 10c0-.429.042-.848.102-1.26M3.604 4.22a25.941 25.941 0 0 1 2.707 1.831 14.128 14.128 0 0 0-1.538 1.765c-.65-.339-1.697-.714-2.953-.557a8.62 8.62 0 0 1 1.784-3.039m5.524-.297c-.623.356-1.209.766-1.768 1.208A27.728 27.728 0 0 0 4.631 3.25a8.592 8.592 0 0 1 3.971-1.76 5.353 5.353 0 0 0 .526 2.434m.843-2.557H10c1.376 0 2.673.331 3.828.906a13.98 13.98 0 0 0-3.484 1.03 3.946 3.946 0 0 1-.373-1.936m8.306 6.198c-.741-.444-1.695-.88-3.456-1.54a20.046 20.046 0 0 0-.554-.198c-.902-.315-2.047-.718-2.958-1.437a12.663 12.663 0 0 1 4.305-.936 8.646 8.646 0 0 1 2.663 4.111M10 0C4.486 0 0 4.485 0 10s4.486 10 10 10 10-4.486 10-10S15.514 0 10 0" />
	</symbol>

	<symbol id="beach-soccer" viewBox="0 0 20 20" fill="currentColor">
		<path d="m1.4 18.6v1.4h-1.4v-1.4zm18.6 0v1.4h-1.4v-1.4zm-12.4 0v1.4h-1.4v-1.4zm6.2 0v1.4h-1.4v-1.4zm-3.1-2v1.4h-1.4v-1.4zm6.2 0v1.4h-1.4v-1.4zm-12.4 0v1.4h-1.4v-1.4zm5.5-16.6c2 0 3.9.8 5.4 2.2 1.4 1.4 2.2 3.4 2.2 5.4 0 4.2-3.4 7.6-7.6 7.6s-7.6-3.4-7.6-7.6 3.4-7.6 7.6-7.6zm1.4 11h-2.8l-.7.7.6 1.9c1 .2 2 .2 2.9 0l.6-1.9zm-4.8 1.2h-.8c.3.3.7.5 1.1.8zm7.6 0h-.8l-.3.8.3-.2c.2-.1.4-.2.5-.4zm-8.6-5.1-1.8 1c.1 1 .4 1.9.9 2.7h2.1l.6-.6-.9-2.8zm8.8 0-.9.3-.9 2.8.6.6h2.1c.5-.8.8-1.7.9-2.7zm-4.4-1.6-2.2 1.6.8 2.6h2.7l.8-2.6zm5.6-.5-.3 1.1.8.5c-.1-.6-.2-1.1-.5-1.6zm-11.2 0c-.3.5-.4 1-.5 1.5l.8-.5zm8.4-3-2.1 1.5v.9l2.4 1.7.9-.3.7-2.4c-.6-.5-1.2-1-1.9-1.4zm-5.6 0c-.7.4-1.3.9-1.9 1.5l.7 2.4.9.3 2.4-1.7v-1zm2.8-.6c-.4 0-.8 0-1.2.1l1.2.8 1.2-.8c-.4-.1-.8-.1-1.2-.1z"/>
	</symbol>

	<symbol id="beach-volleyball" viewBox="0 0 20 20" fill="currentColor">
		<path d="m1.4 18.6v1.4h-1.4v-1.4zm18.6 0v1.4h-1.4v-1.4zm-12.4 0v1.4h-1.4v-1.4zm6.2 0v1.4h-1.4v-1.4zm-3.1-2v1.4h-1.4v-1.4zm6.2 0v1.4h-1.4v-1.4zm-12.4 0v1.4h-1.4v-1.4zm5.5-16.6c2 0 3.9.8 5.4 2.2 1.4 1.4 2.2 3.4 2.2 5.4 0 4.2-3.4 7.6-7.6 7.6s-7.6-3.4-7.6-7.6 3.4-7.6 7.6-7.6zm-2.1 11.5c-.2.6-.3 1.2-.3 1.8.8.3 1.6.5 2.4.5.3 0 .5 0 .8-.1-1.1-.5-2.1-1.3-2.9-2.2zm2-2.9c-.5.4-1 1-1.3 1.5 1.1 1.4 2.6 2.4 4.3 3 .8-.4 1.5-1 2.1-1.8-.8-.1-1.6-.3-2.3-.7-1.1-.4-2.1-1.1-2.8-2zm-.7-3.9c-2.2 1.3-3.8 3.3-4.6 5.9.4.8 1 1.4 1.7 1.9.3-2.1 1.4-4.1 3.1-5.3.1-.9 0-1.7-.2-2.5zm4.1-2.4c.4.8.7 1.7.9 2.6.4 1.6.4 3.3 0 4.9l1.5.3c1.2-2.9.2-6.1-2.4-7.8zm-3.3-.9c-.3 0-.5 0-.8.1 1.3 1.7 1.9 3.8 1.6 6 .6.8 1.3 1.4 2.1 1.8.3-1.3.2-2.7-.1-4.1-.3-1.3-.8-2.5-1.5-3.6-.4-.2-.9-.2-1.3-.2zm-2.3.4c-2.4 1-3.9 3.2-3.9 5.8 0 .3 0 .7.1 1 1-2.2 2.7-4 4.9-5.2-.3-.6-.7-1.1-1.1-1.6z"/>
	</symbol>

	<symbol id="boxing" viewBox="0 0 19.9 19.9" fill="currentColor">
		<path d="m2.7 19.9h5.3l.9-1.3h-4.8v-1.6l-2.7-4.1v-5.8l1-1h3.9v4.4l2.7 4.1v4h7.5l.8-1.3v-2.6l2.7-4.1v-8.8l-1.8-1.8h-10.3l-1.7 1.7v3.1h-4.4l-1.8 1.8v6.7l2.7 4.1zm13.2-2.6h-5.6v-2.2h5.6zm-8.4-15 1-1h9.1l1 1v3.8h-6l-1.8 2.8 1.8 2.7h2.9l.9-1.3h-3.1l-.9-1.4.9-1.4h5.2v2.6l-2.4 3.6h-6.2l-2.4-3.6z"/>
	</symbol>

	<symbol id="cricket" viewBox="0 0 20 20" fill="currentColor">
		<path d="m19.9 0v1l-5.2 5.2.4.4v2.1l-11.3 11.3h-3.9v-3.9l11.3-11.3h2.1l.4.4 5.2-5.2zm-5.9 13.8c1.7 0 3.1 1.4 3.1 3.1 0 1.3-.8 2.4-1.9 2.9-1.2.5-2.5.2-3.4-.7s-1.2-2.2-.7-3.4c.6-1.2 1.7-1.9 2.9-1.9zm-1.3-7.6h-1l-10.4 10.5v2h1.9l10.5-10.5v-1zm1.3 9c-1 0-1.7.8-1.7 1.7 0 1 .8 1.7 1.7 1.7 1 0 1.7-.8 1.7-1.7.1-1-.7-1.7-1.7-1.7zm-12.7-13.8v11l-1.4 1.4v-12.4zm3.4 0v7.6l-1.4 1.4v-9zm3.5 0v4.1l-1.4 1.4v-5.5zm-1.4-1.4v1.4h-2.1v-1.4zm-3.4 0v1.4h-2.1v-1.4z"/>
	</symbol>

	<symbol id="cycling" viewBox="0 0 20 20" fill="currentColor">
		<path d="m20 4.1v-1.3h-9.7l.8-2.8h-4.9l-1.4 1.4v2.8h1.4v-2.1l.7-.7h2.5l-1.7 5.6c-3.4-.6-6.7 1.6-7.5 5s1.2 6.8 4.6 7.8 6.9-.9 8-4.2-.5-6.9-3.8-8.2l.3-1 10.7 5.4v-1.5l-10.3-5.3.3-.9zm-8.3 9.4c0 2.2-1.3 4.1-3.4 4.9-2 .8-4.3.2-5.7-1.5s-1.6-4.1-.6-6c1.1-1.9 3.2-2.9 5.3-2.6l-1.7 5.8 1.3.4 1.7-5.8c1.9.8 3.1 2.7 3.1 4.8z"/>
	</symbol>

	<symbol id="darts" viewBox="0 0 20 20" fill="currentColor">
		<path d="m1.214 5.283c2.106-3.876 6.508-5.906 10.822-4.99l-1.176 1.159c-.299-.03-.598-.046-.898-.046-4.768 0-8.634 3.865-8.634 8.633s3.866 8.634 8.634 8.634c2.446 0 4.777-1.038 6.414-2.855 1.637-1.818 2.427-4.244 2.174-6.677l1.156-1.176c.917 4.314-1.113 8.717-4.989 10.822-3.876 2.104-8.674 1.408-11.793-1.71-3.118-3.12-3.814-7.918-1.71-11.794zm7.716-.233v1.374c-1.634.484-2.753 1.92-2.753 3.614.004 2.09 1.697 3.782 3.786 3.784 1.694 0 3.132-1.117 3.614-2.748h1.373c-.515 2.37-2.554 4.077-4.986 4.077-2.824-.002-5.112-2.29-5.115-5.114 0-2.432 1.707-4.471 4.081-4.987zm7.55-4.974.009 3.435h3.435v1.374l-4.122 4.123h-3.436l-2.06 2.06h-1.376v-1.372l2.061-2.061v-3.437l4.124-4.122zm-1.365 2.061-2.749 2.748v2.749h2.749l2.748-2.749h-2.748z"/>
	</symbol>

	<symbol id="esports" viewBox="0 0 20 20" fill="currentColor">
		<path d="m10.7 0v6.9l1.5-1.4h5.2l2.6.9v12l-4 1.6h-1.1l-3.4-4.1h-2.9l-3.4 4.1h-1.2l-4-1.6v-11.9l2.6-1h5.2l1.5 1.4v-6.9zm-3.3 6.9h-4.5l-1.5.5v10.1l2.9 1.1h.3l3.4-4.1h4l3.4 4.1h.3l2.9-1.1v-10.1l-1.5-.5h-4.5l-2.6 2.5s-2.6-2.5-2.6-2.5zm9 4.4.9.9-2.1 2.1-.9-.9c0-.1 2.1-2.1 2.1-2.1zm-10.9-1.6v1.3h1.4v1.4h-1.4v1.4h-1.4v-1.4h-1.3v-1.4h1.4v-1.3zm8.9-.4.9.9-2.1 2.1-.9-.9c0-.1 2.1-2.1 2.1-2.1z"/>
	</symbol>

	<symbol id="field-hockey" viewBox="0 0 19.9 19.9" fill="currentColor">
		<path d="m5.6 7.6 4.4 4.4 4.3-4.3 1 1-4.3 4.3 5.2 5.2c.4.4 1 .5 1.5.3s.9-.7.9-1.3c0-.4-.1-.7-.4-1l-.4-.4 1-1 .4.4c.5.5.8 1.2.8 2 0 1.1-.7 2.1-1.7 2.6-1 .4-2.2.2-3-.5l-5.3-5.4-5.2 5.3c-.8.8-2 1-3 .5-1-.4-1.7-1.4-1.7-2.6 0-.7.3-1.4.8-2l.4-.4 1 1-.4.4c-.3.3-.4.6-.4 1 0 .6.3 1.1.9 1.3.5.2 1.1.1 1.5-.3l5.1-5.2-4.3-4.3zm10.5-1.8 1 1-.9.9-1-1zm-12.3 0 .9.9-1 1-.9-.9zm6.1-5.8c1.7 0 3.1 1.4 3.1 3.1s-1.4 3.1-3.1 3.1-3.1-1.4-3.1-3.1 1.4-3.1 3.1-3.1zm10 2v1.9l-1.9 2-1-1zm-19.9 0 2.9 2.9-1 1-1.9-2zm9.9-.6c-.9 0-1.7.7-1.7 1.7 0 .7.4 1.3 1.1 1.6.6.3 1.4.1 1.9-.4s.6-1.2.4-1.9-1-1-1.7-1z"/>
	</symbol>

	<symbol id="floorball" viewBox="0 0 20 20" fill="currentColor">
		<path d="m20 4.6v2.3l-9.7 13.1h-9.2l-1.1-1.1v-2.6l1.1-1.1h11.1zm-2.4 10.6c1.3 0 2.4 1.1 2.4 2.4s-1.1 2.4-2.4 2.4-2.4-1.1-2.4-2.4 1-2.4 2.4-2.4zm-14.2 1.4h-2v2.1h2.1zm3.5 0h-2.1v2.1h2.1zm4.3 0h-2.9v2.1h1.4zm6.4-.1c-.6 0-1 .5-1 1 0 .6.5 1 1 1s1-.5 1-1-.5-1-1-1zm-17.6-16.5 3 4.1h11.1l1.1 1.1v2.6l-1.1 1.2h-9.3l-4.8-6.7zm13.8 5.5h-2.1v2.1h2.1zm-3.5 0h-2v2.1h2.1v-2.1zm-3.4 0h-2.9l1.5 2.1h1.4z"/>
	</symbol>

	<symbol id="futsal" viewBox="0 0 20 20" fill="currentColor">
		<path d="m10 4.8c2 0 3.9.8 5.4 2.2 1.4 1.4 2.2 3.4 2.2 5.4 0 4.2-3.4 7.6-7.6 7.6s-7.6-3.4-7.6-7.6 3.4-7.6 7.6-7.6zm1.4 11h-2.8l-.7.7.6 1.9c.9.2 1.7.2 2.6.1l.3-.1.6-1.9zm2.8 1.2h-.8l-.3.8c.4-.2.7-.5 1.1-.8zm-7.6 0h-.8c.2.2.5.4.8.6l.3.2zm-1-5-1.8 1c.1.9.3 1.7.7 2.4l.2.3h2.1l.6-.6-.9-2.8c0-.1-.9-.3-.9-.3zm8.8 0-.9.3-.9 2.8.6.6h2.1c.4-.7.7-1.5.9-2.4v-.3s-1.8-1-1.8-1zm-13 1.1v2.1h-1.4v-2.1zm18.6 0v2.1h-1.4v-2.1zm-10-2.8-2.2 1.6.8 2.6h2.7l.8-2.6c.1 0-2.1-1.6-2.1-1.6zm-5.6-.5c-.2.4-.4.8-.5 1.2l-.1.3.8-.5c.1.1-.2-1-.2-1zm11.2 0-.3 1.1.8.5c-.1-.6-.2-1.1-.5-1.6zm-14.2-.8v2h-1.4v-2zm18.6 0v2h-1.4v-2zm-12.8-2.1c-.6.3-1.2.7-1.7 1.2l-.2.2.7 2.4.9.3 2.4-1.7v-1zm5.6 0-2.1 1.5v.9l2.4 1.7.9-.3.7-2.4c-.6-.6-1.2-1.1-1.9-1.4zm-2.8-.7c-.3 0-.6 0-.9.1h-.3l1.2.8 1.2-.8c-.4-.1-.8-.1-1.2-.1zm-8.6-1.4v2.1h-1.4v-2.1zm18.6 0v2.1h-1.4v-2.1zm-17.2-4.8v1.4h-1.4v1.4h-1.4v-2.8zm17.2 0v2.8h-1.4v-1.4h-1.4v-1.4zm-13.1 0v1.4h-2.1v-1.4zm4.1 0v1.4h-2v-1.4zm4.2 0v1.4h-2.1v-1.4z"/>
	</symbol>

	<symbol id="golf" viewBox="0 0 20 20" fill="currentColor">
		<path d="m7.4 13.4c2 .5 3.5 1.8 3.5 3.2 0 1.9-2.5 3.4-5.5 3.4s-5.5-1.5-5.5-3.4c0-1.4 1.4-2.7 3.5-3.2v1.4c-1.3.4-2.1 1.1-2.1 1.8 0 .4.4.9 1 1.3.8.5 2 .8 3.2.8 2.4 0 4.2-1.1 4.2-2.1 0-.4-.4-.9-1-1.3-.4-.2-.7-.4-1.2-.5zm-2.7-13.4 11.7 5.5-10.3 5.5v6.2h-1.4zm12.1 10.3c1.7 0 3.1 1.4 3.1 3.1s-1.4 3.1-3.1 3.1-3.1-1.4-3.1-3.1 1.3-3.1 3.1-3.1zm0 1.4c-1 0-1.7.8-1.7 1.7s.8 1.7 1.7 1.7c1 0 1.7-.8 1.7-1.7s-.8-1.7-1.7-1.7zm-10.7-9.6v7.6l7.6-4.2z"/>
	</symbol>

	<symbol id="handball" viewBox="0 0 20 20" fill="currentColor">
		<path d="m9.7 11.7 6.9 4.8v3.5h-1.4v-2.8l-6.2-4.3-7 7.1h-2l8.3-8.3zm-6.6-5.9 3.8 2.5h13.1v1.4h-13.5l-4.2-2.8s.8-1.1.8-1.1zm10.3-5.8c1.7 0 3.1 1.4 3.1 3.1s-1.4 3.1-3.1 3.1-3.1-1.4-3.1-3.1 1.4-3.1 3.1-3.1zm0 1.4c-1 0-1.7.8-1.7 1.7 0 1 .8 1.7 1.7 1.7s1.7-.8 1.7-1.7c.1-.9-.7-1.7-1.7-1.7zm-10-1.4c1.1 0 2.1.9 2.1 2.1s-.9 2-2.1 2c-1.1 0-2.1-.9-2.1-2.1.1-1.1 1-2 2.1-2zm0 1.4c-.4 0-.7.3-.7.7s.3.7.7.7.7-.3.7-.7-.3-.7-.7-.7z"/>
	</symbol>

    <symbol id="hockey" viewBox="0 0 20 20" fill="currentColor">
        <path d="M19.993 4.25v2.884l-6.297 11.713H1.3l-1.3-1.3v-3.166l1.299-1.3h13.946l4.748-8.83zm-5.481 10.197H1.866l-.5.5v2.035l.499.5H12.88l1.632-3.035zM7.734 2c2.58 0 5.356.77 5.356 2.461v3.018c0 1.691-2.777 2.462-5.356 2.462-2.579 0-5.355-.771-5.355-2.462V4.461C2.38 2.77 5.155 2 7.734 2zm3.99 4.174c-1.046.508-2.548.749-3.99.749-1.44 0-2.944-.241-3.989-.749v1.305c0 .282 1.372 1.096 3.99 1.096 2.617 0 3.99-.814 3.99-1.096zm-3.99-2.809c-2.617 0-3.989.815-3.989 1.096 0 .282 1.372 1.097 3.99 1.097 2.617 0 3.99-.815 3.99-1.097 0-.281-1.373-1.096-3.99-1.096z" />
    </symbol>

	<symbol id="horse-racing" viewBox="0 0 20 20" fill="currentColor">
		<path d="m7 0 2.1 2.1c3.4.1 6.2 1 8.1 2.9 2.6 2.6 2.8 6 2.8 6.6v8.4h-1.4v-8.3s0-3.4-2.4-5.7c-1.7-1.7-4.1-2.5-7.3-2.5h-.3l-1.7-1.8v3l-5.5 6.6v.8l1.3 1 4-2.7h2.9v-1.5h1.4v2.8h-3.9l-4.5 3-2.6-2v-2l5.5-6.6v-4.1zm2.5 13.1c-1.3 4.1-5.2 6.9-9.5 6.9v-1.4c1.2 0 2.3-.2 3.4-.7 1-.4 2-1.1 2.7-1.8.8-.8 1.4-1.7 1.8-2.7.1-.2.1-.3.1-.3z"/>
	</symbol>

	<symbol id="kabaddi" viewBox="0 0 20 20" fill="currentColor">
		<path d="m14.8 10.2 5.2 8.5v1.3h-.8l-5-8.1-4.9 2.2 3.4 5.9h-1.6l-3.8-6.5zm-6-1.2.6 1.3-5.5 2.5 4.6 7.2h-1.6l-4.3-6.6-1.2.5v6.1h-1.4v-7zm-5.7-6.2c1.7 0 3.1 1.4 3.1 3.1s-1.4 3.1-3.1 3.1-3.1-1.4-3.1-3.1 1.4-3.1 3.1-3.1zm5.5-2.1c0 1.8.7 3.6 2 4.8 1.3 1.3 3.1 2 5 2h4.4v1.3h-4.4c-2.2 0-4.3-.8-5.9-2.4-1.6-1.5-2.4-3.5-2.4-5.7zm-5.5 3.4c-1 0-1.7.8-1.7 1.7 0 1 .8 1.7 1.7 1.7 1 0 1.7-.8 1.7-1.7s-.7-1.7-1.7-1.7zm12.4-4.1c.8 0 1.6.3 2.2.9s.9 1.4.9 2.2c0 1.7-1.4 3.1-3.1 3.1s-3.1-1.4-3.1-3.1 1.4-3.1 3.1-3.1zm0 1.4c-1 0-1.7.8-1.7 1.7 0 1 .8 1.7 1.7 1.7.5 0 .9-.2 1.2-.5s.5-.8.5-1.2c0-.9-.7-1.7-1.7-1.7z"/>
	</symbol>

	<symbol id="mma" viewBox="0 0 20 20" fill="currentColor">
		<path d="m17.2 5.5v-5.5h-13.8v3.4h-3.4v9.9l3.5 3.4v3.2h12.4v-3.1l4.1-3.4v-7.9zm-1.3 0h-2.8v-4.1h2.8zm-4.2 3.5h-2.7v-7.6h2.8v7.6zm-4.1-7.6v7.6h-2.8v-7.6zm-4.2 3.4v4.2h-2v-4.2zm15.2 8-4.1 3.4v2.4h-9.7v-2.4l-3.4-3.4v-2.5h11l2.1.8v1.9h1.4v-2.9l-2.8-1.1v-2.2h5.5z"/>
	</symbol>

	<symbol id="motorsport" viewBox="0 0 20 20" fill="currentColor">
		<path d="m9.3 0c2 0 4 .7 5.6 2 1 .7 1.8 1.7 2.4 2.8v.1l2.6 8.3-2.5 3.8 1.1 1.7v1.3h-15.7v-1.4l1.3-1.6c-2.3-1.6-3.8-4.1-4-6.8-.3-2.8.7-5.5 2.7-7.4 1.7-1.8 4-2.8 6.5-2.8zm6.8 17.2h-10.4l-1.3 1.4h12.5zm-6.8-15.8c-2.1 0-4.1.9-5.6 2.4-1.5 1.4-2.3 3.5-2.3 5.6 0 2.6 1.3 5 3.4 6.5h11.8l1.7-2.8h-8.1l-4.3-4.3 1.9-1.9h8.9l-.5-1.5c-.5-.9-1.2-1.7-2-2.3-1.5-1.1-3.2-1.7-4.9-1.7zm-2.4 10.3v1.4h-1.4v-1.4zm10.1-3.4h-8.6l-.5.5 3 2.9h7.3z"/>
	</symbol>

    <symbol id="motorsport-auto-racing" viewBox="0 0 20 20" fill="currentColor">
        <path d="m9.3 0c2 0 4 .7 5.6 2 1 .7 1.8 1.7 2.4 2.8v.1l2.6 8.3-2.5 3.8 1.1 1.7v1.3h-15.7v-1.4l1.3-1.6c-2.3-1.6-3.8-4.1-4-6.8-.3-2.8.7-5.5 2.7-7.4 1.7-1.8 4-2.8 6.5-2.8zm6.8 17.2h-10.4l-1.3 1.4h12.5zm-6.8-15.8c-2.1 0-4.1.9-5.6 2.4-1.5 1.4-2.3 3.5-2.3 5.6 0 2.6 1.3 5 3.4 6.5h11.8l1.7-2.8h-8.1l-4.3-4.3 1.9-1.9h8.9l-.5-1.5c-.5-.9-1.2-1.7-2-2.3-1.5-1.1-3.2-1.7-4.9-1.7zm-2.4 10.3v1.4h-1.4v-1.4zm10.1-3.4h-8.6l-.5.5 3 2.9h7.3z"/>
    </symbol>

    <symbol id="motorsport-moto-racing" viewBox="0 0 20 20" fill="currentColor">
        <path d="m9.3 0c2 0 4 .7 5.6 2 1 .7 1.8 1.7 2.4 2.8v.1l2.6 8.3-2.5 3.8 1.1 1.7v1.3h-15.7v-1.4l1.3-1.6c-2.3-1.6-3.8-4.1-4-6.8-.3-2.8.7-5.5 2.7-7.4 1.7-1.8 4-2.8 6.5-2.8zm6.8 17.2h-10.4l-1.3 1.4h12.5zm-6.8-15.8c-2.1 0-4.1.9-5.6 2.4-1.5 1.4-2.3 3.5-2.3 5.6 0 2.6 1.3 5 3.4 6.5h11.8l1.7-2.8h-8.1l-4.3-4.3 1.9-1.9h8.9l-.5-1.5c-.5-.9-1.2-1.7-2-2.3-1.5-1.1-3.2-1.7-4.9-1.7zm-2.4 10.3v1.4h-1.4v-1.4zm10.1-3.4h-8.6l-.5.5 3 2.9h7.3z"/>
    </symbol>

	<symbol id="netball" viewBox="0 0 20 20" fill="currentColor">
		<path d="m13.8 8.3-1.6 9.7h-8.1l-1.3-8.3h-1.4v10.3h-1.4v-11.7zm-1.6 1.4h-8l1.2 6.9h5.6s1.2-6.9 1.2-6.9zm4.4-9.7c1.9 0 3.4 1.5 3.4 3.4s-1.5 3.4-3.4 3.4-3.4-1.5-3.4-3.4c-.1-1.9 1.4-3.4 3.4-3.4zm0 1.4c-1.1 0-2.1.9-2.1 2.1 0 1.1.9 2.1 2.1 2.1.5 0 1.1-.2 1.5-.6s.6-.9.6-1.5c-.1-1.2-1-2.1-2.1-2.1z"/>
	</symbol>

	<symbol id="pesapallo" viewBox="0 0 19.9 19.9" fill="currentColor">
		<path d="m16.1 13.7 3.8 5.2v1h-1l-3.6-4.8h-4.2l-2.3 1.7v3.1h-1.2v-3.8l3.2-2.4zm-12.9-5.6 2.2 2.2h8.3l.9 1.4h-9.8l-2.6-2.6zm7.4-5.4c1.7 0 3.1 1.4 3.1 3.1s-1.4 3.1-3.1 3.1-3.1-1.4-3.1-3.1c.1-1.7 1.4-3.1 3.1-3.1zm-3.7-2.7 1 1-6.9 6.8-1-1zm3.7 4.1h-.1c-.9.1-1.6.9-1.6 1.8 0 .7.4 1.3 1.1 1.6s1.4.1 1.9-.4.6-1.2.4-1.9c-.3-.6-1-1.1-1.7-1.1zm7.3-4.1c1.1 0 2.1.9 2.1 2.1 0 1.1-.9 2.1-2.1 2.1s-2.1-.9-2.1-2.1.9-2.1 2.1-2.1zm0 1.4c-.4 0-.7.3-.7.7s.3.7.7.7.7-.3.7-.7c-.1-.4-.4-.7-.7-.7z"/>
	</symbol>

	<symbol id="rugby-league" viewBox="0 0 20 20" fill="currentColor">
		<path d="m1.4 0v13.1h17.2v-13.1h1.4v20h-1.4v-5.5h-17.2v5.5h-1.4v-20zm4.2 8.6c-1.4-4.9 3.5-9.7 8.4-8.4l.3.1.1.3c1.4 4.9-3.4 9.8-8.4 8.5l-.3-.1zm1.5-3.5c-.4.9-.4 1.8-.3 2.7.4.1.9.1 1.4.1s.9-.1 1.4-.3zm2.1-2.7c-.6.4-1.1.9-1.5 1.4l3.1 3.1c.6-.4 1.1-.9 1.5-1.5zm4-.9c-.4-.1-.9-.1-1.4-.1s-.9.1-1.4.3l2.6 2.5c.2-.4.3-.9.3-1.4 0-.4 0-.9-.1-1.3z"/>
	</symbol>

	<symbol id="rugby-union" viewBox="0 0 19.9 19.9" fill="currentColor">
		<path d="m14.5 0c2.6-.1 4.5 1 4.5 1s1 1.9 1 4.4c0 1.5-.4 3.1-1 4.5-.8 1.8-2.1 3.6-3.8 5.3-1.7 1.7-3.5 2.9-5.3 3.8-1.5.7-3.1 1-4.7 1-2.4 0-4.2-1-4.2-1s-1-1.9-.9-4.4c0-1.5.4-3 1-4.5.8-1.8 2.1-3.6 3.8-5.3 1.7-1.7 3.5-3 5.3-3.8 1.3-.6 2.8-.9 4.3-1zm-12.5 11.4c-.4 1-.6 2.1-.6 3.2 0 1.7.4 2.9.6 3.4.6.3 1.9.6 3.5.6 1.1 0 2.1-.2 3.1-.6zm8.1-8.9c-1.5.8-2.9 1.9-4.3 3.3-1.4 1.4-2.5 2.8-3.2 4.3l7.3 7.3c1.5-.7 2.9-1.8 4.3-3.2 1.4-1.4 2.5-2.9 3.2-4.4zm1.9 4.5 1 1-.9.9.7.7-1 1-.7-.7-1.3 1.3.7.7-1 1-.6-.9-.9.9-1-1 .9-.9-.6-.6 1-1 .6.6 1.3-1.3-.7-.5 1-1 .6.6zm2.8-5.6h-.3c-1 0-2 .2-3 .6l6.5 6.4c.3-1 .5-2 .6-3 .1-1.6-.3-2.9-.6-3.5-.6-.3-1.9-.6-3.5-.6z"/>
	</symbol>

	<symbol id="snooker" viewBox="0 0 20 20" fill="currentColor">
		<path d="m3.1 13.8c1.7 0 3.1 1.4 3.1 3.1 0 1.3-.8 2.4-1.9 2.9-1.2.5-2.5.2-3.4-.7s-1.2-2.2-.7-3.4 1.6-1.9 2.9-1.9zm13.8 0c1.7 0 3.1 1.4 3.1 3.1 0 1.3-.8 2.4-1.9 2.9-1.2.5-2.5.2-3.4-.7s-1.2-2.2-.7-3.4 1.6-1.9 2.9-1.9zm-6.9 0c1.7 0 3.1 1.4 3.1 3.1s-1.4 3.1-3.1 3.1-3.1-1.4-3.1-3.1 1.4-3.1 3.1-3.1zm0 1.4c-1 0-1.7.8-1.7 1.7 0 1 .8 1.7 1.7 1.7 1 0 1.7-.8 1.7-1.7 0-1-.7-1.7-1.7-1.7zm-6.9 0c-1 0-1.7.8-1.7 1.7 0 1 .8 1.7 1.7 1.7 1 0 1.7-.8 1.7-1.7 0-1-.7-1.7-1.7-1.7zm13.8 0c-1 0-1.7.8-1.7 1.7 0 1 .8 1.7 1.7 1.7 1 0 1.7-.8 1.7-1.7 0-1-.8-1.7-1.7-1.7zm-10.3-8.3c1.7 0 3.1 1.4 3.1 3.1s-1.4 3.1-3.1 3.1-3.1-1.4-3.1-3.1 1.3-3.1 3.1-3.1zm6.8 0c1.7 0 3.1 1.4 3.1 3.1s-1.4 3.1-3.1 3.1-3.1-1.4-3.1-3.1 1.4-3.1 3.1-3.1zm-6.8 1.4c-1 0-1.7.8-1.7 1.7s.8 1.7 1.7 1.7 1.7-.7 1.7-1.7-.8-1.7-1.7-1.7zm6.8 0c-1 0-1.7.8-1.7 1.7s.8 1.7 1.7 1.7 1.7-.8 1.7-1.7-.7-1.7-1.7-1.7zm-3.4-8.3c1.7 0 3.1 1.4 3.1 3.1s-1.4 3.1-3.1 3.1-3.1-1.4-3.1-3.1 1.4-3.1 3.1-3.1zm0 1.4c-1 0-1.7.8-1.7 1.7 0 1 .8 1.7 1.7 1.7s1.7-.8 1.7-1.7-.7-1.7-1.7-1.7z"/>
	</symbol>

    <symbol id="soccer" viewBox="0 0 19.9 19.9" fill="currentColor">
        <path d="m17 2.9c-3.9-3.9-10.2-3.9-14.1 0s-3.9 10.2 0 14.1c2.5 2.5 6.2 3.5 9.6 2.6s6.1-3.6 7-7c1-3.5 0-7.2-2.5-9.7zm.4 2.8c.6 1.1 1 2.2 1.1 3.4l-1.8-1zm-1.4-1.8c.1.1.3.3.4.4l-1.1 3.6-1.3.4-3.3-2.4v-1.4l3.2-2.2c.7.4 1.5.9 2.1 1.6zm-6-2.5c.8 0 1.6.1 2.3.3l-2.3 1.6-2.3-1.6c.7-.2 1.5-.3 2.3-.3zm-6.1 2.5c.6-.7 1.4-1.2 2.2-1.6l3.2 2.2v1.4l-3.3 2.4-1.4-.4-1.1-3.6c.1-.1.3-.3.4-.4zm-1.4 1.8.7 2.4-1.8 1c.1-1.2.5-2.4 1.1-3.4zm1.4 10.3c-.1-.1-.1-.2-.2-.2h2l.7 1.9c-1-.4-1.8-1-2.5-1.7zm2-1.6h-3.3c-.7-1.1-1.1-2.4-1.2-3.7l2.8-1.5 1.4.4 1.3 3.9zm6 3.9c-1.3.3-2.7.3-4 0l-1-3 1.1-1.1h3.8l1.1 1.1zm0-5.4h-3.9l-1.1-3.7 3.1-2.2 3.1 2.3zm4.1 3.1c-.7.7-1.5 1.3-2.4 1.7l.7-1.9h2c-.1.1-.2.2-.3.2zm-2-1.6-.9-.9 1.3-3.9 1.4-.4 2.8 1.5c-.1 1.3-.5 2.6-1.2 3.7z"/>
    </symbol>

	<symbol id="table-tennis" viewBox="0 0 20 20" fill="currentColor">
		<path d="m17.2 14.5c1.5 0 2.8 1.2 2.8 2.8 0 1.5-1.2 2.8-2.8 2.8-1.5 0-2.8-1.2-2.8-2.8.1-1.6 1.3-2.8 2.8-2.8zm0 1.4c-.8 0-1.4.6-1.4 1.4s.6 1.4 1.4 1.4 1.4-.6 1.4-1.4-.6-1.4-1.4-1.4zm-8.2-15.9c3.3 0 6.2 2.1 7.2 5.2s-.1 6.5-2.7 8.5c-2.6 1.9-6.2 2-8.9.1l-3.5 3.5h-1.1v-1.1l3.4-3.4c-2-2.3-2.6-5.5-1.4-8.2s3.9-4.6 7-4.6zm-6 6c-.2.5-.2 1.1-.2 1.6 0 1.9.9 3.7 2.4 4.9s3.5 1.6 5.4 1.1zm7-4.5c-2.6-.5-5.2.8-6.5 3.1l8.4 8.4c2.3-1.3 3.6-3.9 3.2-6.5-.4-2.5-2.5-4.6-5.1-5z"/>
	</symbol>

	<symbol id="tennis" viewBox="0 0 19.9 19.9" fill="currentColor">
		<path d="m13.2.1c2-.3 3.9.3 5.1 1.6 1.3 1.3 1.8 3.1 1.6 5.1-.3 2-1.3 3.9-2.8 5.5-.8.8-1.6 1.4-2.6 1.9-.8.4-1.7.7-2.6.9l-7.6 1.6-3.3 3.2h-1v-1l3.3-3.3 1.6-7.6c.3-1.9 1.3-3.7 2.8-5.2 1.5-1.5 3.5-2.5 5.5-2.7zm-7.8 12.1-.6 2.9 2.9-.6c-1-.5-1.8-1.3-2.3-2.3zm8.7-10.8c-.3 0-.5 0-.8.1-1.6.2-3.3 1-4.7 2.4-1.2 1.2-2 2.6-2.3 4.1l-.1.3v.2c-.2 1.6.2 3 1.2 4s2.4 1.4 4 1.2h.2l.4-.1c1.5-.3 2.9-1.1 4.1-2.3.7-.7 1.2-1.4 1.6-2.2s.7-1.6.8-2.5c.2-1.6-.2-3-1.2-4-.8-.8-1.9-1.2-3.2-1.2zm-11.4-1.4c.7 0 1.4.3 1.9.8.6.5.9 1.2.9 1.9 0 1.5-1.2 2.7-2.7 2.7s-2.8-1.1-2.8-2.7c0-1.5 1.2-2.7 2.7-2.7zm0 1.4c-.7 0-1.3.6-1.3 1.3 0 .8.6 1.4 1.4 1.4.4 0 .7-.1 1-.4s.4-.6.4-1c-.1-.7-.7-1.3-1.5-1.3z" />
	</symbol>

	<symbol id="volleyball" viewBox="0 0 19.9 19.9" fill="currentColor">
		<path d="m17 2.9c-2.8-2.8-7-3.7-10.7-2.2s-6.1 4.9-6.3 8.9 2 7.6 5.6 9.4c3.1 1.5 6.7 1.3 9.6-.5s4.7-5 4.7-8.5c0-2.7-1-5.2-2.9-7.1zm1.6 7.1c0 1.2-.2 2.4-.7 3.4-.9 0-1.8-.1-2.6-.4.5-2.1.5-4.4 0-6.5-.3-1.5-.9-2.9-1.6-4.2 3 1.4 4.8 4.4 4.9 7.7zm-6.9-8.5c1.1 1.6 1.8 3.3 2.2 5.2s.4 3.8 0 5.7c-1.2-.6-2.3-1.5-3.2-2.7.2-1.7.1-3.3-.5-4.9-.3-1.2-1-2.3-1.8-3.3 1.1-.2 2.2-.2 3.3 0zm-7.8 2.4c.8-.9 1.9-1.5 3-1.9.8.7 1.4 1.6 1.8 2.6-1.9 1-3.5 2.4-4.7 4-1 1.1-1.7 2.5-2.3 3.9-.9-3.1 0-6.4 2.2-8.6zm-1.2 10.7c0-.1-.1-.2-.1-.2.5-1.8 1.3-3.5 2.5-5 1.1-1.5 2.5-2.7 4.1-3.6.3 1.2.4 2.5.2 3.8-2.4 1.8-4 4.6-4.1 7.6-1.1-.7-1.9-1.6-2.6-2.6zm3.9 3.3c0-1.1.2-2.2.6-3.2 1.3 1.5 3 2.8 4.9 3.6-.7.2-1.4.3-2.1.3-1.2 0-2.3-.3-3.4-.7zm9.4-1.9c-.6.6-1.3 1.1-2.1 1.5-2.4-.8-4.5-2.3-6.1-4.2.5-.9 1.2-1.7 2.1-2.4 1.8 2.2 4.4 3.6 7.2 3.8-.3.5-.7.9-1.1 1.3z"/>
	</symbol>

	<symbol id="water-polo" viewBox="0 0 19.9 19.9" fill="currentColor">
		<path d="m15.2 15.8c1.6 0 2.4.9 3.1 1.6.5.5.9 1 1.6 1.2v1.4c-1.3-.2-2-1-2.6-1.6-.6-.7-1.1-1.1-2.1-1.1s-1.5.5-2.1 1.1c-.7.7-1.5 1.6-3.1 1.6s-2.5-1-3.2-1.7c-.6-.7-1.1-1.1-2.1-1.1s-1.5.5-2.1 1.1c-.6.7-1.3 1.5-2.6 1.6v-1.4c.7-.1 1.1-.6 1.6-1.2.7-.7 1.5-1.6 3.1-1.6s2.4.9 3.1 1.6 1.2 1.2 2.2 1.2 1.5-.5 2.1-1.2c.7-.6 1.5-1.5 3.1-1.5zm-5.2-15.8c2 0 3.9.8 5.3 2.2s2.2 3.3 2.2 5.3c0 4.2-3.4 7.6-7.6 7.6s-7.6-3.4-7.6-7.6c.1-4.1 3.5-7.5 7.7-7.5zm-2.1 11.4c-.2.6-.3 1.2-.3 1.9 1 .4 2.2.6 3.3.4-1.2-.6-2.2-1.4-3-2.3zm1.9-2.9c-.5.5-.9 1-1.3 1.5 1.1 1.4 2.6 2.4 4.3 3 .8-.4 1.5-1 2.1-1.8-.8-.1-1.6-.3-2.3-.7-1.1-.4-2-1.1-2.8-2zm-.6-3.8c-2.2 1.3-3.8 3.3-4.6 5.9.4.7 1 1.4 1.7 1.9.3-2.1 1.4-4 3.1-5.3 0-.9 0-1.7-.2-2.5zm4-2.4.2.4c.3.7.5 1.4.7 2.2.4 1.6.4 3.2 0 4.8.5.1 1.1.2 1.6.3 1.1-2.9.1-6.1-2.5-7.7zm-2-.8c-.7-.1-1.4-.2-2.1-.1.5.7.9 1.4 1.2 2.2.4 1.2.5 2.5.4 3.7.6.7 1.3 1.4 2.1 1.8.3-1.3.2-2.7-.1-4-.3-1.2-.8-2.5-1.5-3.6zm-3.6.3c-2.7 1.1-4.2 3.9-3.7 6.8 1-2.2 2.7-4 4.8-5.2-.3-.6-.6-1.1-1.1-1.6z"/>
	</symbol>

	<symbol id="winter-sports" viewBox="0 0 18.2 20" fill="currentColor">
		<path d="m18.2 12.4-.4-1.3-3.5 1-3.8-2.1 3.8-2.1 3.5 1 .4-1.3-2.2-.6 2.2-1.2-.7-1.2-2.2 1.2.7-2.2-1.3-.4-1 3.5-3.9 2.1v-4.4l2.6-2.6-1-1-1.6 1.7v-2.5h-1.4v2.5l-1.6-1.6-1 1 2.6 2.6v4.4l-3.9-2.2-1-3.5-1.3.4.6 2.1-2.1-1.1-.7 1.2 2.2 1.2-2.2.6.4 1.3 3.5-1 3.8 2.1-3.8 2.1-3.5-1-.4 1.3 2.2.6-2.2 1.2.7 1.2 2.2-1.2-.6 2.1 1.3.4 1-3.5 3.9-2.1v4.4l-2.6 2.6 1 1 1.6-1.6v2.5h1.4v-2.5l1.6 1.6 1-1-2.6-2.6v-4.4l3.9 2.1 1 3.5 1.3-.4-.6-2.1 2.2 1.2.7-1.2-2.4-1.2z"/>
	</symbol>

    <symbol id="winter-sports-alpine-skiing" viewBox="0 0 18.2 20" fill="currentColor">
        <path d="m18.2 12.4-.4-1.3-3.5 1-3.8-2.1 3.8-2.1 3.5 1 .4-1.3-2.2-.6 2.2-1.2-.7-1.2-2.2 1.2.7-2.2-1.3-.4-1 3.5-3.9 2.1v-4.4l2.6-2.6-1-1-1.6 1.7v-2.5h-1.4v2.5l-1.6-1.6-1 1 2.6 2.6v4.4l-3.9-2.2-1-3.5-1.3.4.6 2.1-2.1-1.1-.7 1.2 2.2 1.2-2.2.6.4 1.3 3.5-1 3.8 2.1-3.8 2.1-3.5-1-.4 1.3 2.2.6-2.2 1.2.7 1.2 2.2-1.2-.6 2.1 1.3.4 1-3.5 3.9-2.1v4.4l-2.6 2.6 1 1 1.6-1.6v2.5h1.4v-2.5l1.6 1.6 1-1-2.6-2.6v-4.4l3.9 2.1 1 3.5 1.3-.4-.6-2.1 2.2 1.2.7-1.2-2.4-1.2z"/>
    </symbol>

    <symbol id="winter-sports-biathlon" viewBox="0 0 18.2 20" fill="currentColor">
        <path d="m18.2 12.4-.4-1.3-3.5 1-3.8-2.1 3.8-2.1 3.5 1 .4-1.3-2.2-.6 2.2-1.2-.7-1.2-2.2 1.2.7-2.2-1.3-.4-1 3.5-3.9 2.1v-4.4l2.6-2.6-1-1-1.6 1.7v-2.5h-1.4v2.5l-1.6-1.6-1 1 2.6 2.6v4.4l-3.9-2.2-1-3.5-1.3.4.6 2.1-2.1-1.1-.7 1.2 2.2 1.2-2.2.6.4 1.3 3.5-1 3.8 2.1-3.8 2.1-3.5-1-.4 1.3 2.2.6-2.2 1.2.7 1.2 2.2-1.2-.6 2.1 1.3.4 1-3.5 3.9-2.1v4.4l-2.6 2.6 1 1 1.6-1.6v2.5h1.4v-2.5l1.6 1.6 1-1-2.6-2.6v-4.4l3.9 2.1 1 3.5 1.3-.4-.6-2.1 2.2 1.2.7-1.2-2.4-1.2z"/>
    </symbol>

    <symbol id="winter-sports-cross-country" viewBox="0 0 18.2 20" fill="currentColor">
        <path d="m18.2 12.4-.4-1.3-3.5 1-3.8-2.1 3.8-2.1 3.5 1 .4-1.3-2.2-.6 2.2-1.2-.7-1.2-2.2 1.2.7-2.2-1.3-.4-1 3.5-3.9 2.1v-4.4l2.6-2.6-1-1-1.6 1.7v-2.5h-1.4v2.5l-1.6-1.6-1 1 2.6 2.6v4.4l-3.9-2.2-1-3.5-1.3.4.6 2.1-2.1-1.1-.7 1.2 2.2 1.2-2.2.6.4 1.3 3.5-1 3.8 2.1-3.8 2.1-3.5-1-.4 1.3 2.2.6-2.2 1.2.7 1.2 2.2-1.2-.6 2.1 1.3.4 1-3.5 3.9-2.1v4.4l-2.6 2.6 1 1 1.6-1.6v2.5h1.4v-2.5l1.6 1.6 1-1-2.6-2.6v-4.4l3.9 2.1 1 3.5 1.3-.4-.6-2.1 2.2 1.2.7-1.2-2.4-1.2z"/>
    </symbol>

    <symbol id="winter-sports-ski-jumping" viewBox="0 0 18.2 20" fill="currentColor">
        <path d="m18.2 12.4-.4-1.3-3.5 1-3.8-2.1 3.8-2.1 3.5 1 .4-1.3-2.2-.6 2.2-1.2-.7-1.2-2.2 1.2.7-2.2-1.3-.4-1 3.5-3.9 2.1v-4.4l2.6-2.6-1-1-1.6 1.7v-2.5h-1.4v2.5l-1.6-1.6-1 1 2.6 2.6v4.4l-3.9-2.2-1-3.5-1.3.4.6 2.1-2.1-1.1-.7 1.2 2.2 1.2-2.2.6.4 1.3 3.5-1 3.8 2.1-3.8 2.1-3.5-1-.4 1.3 2.2.6-2.2 1.2.7 1.2 2.2-1.2-.6 2.1 1.3.4 1-3.5 3.9-2.1v4.4l-2.6 2.6 1 1 1.6-1.6v2.5h1.4v-2.5l1.6 1.6 1-1-2.6-2.6v-4.4l3.9 2.1 1 3.5 1.3-.4-.6-2.1 2.2 1.2.7-1.2-2.4-1.2z"/>
    </symbol>

    <symbol id="result" viewBox="0 0 20 20">
        <path d="M17.528,0 L20,2.471 L20,17.528 L17.531,20 L2.469,20 L0,17.528 L0,2.47 L2.473,0 L17.528,0 Z M16.958,1.373 L10.686,1.373 L10.686,18.626 L16.961,18.626 L18.625,16.959 L18.625,3.041 L16.958,1.373 Z M9.313,1.373 L3.041,1.373 L1.373,3.039 L1.373,16.959 L3.039,18.626 L9.313,18.626 L9.313,1.373 Z M4.6461,5.9522 C4.7861,5.9522 4.9171,6.0052 5.0131,6.1032 L5.0131,6.1032 L6.0211,7.1112 C6.1181,7.2082 6.1731,7.3382 6.1731,7.4792 L6.1731,7.4792 L6.1731,12.1692 C6.1731,12.2022 6.1941,12.2252 6.2271,12.2252 L6.2271,12.2252 L8.2091,12.2252 C8.2421,12.2252 8.2641,12.2462 8.2641,12.2792 L8.2641,12.2792 L8.2641,13.4812 C8.2641,13.5142 8.2421,13.5352 8.2091,13.5352 L8.2091,13.5352 L2.8251,13.5352 C2.7921,13.5352 2.7711,13.5142 2.7711,13.4812 L2.7711,13.4812 L2.7711,12.2792 C2.7711,12.2462 2.7921,12.2252 2.8251,12.2252 L2.8251,12.2252 L4.8071,12.2252 C4.8401,12.2252 4.8621,12.2022 4.8621,12.1692 L4.8621,12.1692 L4.8621,7.5232 C4.8621,7.3812 4.7421,7.2622 4.6021,7.2622 L4.6021,7.2622 L2.8251,7.2622 C2.7921,7.2622 2.7711,7.2412 2.7711,7.2082 L2.7711,7.2082 L2.7711,6.0052 C2.7711,5.9732 2.7921,5.9522 2.8251,5.9522 L2.8251,5.9522 Z M15.8925,5.9515 C16.0325,5.9515 16.1635,6.0055 16.2605,6.1035 L16.2605,6.1035 L17.2685,7.1105 C17.3655,7.2085 17.4195,7.3385 17.4195,7.4795 L17.4195,7.4795 L17.4195,12.0065 C17.4195,12.1485 17.3655,12.2785 17.2685,12.3765 L17.2685,12.3765 L16.2605,13.3835 C16.1635,13.4815 16.0325,13.5345 15.8925,13.5345 L15.8925,13.5345 L13.4545,13.5345 C13.3145,13.5345 13.1835,13.4815 13.0865,13.3835 L13.0865,13.3835 L12.0785,12.3765 C11.9815,12.2785 11.9275,12.1485 11.9275,12.0065 L11.9275,12.0065 L11.9275,7.4795 C11.9275,7.3385 11.9815,7.2085 12.0785,7.1105 L12.0785,7.1105 L13.0865,6.1035 C13.1835,6.0055 13.3145,5.9515 13.4545,5.9515 L13.4545,5.9515 Z M15.8495,7.2625 L13.4985,7.2625 C13.3465,7.2625 13.2375,7.3815 13.2375,7.5235 L13.2375,7.5235 L13.2375,11.9645 C13.2375,12.1045 13.3465,12.2255 13.4985,12.2255 L13.4985,12.2255 L15.8495,12.2255 C15.9895,12.2255 16.1085,12.1045 16.1085,11.9645 L16.1085,11.9645 L16.1085,7.5235 C16.1085,7.3815 15.9895,7.2625 15.8495,7.2625 L15.8495,7.2625 Z"/>
    </symbol>

    <symbol id="live-table" viewBox="0 0 20 20" fill="currentColor">
        <path d="M17.528 0 20 2.471v15.057L17.531 20H2.47L0 17.528V2.47L2.473 0h15.055zm-.57 1.373h-6.272v17.253h6.275l1.664-1.667V3.041l-1.667-1.668zm-7.645 0H3.041L1.373 3.04v13.92l1.666 1.667h6.274V1.373zm-4.667 4.58c.14 0 .271.052.367.15l1.008 1.008a.516.516 0 0 1 .152.368v4.69c0 .033.021.056.054.056H8.21c.033 0 .055.021.055.054v1.202c0 .033-.022.054-.055.054H2.825c-.033 0-.054-.02-.054-.054V12.28c0-.033.021-.054.054-.054h1.982c.033 0 .055-.023.055-.056V7.523a.264.264 0 0 0-.26-.26H2.825c-.033 0-.054-.022-.054-.055V6.005c0-.032.021-.053.054-.053zm11.247-.001c.14 0 .27.054.368.152l1.008 1.007a.52.52 0 0 1 .15.369v4.527a.52.52 0 0 1-.15.37l-1.008 1.007a.513.513 0 0 1-.368.15h-2.438a.513.513 0 0 1-.368-.15l-1.008-1.007a.52.52 0 0 1-.151-.37V7.48a.52.52 0 0 1 .15-.37l1.009-1.006a.514.514 0 0 1 .368-.152zm-.043 1.31h-2.351a.257.257 0 0 0-.261.262v4.44c0 .14.109.262.26.262h2.352c.14 0 .259-.121.259-.261V7.524a.263.263 0 0 0-.26-.261z" />
    </symbol>
</svg>
